<?xml version="1.0" encoding="UTF-8"?><svg id="Layer_1" xmlns="http://www.w3.org/2000/svg" viewBox="0 0 680 679.68"><defs><style>.cls-1{fill:#1d1d20;}.cls-2{fill:#3c3c40;}.cls-3,.cls-4,.cls-5,.cls-6,.cls-7,.cls-8,.cls-9,.cls-10,.cls-11,.cls-12,.cls-13,.cls-14,.cls-15,.cls-16,.cls-17,.cls-18,.cls-19{stroke:#231f20;stroke-miterlimit:10;}.cls-3,.cls-7,.cls-10,.cls-19{fill:#fff;}.cls-3,.cls-13,.cls-14{stroke-width:2.52px;}.cls-20{fill:#2e1b24;}.cls-21{fill:#2c1a23;}.cls-22{fill:#0d0e10;}.cls-4,.cls-8,.cls-23,.cls-13,.cls-17,.cls-18{fill:none;}.cls-4,.cls-9{stroke-width:4.41px;}.cls-5{fill:#fcbe7c;stroke-width:3.78px;}.cls-24{fill:#fad05c;}.cls-25{fill:#f9c88a;}.cls-6{fill:#988288;}.cls-6,.cls-8,.cls-12,.cls-15,.cls-19{stroke-width:3.15px;}.cls-26{fill:#0c0e0f;}.cls-27{fill:#121315;}.cls-28{fill:#3f3f48;}.cls-29{fill:#352028;}.cls-30{fill:#fbbe78;}.cls-7,.cls-16{stroke-width:1.89px;}.cls-31{fill:#331f26;}.cls-32{fill:#fdc581;}.cls-33{fill:#c4bfbd;}.cls-9{fill:#fbd76f;}.cls-10{stroke-width:3.17px;}.cls-34{fill:#2b1c22;}.cls-35{fill:#c9c7cd;}.cls-11{fill:#835453;stroke-width:8.2px;}.cls-36{fill:#769bb9;}.cls-37{fill:#bcc4c8;}.cls-38{fill:#855555;}.cls-12{fill:#fefdfa;}.cls-39{fill:#676158;}.cls-40{fill:#121417;}.cls-14{fill:#f1685a;}.cls-41{fill:#b7c3c9;}.cls-15{fill:#363341;}.cls-16,.cls-42{fill:#231f20;}.cls-43{fill:#2f1e24;}.cls-17{stroke-width:2.69px;}.cls-18{stroke-width:3.81px;}</style></defs><path class="cls-11" d="m139.94,224.26c.21-7.47-3.86-11.67-1.37-20.5,1.41-4.98,3.84-7.67,2.73-11.61-1.27-4.54-6.11-6.78-7.51-7.51-11.79-6.15-25.27-32.81-25.96-58.07-.16-5.97-.41-41.17,23.91-56.7,5.78-3.69,11.49-5.34,15.71-6.15,2.5-3.57,6.84-8.61,13.66-12.3,17.26-9.33,35.44-1.89,38.26-.68,4.15-.85,11.97-1.85,21.18.68,12.34,3.39,19.75,11.1,22.54,14.35,3.23-1.96,8.61-4.63,15.71-5.47,3.4-.4,6.42-.29,8.88,0,5.74-2.95,15.06-6.77,26.64-6.83,14.29-.08,17.9,5.62,32.79,5.47,12.81-.14,10.69-4.36,30.74-6.83,8.35-1.03,8.57-.28,32.11-2.05,7.6-.57,9.1-.77,12.3-.68,11.3.29,20.36,3.42,26.3,6.04,4.92-4,12.32-9.24,22.2-13.56,2.6-1.14,8.23-3.46,16.4-5.47,15.26-3.75,38.76-9.52,56.7,1.37,5.53,3.35,5.06,4.97,15.71,12.3,9.91,6.82,16.46,9.64,19.81,11.61,16.54,9.74,25.08,39.92,20.5,64.9-7.27,39.57-45.49,55.12-47.82,56.02-.01,4.07.4,10.21,2.73,17.08,4.92,14.48,14.06,19.49,25.28,32.79,4.96,5.88,16.43,19.48,21.18,36.66,2.2,7.95,5.01,24.09-2.96,46.46-4.83-5.21-9.66-10.41-14.49-15.62-1.93,3.95-4,9.34-5.03,15.95-2.15,13.86,1.54,25.11,3.8,30.63-3.95,3.86-8.8,7.28-13.21,6.15-6.45-1.65-8.6-12.17-10.7-11.61-1.61.42-.53,6.62-1.37,12.98-1.08,8.17-4.88,13.2-11.84,22.77-5.31,7.3-12.1,16.76-21.63,30.29-1.26-1.7-3.53-4.19-7.06-5.47-2.24-.81-5.6-1.36-14.12,1.59-10.48,3.63-17.63,6.11-22.32,12.98-3.98,5.83-1.89,8.54-6.6,13.21-.36.36-7.28,7.05-13.89,5.24-2.71-.74-3.03-2.27-5.69-3.19-4.32-1.49-8.83.78-12.98,3.19-7.01,4.07-10.52,6.11-17.53,12.98-13.69,13.41-30.22,2.67-62.17,12.3-23.9,7.2-22.91,15.71-38.26,15.71-12.2,0-18.47-5.36-45.77-21.18-28.15-16.31-22.88-11.41-42.36-23.23-30.23-18.34-46.3-28.33-59.44-47.82-6.01-8.93-9.57-17.12-11.61-22.54-1.13,2.74-3.81,8.13-9.56,12.3-3.36,2.44-7.3,5.29-10.25,4.1-4.98-2.02-3.2-14.01-4.1-30.06-.46-8.2-1.75-19.69-5.47-33.48-3.55,5.19-8.29,11.24-10.93,10.25-4.18-1.57-1.2-20.07,1.37-30.74,2.49-10.35,6.54-27.15,19.13-44.41,9.04-12.39,15.46-15.39,15.71-24.59Z"/><g id="Body"><path class="cls-38" d="m554.26,351.67s7.94,2,.43,17.02c0,0,0,0,0,0h0c-1.06,2.73-2.82,4.25-4.38,5.53-2.69,2.2-3.03,3.02-3.14,4.04-.3,2.87,4.83,5.44,9.99,8.43,5.28,3.05,9.98,7.03,15.28,10.02,16.56,9.34,38.94,42.36,38.94,42.36,16.85,27.78,33.7,55.57,50.56,83.35-15.79,30.77-34.44,44.46-47.14,51.24-104.99,56.06-257.27-120.12-380.53-72.42-41.64,16.12-69.78,25.77-95.3,33.17-27.68,8.03-53.43.63-75.5,18.75-16.85,13.84-25.56,33.39-24.78,33.96,1.21.88,41.52-32.71,45.82-73.41.62-5.85.82-14.99,6.72-24.82,7.22-12.05,18.93-18.36,27.58-21.8.36-6.32,1.77-16.12,7.51-25.96,6.88-11.78,14.72-14.64,24.34-27.27,11.44-15.03,8.31-22.47,13.66-26.3,19.59-14,70.79,73.59,138.88,88.13,105.6,22.54,244.6-132.13,251.04-124Z"/><path class="cls-8" d="m551.93,352.7c.63.81,4.68,8.09,2.51,15.71,0,0,0,0,0,0,0,0,0,0,0,0-1.46,1.82-2.92,3.66-4.38,5.53-1.06,1.35-2.1,2.7-3.14,4.04.99,1.24,2.54,3.08,4.61,5.12,8.99,8.86,18.57,12.46,20.67,13.32,7.08,2.92,16.93,10.96,38.94,42.36,21.9,31.24,39.2,61.86,50.56,83.35-8.15,15.69-22.48,37.36-47.14,51.24-108.37,61.02-243.83-125.32-380.53-72.42-64.45,24.94-170.79,51.92-170.79,51.92h0c-2.08-20.93-3.42-34.38-3.42-34.39h0s16.23,3.07,25.28-2.28c12.32-7.28,4.97-26.69,19.81-40.99,4.79-4.61,9.99-7.07,13.66-8.43.34-6.64,1.78-16.37,7.51-25.96,5.51-9.2,11.43-12.37,18.79-20.18,15.74-16.72,12.53-28.64,19.46-33.1,19.68-12.68,62.7,67.64,123.55,84.4,103.83,28.61,256.84-128.55,264.04-119.25Z"/><path class="cls-43" d="m550.33,341.09c4.82,3.86,8.05,23.2,1.26,31.51-1.12,1.37-4.78,5.17-3.65,7.95.56,1.37,2.03,1.89,3.59,2.56,3.75,1.63,6.86,4.48,10.42,6.49,3.63,2.05,10.29,6.99,23.57,19.64-10.42-9.28-18.74-10.17-22.89-10.08-21.15.5-43.24,29.26-48.51,73.1,17.23,11.74,37.07,26.37,34.84,30.74-2.85,5.6-40.34-8.5-53.29-12.98-94.2-32.6-206.36-16-247.18-8.49,0,0-15.79,3.27-15.84,3.02-.03-.16,100.41-.51,188.53-49.87,71.87-40.26,117.43-102.98,129.15-93.6Z"/></g><path class="cls-40" d="m225.14,286.89c3.01-16.24,16.53-26.45,17.42-27.1,16.35-11.99,31.92,2.08,86.42,8.88,25.13,3.14,32.05,1.62,40.31,8.88,11.26,9.9,11.7,24.43,13.66,52.95,5.19,75.31,9.47,79.24,4.1,83.52-30.76,24.53-173.04-67.04-161.91-127.13Z"/><path class="cls-20" d="m110.42,120.85c.71-.18,1.49,2.11,7.47,13.46,2.71,5.15,6.19,11.75,8.43,15.49,11.29,18.85,23.25,18.49,25.05,30.57.86,5.81-2.19,5.21-3.07,16.91-1.03,13.72,2.36,17.97,1.02,26.64-.85,5.52-2.95,8.48-14.35,23.06-21.62,27.66-29.2,36.39-26.3,42.09,1.76,3.46,5.17,1.47,9.9,6.58,4.43,4.79,3.77,9.06,8.2,21.01,2.84,7.68,3.56,7.12,4.61,10.76,5.26,18.22-11.67,35.72-8.26,38.47,2.25,1.82,10.92-4.78,15.95-10.29,4.88-5.35,7.41-10.83,8.71-14.35,1.41,4.91,3.84,11.68,8.2,18.96,0,0,9.04,15.11,25.11,26.13,35.18,24.14,136.28,16.15,233.13,19.98,11.04.44,19.92.94,24.99,1.25-2.63-9.71-2.81-11.89-2.45-12.01.54-.19,2.71,4.19,3.96,7.08,2.01,4.67,1.72,5.67,3.27,7.44,2.87,3.25,7.62,4.08,8.2,3.19.4-.62-1.46-1.7-1.82-4.33-.34-2.46.83-4.84,1.37-4.78.65.07.25,3.68,1.14,3.87,1.06.23,4-4.34,3.87-9.34-.05-2.16-.68-4.16-.23-4.33.58-.22,1.72,3.08,2.96,2.96,1.98-.19,2.41-8.89,3.64-8.88.82,0,1.05,3.81,2.05,3.87,1.35.08,2.75-6.74,3.42-6.6.33.07.18,1.79.46,1.82.47.06,1.3-5.05,2.05-5.01.66.04.71,4.01,1.59,4.1.75.07,1.23-2.72,2.28-2.73,1.01-.02,1.24,2.55,2.28,2.73,1.59.28,3.06-5.47,6.15-10.25,4.22-6.53,7.6-5.31,12.07-10.93,6.61-8.31,5.17-18.45,7.06-18.45,2.22,0,3.76,14.01,5.92,13.89,1.17-.07.87-4.16,4.1-6.38,2.24-1.53,3.7-.48,5.47-1.82,3.62-2.76,2.03-10.69,2.28-10.7.28-.01.08,10.29,2.73,10.93,1.27.31,2.76-1.7,3.19-2.28,2.92-3.93,2.07-9.34,2.05-9.34-.03,0-.57,11.63.68,11.84.89.15,2.54-5.5,2.73-6.15,1.72-5.87,3.48-16.78-.23-35.3,2.73,1.97,5.56,4.23,8.43,6.83,8.1,7.37,13.8,15.09,17.76,21.63-2.24-5.56-2.76-10.22-2.73-13.66.08-11.83,6.47-15.31,5.24-25.96-.7-6.03-3.01-7.16-2.73-13.21.25-5.57,2.47-10.04,4.33-12.98,5.47,9.79,10.93,19.58,16.4,29.38.25-3.49.51-8.99.23-15.71-.67-16.25-1.66-40.18-15.71-55.57-2.71-2.96-6.45-6.21-12.3-13.44-4.46-5.51-7.79-10.42-9.11-12.52-9.13-14.55-10.28-35.29-10.48-43.27,6.08-2.3,13.05-5.73,20.04-10.93,23.55-17.53,30.93-43.01,33.25-53.06.63,6.2.96,15.91-1.59,27.33-1.87,8.35-6.31,28.22-22.54,40.99-13.05,10.26-22.1,6.8-25.28,15.03-4.25,11,8.2,26.86,15.71,36.44,5.44,6.93,6.27,6.23,12.3,13.44,5.67,6.78,16.52,19.76,21.18,36.66,5.31,19.28.66,36.75-2.96,46.46-4.83-5.21-9.66-10.41-14.49-15.62-2.12,4.36-5.37,12.46-5.66,23.11-.29,10.71,2.54,19.01,4.44,23.48-2.82,2.72-8.87,7.92-13.21,6.15-1.02-.42-1.62-1.09-5.01-5.01-1.28-1.48-3.25-3.76-5.69-6.6.27,6.52-.74,11.5-1.64,14.7-2.03,7.21-6.66,13.89-15.85,26.96-2.03,2.88-1.81,2.49-7.34,10.24-4.25,5.96-7.71,10.86-10.01,14.13-1.14-1.68-3.42-4.44-7.06-5.47-3.26-.92-6.04,0-9.34,1.14-11.61,4-17.41,6-17.67,6.19-7.3,5.25-5.65,10.43-16.03,20.45-2.52,2.44-4.92,4.35-8.2,4.78-3.23.42-4.89-.9-9.61-1.7-.51-.09-5.7-.93-10.29-.17-8.3,1.37-14.38,7.93-19.72,13.71-3.78,4.08-4.39,5.72-7.51,7.29-5.3,2.65-10.75,1.53-12.98,1.14-13.42-2.36-27.17,1.14-34.38,2.97-8.1,2.06-6.39,3.24-33.67,14.18-6.95,2.79-8.95,3.47-11.87,3.8-13.52,1.53-24.62-6.93-29.15-10.25-31.12-22.79-48.67-19.64-95.9-56.29-9.3-7.22-20.24-16.35-28.89-31.62-4.13-7.28-6.54-13.85-7.97-18.45-1.63,5.8-4.32,9.66-6.14,11.85-1.71,2.06-4.1,4.53-8.05,5.8-2.02.65-6.62,2.13-8.88.02-2.97-2.78.74-9.29-.1-20.4-.14-1.85-.35-3.3-.45-3.8-.59-3.24-1.61-5.63-2.7-9.58-1.77-6.43-3.42-15.93-2.61-28.97-.15.92-.96,5.33-5.01,8.2-.44.31-3.7,2.94-5.92,2.05-4.26-1.7-2.5-15.41-1.82-20.72,1.74-13.61,3.15-24.57,10.48-36.44,4.76-7.7,12.57-16.66,20.72-28.79.73-1.09,2.27-3.41,3.6-6.76,2.56-6.44,2.52-12.05,2.49-13.38-.13-6.04-1.82-5.68-1.36-10.23.45-4.46,2.14-5.45,2.73-11.36.46-4.68-.36-6.43-.65-6.99-1.65-3.16-5.11-4.31-6.12-4.7-7.17-2.72-12.3-12.59-17.25-22.1-10.11-19.45-10.77-41.15-8.67-41.69Z"/><path class="cls-41" d="m321.98,332.45c-.82-.31-3.44,4.08-4.94,7.38-1.05,2.31-1.04,2.97-2.83,8.73-1.98,6.33-2.83,8.24-2.38,8.5.4.23,1.82-.86,6.56-7.4,4.02-13.72,4.23-16.97,3.59-17.22Z"/><path class="cls-36" d="m312.05,355.26c1.31-4.29,5.59-7.19,6.46-6.58.41.29-.18,1.18-.89,4.53-.88,4.13-.63,5.85-1.9,9.31-.66,1.8-.99,2.7-1.51,2.71-1.3.04-3.59-5.27-2.15-9.97Z"/><path class="cls-33" d="m231.75,334.05c-1.46,4.42-2.92,8.83-4.37,13.25,2.2,7.77,4.39,15.54,6.59,23.31,1.26-12.24,2.51-24.48,3.77-36.72-1.99.06-3.98.11-5.98.17Z"/><path class="cls-2" d="m237.06,282.25c.15,3.57.27,7.17.38,10.79.48,16.65.5,32.88.11,48.66,5.13-2.31,13.21-7.02,15.83-15.41,1.41-4.53.49-7.47-4.55-25.05-5.26-18.34-6.8-25.43-8.88-25.28-.8.06-1.86,1.18-2.88,6.29Z"/><g id="NOSE_EYES_EARS"><path class="cls-12" d="m183.47,194.47c-2.09,2.64-4.85,6.56-7.31,11.73-2.76,5.8-7.53,15.83-5.44,26.86.44,2.34.39.48,6.46,15.81,3.41,8.61,4.5,11.91,5.27,14.45,1.72,5.66,2.45,9.56,3.3,13.61,3.26,15.59,4.89,23.38,7.07,27.54,8.14,15.51,29.47,21.05,31.41,18.37,1.56-2.15-10.02-8.74-13.43-22.06-1.2-4.68-1.07-8.88-4.62-13.37-1.4-1.77-3.2-3.36-2.84-5.31.21-1.16,1.07-1.78,4.82-4.31,4.42-2.98,5.21-3.44,7.11-4.72,4.89-3.28,5.11-3.85,6.88-4.24,2.94-.65,3.58.64,6.42-.17,2.68-.77,4.42-2.57,5.79-3.99,2.75-2.86,1.87-3.62,3.83-5.34.32-.28,4.82-4.79,10.48-3.87,1.57.26,2.77.85,3.49,1.28,1.64-.35,3.29-.7,4.93-1.05.64-1.34,1.63-2.85,2.96-2.96,1.89-.16,2.45,2.64,5.31,3.79,3.3,1.32,5.07-1.41,8.02-.19,3.16,1.31,2.1,4.86,5.31,6.49,1.88.96,2.69-.04,10.28-.53,2.79-.18,2.62.64,5.69-.23,1.98-.56,5.13-1.18,8.91-.78,3.63.39,6.25,1.55,10.26,3.38,1.26.57,2.12,1.01,9.23,5.04,8.47,4.8,9.18,5.26,10.21,6.03,2.54,1.91,2.74,2.45,7.15,5.97,0,0,2.84,2.27,5.77,4.4,6.48,4.71,12.11,7.44,14.28,8.67,10.75,6.13,15.03,20.56,16.49,25.5,4.51,15.21-1.54,20.43,2.6,34.47,2.95,10.01,8.93,17.15,13.55,21.64.37-4.54,1.02-11.62,2.16-20.27,2.21-16.83,4-22.42,4.78-32.79,0,0,1.08-14.25-1.33-29.39-4.29-26.99-19.77-47.78-29.92-59.16,0-3.55-.16-8.28-.79-13.81-.27-2.34-.73-6.31-1.76-11.01-1.34-6.08-3.03-13.8-7.31-20.23-4-6.01-8.78-8.68-13.77-11.9-23.88-15.38-23.1-24.14-46.07-37.23-4.15-2.36-10.76-5.83-19.53-9.1-62.99,40.84-82.78,56.29-84.91,60.82-.24.51-2.27,5.18-3.69,4.9-.7-.14-1.03-1.42-1.19-2.38-2.1-.11-4.19-.23-6.29-.34Z"/><path class="cls-10" d="m427.96,57.52s7.94,2.32,16.74,8.3c9.99,6.8,10.11,10.85,21.18,18.45,7.86,5.39,8.17,3.6,12.3,7.51,8.15,7.73,6.42,14.23,14.35,19.81,5.74,4.04,8.01,1.58,12.3,5.47,8.15,7.37,4.74,20.54,8.2,21.18,1.2.22,2.56-1.19,8.88-12.3,5.92-10.39,8.88-15.65,8.88-18.45,0-6.79-4.43-7.11-8.88-19.81-3.17-9.04-1.8-11.37-4.78-13.66-4.56-3.5-8.98,1.02-22.54.68-9.99-.25-11.98-2.81-17.08-.68-7.22,3.01-6.79,9.62-11.61,10.25-5.99.78-8.28-9.22-21.18-18.45-8.55-6.12-16.74-8.3-16.74-8.3Z"/><path class="cls-19" d="m245.6,67.26s-7.88,1.88-16.8,5.78c-19.49,8.52-23.68,17.67-32.49,15.74-4.62-1.02-3.51-3.54-13.76-9.77-8.04-4.89-17.81-8.86-19.43-6.71-1.43,1.91,4.51,7.45,2.8,9.76-1.66,2.25-7.88-2.12-11.68.63-3.35,2.43-.51,7.29-3.59,13.46-3.53,7.07-9.6,5.4-11.64,10.9-2.32,6.22,4.83,10.03,7.39,23.74,1.74,9.36-.62,12.78,1.18,13.77,7.13,3.91,35.64-54.81,81.21-71.51,4.25-1.56,16.81-5.74,16.8-5.78Z"/><path class="cls-29" d="m308.67,125.82c-.39,1.02,6.88,3.43,14.75,9.81,5.82,4.72,9.68,9.75,12.12,13.46,4.07-2.28,10.04-5.57,17.37-9.35,16.79-8.66,25.18-13,29.72-14.18,24.81-6.45,52.58,5.18,60.38,15.12.54.69,2.09,2.78,4.87,4.69.6.42,9.1,6.07,18.7,2.99,5.17-1.66,8.39-5.12,8.28-5.29-.1-.15-3.03,2.26-4.78,1.28-1.38-.77-.81-2.94-1.71-4.95-1.73-3.87-7.79-4.6-9.91-4.95-9.27-1.56-14.4-7.89-22.54-12.81-8.64-5.23-31.87-15.63-57.22-12.3-26.15,3.44-43.47,20.03-50.21,27.33-1.38-2.14-4.17-5.81-8.99-8.36-4.82-2.55-10.49-3.36-10.83-2.49Z"/><path class="cls-31" d="m256.91,129.24c.44-.75.69-1.2.68-1.81-.03-1.81-2.29-3.09-5.81-4.95-4.87-2.59-7.31-3.88-8.43-4.33-6.56-2.62-9.84-3.94-13.38-4.04-6.65-.2-8.49,3.12-23.06,8.14,0,0-3.76,1.3-3.7,1.48.05.17,4.03-1.16,4.21-.74.17.41-3.38,2.01-7,4.21-5.8,3.52-4.99,4.44-15.37,12.75-1.44,1.16-3.62,3.6-6.72,6.66-1.21,1.2-2.52,2.5-2.62,4.33-.07,1.3.39,2.98,1.48,3.76,2.38,1.69,7.09-1.19,9.56-2.73,11.39-7.12,15.5-11.21,20.95-14.69,4.98-3.17,16.21-9.1,29.72-7.97,6.46.54,11.57,2.55,14.77,4.1,1.6-.77,3.47-2.06,4.7-4.16Z"/><path class="cls-35" d="m324.23,163.1c.66,1.47,1.64,3.5,3.02,5.82,2.7,4.55,4.37,5.87,3.85,7.03-.83,1.85-5.52.88-10.88.91-10.86.05-20.31,4.14-20.17,5.21.13,1.06,9.94,1.2,45.95-1.74-2.84-1.77-5.83-3.79-8.88-6.08-5-3.76-9.27-7.56-12.88-11.14Z"/><path class="cls-15" d="m248.07,232.54c6.1.62,11.13-1.68,16.4-4.1,4.61-2.11,6.91-3.17,8.92-5.38,1.4-1.54,2.25-3.07,4.4-3.85,2.71-.98,5.35-.46,5.35-.46,1.47.29,2.02.78,2.62.46,1.05-.57.56-2.72.57-5.12.01-4.35,1.66-9.52,4.9-12.41,1.59-1.42,1.96-.86,3.87-2.62,2.31-2.13,2.37-3.49,4.67-5.24,1.33-1.01,1.34-.57,3.87-2.05,2.35-1.37,4.13-2.41,5.58-4.33.57-.75,2.07-2.73,2.16-5.24.13-3.46-2.49-6.14-3.76-7.4-7.03-7-10.54-10.5-17.53-16.51-11.96-10.27-11.09-13.59-18.33-16.28-4.81-1.79-8.72-1.64-15.71-1.37-2.35.09-9.54.47-25.96,5.01-17.92,4.96-24.79,8.77-27.67,10.48-6.16,3.64-9.76,6.89-12.3,11.27-1.03,1.77-3.22,5.67-3.3,11.04-.1,5.96,2.45,10.36,3.87,12.75,2.5,4.21,3.32,3.18,9.22,10.93,2.86,3.76,4.24,6.06,5.35,8.54,1.46,3.25.98,3.48,2.05,5.24,1.87,3.06,3.86,3.23,10.48,7.29,6.19,3.8,6.63,5,10.02,5.81,2.99.72,3.63.01,7.74.34,6.84.54,7.31,2.66,12.52,3.19Z"/><path class="cls-13" d="m248.07,234.93c6.1.62,11.13-1.68,16.4-4.1,4.61-2.11,6.91-3.17,8.92-5.38,1.4-1.54,2.25-3.07,4.4-3.85,2.71-.98,5.35-.46,5.35-.46,1.47.29,2.02.78,2.62.46,1.05-.57.56-2.72.57-5.12.01-4.35,1.66-9.52,4.9-12.41,1.59-1.42,1.96-.86,3.87-2.62,2.31-2.13,2.37-3.49,4.67-5.24,1.4-1.06,1.8-.88,3.87-2.05,1.62-.92,3.57-2.27,5.58-4.33.89-1.08,2.1-2.91,2.16-5.24.09-3.49-2.47-6.11-3.76-7.4-7.03-7-10.54-10.5-17.53-16.51-11.96-10.27-11.09-13.59-18.33-16.28-4.81-1.79-8.72-1.64-15.71-1.37-2.35.09-9.54.47-25.96,5.01-17.92,4.96-24.79,8.77-27.67,10.48-6.16,3.64-9.76,6.89-12.3,11.27-1.03,1.77-3.22,5.67-3.3,11.04-.02,1.33-.01,7.3,3.87,12.75,2.94,4.12,4.56,3,9.22,8.55,1.66,1.98,3.83,4.6,5.35,8.54,1.66,4.3.56,5,2.05,7.62,1.57,2.76,3.15,2.79,10.48,7.29,6.19,3.8,6.63,5,10.02,5.81,2.99.72,3.63.01,7.74.34,6.84.54,7.31,2.66,12.52,3.19Z"/><path class="cls-27" d="m272.36,167.01c.02-.36,0-1.18-.56-1.71-.38-.36-1.02-.59-2.52-.3-3.63.72-5.85,2.99-5.85,2.99-3.6,3.69-3.41,8.98-3.33,11.19.11,3.11.94,5.62,1.67,7.3-.05,0-1.1,0-1.45.68-.29.57.09,1.23.17,1.37.73,1.29,2.65,1.13,5,1.67,2.53.58,2.17,1.2,5.33,2.3,1.93.68,4.37,1.53,7.52,1.29,1.34-.1,3.99-.34,6.45-2.22.8-.61,1.37-1.24,1.75-1.71.13-.23.31-.58.47-1.02.49-1.41.35-2.69.17-3.71-1.14-6.5-2.86-9.48-2.86-9.48-1.24-2.16-4.73-8.22-10.25-8.67-.72-.06-1.32,0-1.71.04Z"/><path class="cls-22" d="m194.47,180.88c-.15-.17-.34-.44-.34-.77,0-.55.56-.95.81-1.15,1.08-.88.86-1.82,1.92-3.93,0,0,.67-1.32,1.91-2.84.67-.82,2.52-3.09,5.52-4.16,2.67-.96,6.56-1.08,9.82,1.2,3.18,2.22,4.06,5.53,4.27,6.45.44.03.88.06,1.32.09-.1.73-.19,1.86-.04,3.2.28,2.52,1.15,3.55.64,5.04-.18.52-.73,1.06-1.84,2.13-1.98,1.92-2.96,2.88-4.31,3.59-1.38.73-4.14,1.8-5,.85-.5-.55-.53-1.5-.53-2.31,0-1.57.6-2.07.28-2.52-.51-.74-2.11.44-4.59,0-.52-.09-1.75-.67-4.19-1.81-2.26-1.06-1.63-.85-2.44-1.19-1.11-.46-2.38-.88-3.22-1.86Z"/><path class="cls-26" d="m206.54,188.94c-.49-.47-.7-1.01-.7-1.54-1-.3-1.48-.12-3.26-.69-1.02-.33-2.6-.85-4.18-2.09-1.19-.93-1.69-1.74-1.79-1.67-.15.11.72,2.08,2.52,3.5,1.12.88,2.19,1.23,3.37,1.62,2.1.69,2.14.23,4.05.88,0,0,0-.01-.01-.02Z"/><path class="cls-28" d="m213.4,171.51c-1.43-1.74-3.9-3.1-5.64-2.73-.56.12-1.08.43-2.22.51-.86.07-1.5-.04-1.75.34-.15.24-.15.64.04.85.49.55,1.84-.45,3.54-.6,2.58-.23,4.63,1.61,4.82,1.79,1.68,1.56,2.81,4.31,1.96,6.02-.29.59-.64.71-1.15,1.75-.6,1.23-.36,1.59-.81,2.43-.41.76-.81.85-1.63,1.41,0,.02,0,.03,0,.04.04.37.08.75.11,1.12.05-.05.09-.09.14-.14,1.57-1.53,2.52-1.63,2.69-2.65.05-.33,0-.58.17-1.07.26-.73.73-1.16.85-1.28.96-.98,1.16-5.01-1.15-7.81Z"/><path class="cls-28" d="m201.15,172.42c-.4.02-.74.34-1.11.94-1.39,2.29-1.28,5.79-1.07,5.81.15.01-.16-1.69.98-3.33,1.03-1.48,2.46-1.78,2.35-2.56-.07-.47-.66-.88-1.15-.85Z"/><path class="cls-23" d="m224.59,178.22c-.03.13,1.47.21,2.65,1.2,2.47,2.07,1.62,6.49,2.22,6.53.33.02.8-1.28.81-2.48.03-2.02-1.22-3.73-2.65-4.57-1.41-.84-3-.82-3.03-.68Z"/><path class="cls-28" d="m267.62,167.78c.07-.02.5-.11.77-.47.26-.35.34-.94.13-1.11-.43-.36-2.14.93-3.03,1.75-2.21,2.03-3.09,4.49-3.33,5.25-1.56,4.83.25,9.17,1.11,10.85.39.77,1.08,2.08,2.43,3.37,2.44,2.33,5.52,3.13,5.55,3.07.02-.04-1.1-.41-2.27-1.15-3.61-2.3-4.88-6.41-5.21-7.65-1.93-7.27,2.69-13.62,3.84-13.92Z"/><path class="cls-28" d="m281.24,178.38c.21-1.22-1.38-2.95-2.96-2.96-1.89-.01-3.05,2.43-3.42,3.64-1.34,4.49,3.18,9.11,3.64,8.88.41-.2-2.37-4.26-.68-6.83,1.08-1.65,3.19-1.44,3.42-2.73Z"/><g id="LE"><path class="cls-17" d="m194.66,167.07c-1.09,1.56-3.85,5.88-6.06,5.21-1.8-.55-2.33-4.04-2.48-5.01-.36-2.47-.58-8.24,5.25-16.4,10.37-14.52,27.76-19.6,35.26-19.84,1.86-.06,6.7.06,10.82.32,6.5.4,4.64.47,6.2.66,3.13.38,3.79.54,4.55,1.08,1.94,1.37,3.4,4.42,2.79,6.51-.92,3.15-6.39,3.67-9.19,4.04-13.97,1.88-38.07,10.45-47.14,23.43Z"/><path class="cls-23" d="m196.88,162.78c-.37-2.23-.67-6.12,1.13-10.13,4.64-10.32,18.57-10.98,19.71-11.02,6.27-.2,11.19,2.06,13.92,3.64-5.57,1.33-12.75,3.63-20.49,7.8-5.88,3.17-10.61,6.62-14.27,9.7Z"/><path class="cls-23" d="m202.53,157.72c.02-1.25.22-3.13,1.23-5.08,3.19-6.22,11.3-6.87,12.42-6.95,3.54-.23,6.47.72,8.41,1.61-4.05,1.67-8.24,3.53-12.55,5.61-3.31,1.59-6.48,3.2-9.51,4.82Z"/><path class="cls-14" d="m194.66,167.07c-1.09,1.56-3.85,5.88-6.06,5.21-1.8-.55-2.33-4.04-2.48-5.01-.36-2.47-.58-8.24,5.25-16.4,10.37-14.52,27.76-19.6,35.26-19.84,1.86-.06,6.7.06,10.82.32,6.5.4,4.64.47,6.2.66,3.13.38,3.79.54,4.55,1.08,1.94,1.37,3.4,4.42,2.79,6.51-.92,3.15-6.39,3.67-9.19,4.04-13.97,1.88-38.07,10.45-47.14,23.43Z"/><path class="cls-42" d="m259.98,126.82c-3.4,2.55-6.03,4.91-7.77,6.58-.48-.27-1.14-.64-1.95-1.05-3.14-1.58-5.79-2.42-7.06-2.8,0,0-3.62-1.07-7.39-1.45-9.89-1.01-17.44,1.9-21.26,3.42-8.67,3.45-16.77,9.52-20.74,13.64-.42.44-2.69,2.82-6.17,5.36-1.92,1.4-3.51,2.59-5.85,3.4-2.59.9-5.22,1.16-7.78,1.01,2.45.51,6.22.95,10.37-.24,6.11-1.76,8.58-5.77,15.4-11,1.15-.88,6.54-4.96,13.56-8.07,5.78-2.57,17.41-7.74,30.3-4.41,2.49.64,4.48,1.46,5.81,2.08.37.38.8.93,1.14,1.65.94,2.03.43,3.98.24,4.63.74-1.12,1.59-2.27,2.58-3.43,1.63-1.9,2.73-2.76,7.26-6.66,7.03-6.07,10.55-9.1,10.33-9.39-.29-.41-5.9,2.91-11.02,6.75Z"/></g><path class="cls-42" d="m338.14,156.53c-.37-.64-1.49-2.37-3.76-3.42-2.36-1.09-4.5-.74-5.21-.6.97-.51,1.94-1.02,2.9-1.54-1-2.41-2.76-5.93-5.81-9.48-1.63-1.9-2.73-2.76-7.26-6.66-7.03-6.07-10.55-9.1-10.33-9.39.3-.42,6.21,3.22,11.02,6.75,3.24,2.38,5.35,3.94,7.77,6.58,1.36,1.48,2.79,3.27,5.29,6.4,1.18,1.48,2.14,2.71,2.79,3.54.6-.41,1.21-.82,1.85-1.24,1.33-.86,2.63-1.66,3.91-2.39,2.86-2.47,7.51-6.19,13.79-9.79,7.22-4.14,36.53-19.58,62.81-9.43,13.31,5.14,22.89,12.55,22.89,12.55,5.27,4.08,7.53,6.88,12.3,8.37,8.01,2.49,16.18-.89,21.78-4.1-1.6,1.57-4.34,3.82-8.28,5.29-3.96,1.48-7.24,1.46-7.94,1.45-2.96-.05-5.51-.74-8.11-1.79-6.55-2.66-9.81-6.15-14.43-9.65,0,0-5.51-4.17-15.12-8.48-19.83-8.89-41.68-1.55-43.97-.83-11.28,3.57-19.8,9.42-25.7,14.6-3.79,2.76-7.57,5.52-11.36,8.28-1.28-.06-2.56-.11-3.84-.17.26.13,1.49.75,2.05,2.22.53,1.4.11,2.61,0,2.9Z"/><path id="Eyes" class="cls-18" d="m349.08,157.37c-.13,1.96.22,2.99,10.21,22.06,11.14,21.27,12.48,23.39,15.65,26.2,10.83,9.58,23.87,10.27,25.86,10.34,13.74.53,23.35-6.29,31.98-12.41,9.72-6.9,25.57-18.13,25.18-33.78-.21-8.45-5.58-14.86-10.89-21.37-7.21-8.85-15.32-13.47-19.73-15.61-2.24-1.09-11.24-5.27-23.13-5.76-24.25-.99-54.05,13.67-55.11,30.33Z"/><path id="Eyes-2" class="cls-14" d="m348.63,157.18c-.13,1.96.22,2.99,10.21,22.06,11.14,21.27,12.48,23.39,15.65,26.2,10.83,9.58,23.87,10.27,25.86,10.34,13.74.53,23.35-6.29,31.98-12.41,9.72-6.9,25.57-18.13,25.18-33.78-.21-8.45-5.58-14.86-10.89-21.37-7.21-8.85-15.32-13.47-19.73-15.61-2.24-1.09-11.24-5.27-23.13-5.76-24.25-.99-54.05,13.67-55.11,30.33Z"/><path class="cls-14" d="m352.39,165.54c3.35,8.05,9.48,12.52,11.29,13.76,7.77,5.31,15.62,5.62,18.93,5.7,4.26.11,16.2.42,25.24-8.73,7.01-7.1,8.11-15.69,8.3-17.45.21-1.95,1.42-14.71-7.64-23.16-5.48-5.11-11.93-6.05-15.01-6.45-16.78-2.2-29.07,9.93-37.45,18.2-2.22,2.19-4.71,5.05-5.31,9.16-.53,3.6.63,6.49,1.66,8.96Z"/><path class="cls-19" d="m401.32,146c1.55,6.82-3.17,12.16-3.62,12.65-3.57,3.91-8.21,4.71-10.2,5.06-1.74.3-5.39.89-9.54-.63-.35-.13-7.62-2.91-9.54-9.17-2.91-9.48,8.11-21.35,17.44-20.87,4.48.23,8.16,3.28,9.54,4.43,1.77,1.47,4.91,4.07,5.92,8.54Z"/><path class="cls-37" d="m390.58,135.55c-4.18-1.44-8.37-.15-8.85,0-.43.14-1.51.51-2.76,1.24-4.81,2.79-7.09,7.82-6.76,8.07.28.22,1.81-3.5,5.78-5.17,4.92-2.07,10.68.83,13.95,2.41,5.05,2.45,6.88,4.92,7.44,4.43.9-.79-2.17-8.7-8.8-10.98Z"/></g><path class="cls-42" d="m432,471.12c.21-6.73,4.99-12.38,10.63-15.59,6.8-3.88,14.87-4.64,22.51-5.4,1.5-.15,1.52-2.51,0-2.36-8.28.82-17.07,1.67-24.34,6.1-6.08,3.71-10.93,9.93-11.16,17.26-.05,1.52,2.32,1.52,2.36,0h0Z"/><path class="cls-42" d="m488.48,467.4c6.11-14.83,13.12-29.3,20.96-43.29,2.22-3.97,4.52-7.89,6.87-11.78.79-1.3-1.25-2.49-2.04-1.19-8.41,13.88-15.98,28.26-22.65,43.05-1.88,4.17-3.68,8.36-5.42,12.59-.58,1.41,1.71,2.02,2.28.63h0Z"/><path class="cls-42" d="m468.22,462.22c3.52,1.81,7.03,3.61,10.55,5.42.76.39,1.71.2,2.16-.57.41-.71.19-1.77-.57-2.16-3.52-1.81-7.03-3.61-10.55-5.42-.76-.39-1.71-.2-2.16.57-.41.71-.19,1.77.57,2.16h0Z"/><path class="cls-40" d="m424.04,360.92c.94-4.82,2.69-11.03,6.12-17.68,6.12-11.89,14.51-19.25,19.72-23.12-8.61,13.6-17.23,27.2-25.84,40.8Z"/><path class="cls-13" d="m311.38,182.22c4.22.39,9.02.56,14.27.3,8.4-.42,15.66-1.84,21.49-3.43"/><path class="cls-4" d="m142.65,223.99c.21-7.47-3.86-11.67-1.37-20.5,1.41-4.98,3.84-7.67,2.73-11.61-1.27-4.54-6.11-6.78-7.51-7.51-11.79-6.15-25.27-32.81-25.96-58.07-.16-5.97-.41-41.17,23.91-56.7,5.78-3.69,11.49-5.34,15.71-6.15,2.5-3.57,6.84-8.61,13.66-12.3,17.26-9.33,35.44-1.89,38.26-.68,4.15-.85,11.97-1.85,21.18.68,12.34,3.39,19.75,11.1,22.54,14.35,3.23-1.96,8.61-4.63,15.71-5.47,3.4-.4,6.42-.29,8.88,0,5.74-2.95,15.06-6.77,26.64-6.83,14.29-.08,17.9,5.62,32.79,5.47,12.81-.14,10.69-4.36,30.74-6.83,8.35-1.03,8.57-.28,32.11-2.05,7.6-.57,9.1-.77,12.3-.68,11.3.29,20.36,3.42,26.3,6.04,4.92-4,12.32-9.24,22.2-13.56,2.6-1.14,8.23-3.46,16.4-5.47,15.26-3.75,38.76-9.52,56.7,1.37,5.53,3.35,5.06,4.97,15.71,12.3,9.91,6.82,16.46,9.64,19.81,11.61,16.54,9.74,25.08,39.92,20.5,64.9-7.27,39.57-45.49,55.12-47.82,56.02-.01,4.07.4,10.21,2.73,17.08,4.92,14.48,14.06,19.49,25.28,32.79,4.96,5.88,16.43,19.48,21.18,36.66,2.2,7.95,5.01,24.09-2.96,46.46-4.83-5.21-9.66-10.41-14.49-15.62-1.93,3.95-4,9.34-5.03,15.95-2.15,13.86,1.54,25.11,3.8,30.63-3.95,3.86-8.8,7.28-13.21,6.15-6.45-1.65-8.6-12.17-10.7-11.61-1.61.42-.53,6.62-1.37,12.98-1.08,8.17-4.88,13.2-11.84,22.77-5.31,7.3-12.1,16.76-21.63,30.29-1.26-1.7-3.53-4.19-7.06-5.47-2.24-.81-5.6-1.36-14.12,1.59-10.48,3.63-17.63,6.11-22.32,12.98-3.98,5.83-1.89,8.54-6.6,13.21-.36.36-7.28,7.05-13.89,5.24-2.71-.74-3.03-2.27-5.69-3.19-4.32-1.49-8.83.78-12.98,3.19-7.01,4.07-10.52,6.11-17.53,12.98-13.69,13.41-30.22,2.67-62.17,12.3-23.9,7.2-22.91,15.71-38.26,15.71-12.2,0-18.47-5.36-45.77-21.18-28.15-16.31-22.88-11.41-42.36-23.23-30.23-18.34-46.3-28.33-59.44-47.82-6.01-8.93-9.57-17.12-11.61-22.54-1.13,2.74-3.81,8.13-9.56,12.3-3.36,2.44-7.3,5.29-10.25,4.1-4.98-2.02-3.2-14.01-4.1-30.06-.46-8.2-1.75-19.69-5.47-33.48-3.55,5.19-8.29,11.24-10.93,10.25-4.18-1.57-1.2-20.07,1.37-30.74,2.49-10.35,6.54-27.15,19.13-44.41,9.04-12.39,15.46-15.39,15.71-24.59Z"/><g id="BITCOIN"><ellipse class="cls-5" cx="285.64" cy="460.23" rx="145.89" ry="141.92"/><path class="cls-25" d="m343.62,357.18c-1.04.11-7.88.93-11.22,6.63-3.5,5.98-.47,12.73,0,13.77,3.9,8.69,13.96,11.02,21.42,12.75,4.71,1.09,7.8,1.76,10.2,0,4.29-3.15,3.1-11.66,1.53-16.32-2.97-8.8-12.04-17.86-21.93-16.83Z"/><path class="cls-25" d="m209.99,363.81c2.81,3.54,6.72,8.92,10.48,16.04,2.47,4.67,3.7,7,3.8,8.44.68,10.19-15.85,14.77-28.05,31.11-5.46,7.32-8.23,14.54-9.69,19.38-8.5.85-17,1.7-25.5,2.55,1.66-10.36,5.99-28.63,18.87-47.43,10.31-15.04,22.09-24.59,30.09-30.09Z"/><path class="cls-25" d="m282.92,343.91c-1.5-.39-19.58-4.78-29.78,5.75-1.61,1.66-6.22,6.43-5.93,13.12.22,5.01,3.08,8.5,4.08,9.69,3.83,4.56,8.88,5.91,11.73,6.63,10.89,2.76,29.37,1.31,35.7-10.71.64-1.21,4.6-9.08.51-16.32-3.01-5.33-9.34-8.45-16.32-8.16Z"/><path class="cls-24" d="m304.41,401.02c-2.15,4.05,2.25,10.02,7.59,17.28,5.96,8.1,13.72,18.63,23.41,17.88,3.81-.29,8.96-2.41,10-6.29.88-3.28-1.21-7.71-2.95-8.1-.19-.04-.75-.12-1.45-.45-.05-.02-1.28-.6-1.64-1.25-.62-1.11.44-3.26,2.66-5.16-1.32-2.78-5.97-11.7-16.09-15.58-7.48-2.87-18.86-3.34-21.53,1.68Z"/><path class="cls-25" d="m296.87,415.49c1.69,2.65,3.79,6.59,5.22,11.7,1.46,5.22,1.67,9.77,1.58,12.95,1.36.85,2.72,1.7,4.08,2.55.92-1.08,2.22-2.91,2.89-5.44,1.44-5.46-1.12-10.1-2.21-12.07-3.52-6.38-9.51-8.92-11.56-9.69Z"/><path class="cls-30" d="m293.81,461.22c4.53,13.49,9.07,26.98,13.6,40.46,6.43-3.72,11.7-7.15,15.64-9.86,8.88-6.09,10.68-8.23,10.37-10.2-.38-2.47-5.67-1.46-7.65-5.1-1.54-2.83.65-4.97-.17-8.67-1.14-5.13-6.88-7.89-8.84-8.84-10.3-4.97-21.56,1.4-22.95,2.21Z"/><path class="cls-32" d="m277.14,414.41c-4.57,1.74-9.14,3.48-13.71,5.21,1.64,12.7,4,26.49,7.37,41.14,4.12,17.94,9.06,34.12,14.17,48.4,5.25-1.51,10.5-3.02,15.75-4.53-7.86-30.07-15.72-60.15-23.58-90.22Z"/><g id="Coin"><g id="B"><path class="cls-42" d="m300.5,508.35c-.31.03-.59-.06-.71-.1-.94-.29-1.42-1.09-1.56-1.35-7.55-29.57-15.1-59.14-22.65-88.7-.07-.25-.03-.5.1-.71.15-.27.42-.38.57-.44.57-.22,1.98-.66,3.85-1.16,7.48,30.07,14.96,60.15,22.44,90.22-.39,1.25-1.17,2.17-2.04,2.24Z"/><path class="cls-42" d="m316.8,507.54c-.18.13-.47,0-.71-.1-.76-.29-1.93-.49-3.69-.09-7.18-30.83-14.36-61.66-21.54-92.49h0c-.52-.5.96,1.31,1.68,1.37.51.04,1.22-.48,2.17-2.62,7.07,30.15,14.13,60.3,21.2,90.45.68,1.46,1.34,3.14.89,3.47Z"/><path class="cls-42" d="m352.29,481.17c.92-7.16-1.11-13.36-2.04-16.21-.21-.63-.39-1.15-.52-1.49.09-3.14.09-3.84.06-3.84-.03,0,.09,1.3-.68,1.93-.31.25-.67.32-.91.34-2.33-5.22-4.62-8.43-6.35-10.43-1.32-1.54-2.48-2.55-3.97-4.87-1.46-2.28-1.49-3.09-2.83-4.08-1.36-1-2.52-1.04-3.32-2.42-.35-.6-.73-1.64-.31-2.12.34-.38,1.08-.29,1.59-.23,1.13.14,1.52.64,1.93.45.27-.12.55-.55.45-2.04,1.28.2,3.54.36,6.01-.57,2.82-1.06,6.42-3.72,6.12-6.35-.16-1.41-1.43-2.67-1.93-2.49-.52.18.22,1.79-.45,3.17-1.42,2.9-8.41,3.38-11.95.71-.26-.2-1.94-1.47-1.65-2.29.09-.25.37-.49,1.36-.68,2.21-.43,3.39.27,4.99.23.94-.03,2.26-.32,3.83-1.52-2.54-.68-4.5-1.54-5.87-2.22-.77-.39-2.16-1.14-3.4-2.61-.4-.47-1.06-1.26-.86-1.56.32-.46,2.29.67,5.28,1.45,3.02.79,6.15.96,6.26.55.1-.4-2.73-.71-6.03-3.04-1.52-1.08-4.31-3.05-6.41-6.5-.81-1.33-.99-2.02-1.98-2.8-1.74-1.37-3.99-1.43-5.33-1.47-1.57-.05-2.75.21-5.21-.11-.31-.04-.56-.08-.72-.11-.6-1.42-1.57-3.16-3.24-4.65-2.51-2.24-4.82-2.33-4.76-2.83.13-1.05,10.52-2.87,18.81,2.15,1.95,1.18,3.46,2.58,6.49,5.38,5.43,5.02,7.59,8.39,7.96,8.13.48-.33-2.25-6.68-7.65-12.04-2.08-2.06-5.03-4.92-9.75-6.57-3.74-1.31-6.77-1.19-12.69-.91-3.39.16-8.11.6-13.71,1.81-1.21-6.35-2.42-12.69-3.63-19.04-5.29.83-10.58,1.66-15.87,2.49.91,6.46,1.81,12.92,2.72,19.38-5.02,1.03-10.03,2.06-15.05,3.08-1.94-6.37-3.89-12.75-5.83-19.12-.21-.27-.86-1.02-1.9-1.19-1.57-.26-3.22.94-3.62,2.49-.32,1.25.27,2.32.44,2.61-2.76-.34-5.52-.68-8.27-1.02-1.62,1.02-3.25,2.04-4.87,3.06,1.26,5.49,2.52,10.98,3.78,16.47-3.68,1.01-7.36,2.01-11.04,3.02-8.21,2.83-16.43,5.65-24.64,8.48,1.07,4.69,2.15,9.38,3.22,14.08,7.92-1.42,15.83-2.84,23.75-4.26,6.89,26.51,13.79,53.01,20.68,79.52-12.23,4.35-17.17,5.71-18.51,5.68-.19,0-1.16-.06-1.44.44-.28.49.25,1.27.37,1.46.68,1.06,1.59,3.89,2.78,10.88.01.06.09.38.42.59.2.13.46.18.71.12,7.75-1.86,15.51-3.71,23.26-5.57,1.36,5.02,2.72,10.05,4.08,15.07,6.04-1.1,12.09-2.19,18.13-3.29-.79-5.4-1.59-10.81-2.38-16.21.98-.4,2-.78,3.06-1.13,5.2-1.75,10.1-2.55,14.39-2.83.67,4.93,1.35,9.86,2.02,14.8,5.82-.85,11.65-1.7,17.47-2.56-.28-5.67-.56-11.35-.83-17.02,2.68-.46,18.42-3.43,26-16.42.94-1.61,3.24-5.64,3.97-11.33Zm-85.62-57.57c-.11-.49.18-.98.66-1.11,8.2-2.23,19.67-4.69,19.67-4.69,14.38-.77,17.44-2.73,21.64.35,2.18,1.6,3.27,3.53,4.36,5.5,4.19,7.49,2.79,15.34,1.2,16.98-.59.61-3.16,2.37-3.24,2.42-.03.02-.07.04-.07.04-.04.02-.08.03-.12.05-4.39,1.36-9.04,2.65-13.92,3.84-8.13,1.98-15.84,3.42-23.02,4.45-.49.07-.94-.25-1.05-.73-2.04-9.03-4.09-18.06-6.13-27.1Zm63.51,61.42c-1.7,6.19-6.1,8.36-6.12,8.36-.01,0-.03,0-.03,0-.02,0-.03,0-.05.01-12.5,3.12-24.99,6.24-37.49,9.36-.5.12-1-.17-1.13-.66-3.02-11.05-6.04-22.1-9.05-33.15-.14-.53.19-1.07.73-1.17,9.33-1.78,16.49-7.76,38.46-7.32,3.06.06,6.58.19,9.43,2.62,2.51,2.14,3.25,5.01,4.42,9.52,1.13,4.36,2.07,7.99.85,12.41Z"/><path class="cls-23" d="m333.96,523.93l-6.35,2.09c-.52.17-1.07-.14-1.21-.67l-35.93-145.08c-.12-.48.15-.96.62-1.12l6.35-2.09c.52-.17,1.07.14,1.21.67l35.93,145.08c.12.48-.15.96-.62,1.12Z"/></g></g></g><path class="cls-39" d="m196.22,457.82c1.86,1.08,1.69,4.68,1.59,6.91-.03.67-.47,7.66-6.57,11.67-5.83,3.84-14.31,3.32-15.75.23-2.56-5.48,15.73-21.74,20.74-18.81Z"/><path class="cls-9" d="m173.66,476.3c2.99.47,6.23.94,9.86-.57,2.97-1.23,4.7-3.17,6.23-4.87,1.35-1.5,4.29-4.87,4.87-9.63.3-2.46-.19-3.94-.57-4.76-.3-.65-.89-1.94-2.15-2.61-1.5-.79-2.99-.21-4.65.11-3.79.73-4.33-.69-8.61-.57-1.33.04-5.74.22-10.09,3.06-.96.63-3.6,2.48-5.67,5.89-1.57,2.58-2.97,4.9-2.38,7.25,1.2,4.8,9.76,6.15,13.15,6.69Z"/><g id="LEFT_HAND"><path class="cls-38" d="m83.04,512.56c-3.69-1.8-11.56-4.95-20.4-2.77-12.84,3.16-18.94,15.39-22.64,22.81-10.55,21.15-6.48,42.12-4.1,54.43,1.99,10.27,5.56,28.16,19.81,39.62,6.29,5.06,10.7,5.95,12.98,6.15,11.27.96,20.18-8.84,24.25-13.32,2.99-3.29,7.76-9.44,10.76-18.96,4.24,1.07,10.66,2.28,18.45,2.05,9.95-.29,15.29-2.73,23.06-4.1,7.1-1.25,17.51-1.84,31.08,1.71,5.11,2.51,34.17,16.54,40.48,8.71,2.62-3.25,2.97-12.33-.61-14.77-.33-.22-.46-.23-1.85-.75,0,0-2.19-.81-8.14-3.42-5.29-2.32-12.86-6.77-15.01-8.05,4.54,2.13,7.99,4.19,10.25,5.64,4.55,2.91,6.11,4.51,9.91,5.81,3.04,1.04,5.97,2.08,9.09,1.04,5.3-1.76,8.93-8.71,7.61-14.78-.77-3.53-3.02-5.82-4.16-6.83.47-.81,1.11-2.07,1.57-3.69,0,0,.84-3.02.41-6.42-1-8.06-9.27-14.76-7.51-18.67,1.5-3.34,8.93-.65,12.3-4.78,3.52-4.32-.05-12.64-1.37-15.71-8.2-19.12-31.66-35.48-42.36-42.36-7.21-2.69-18.89-7.04-35.87-13.32-7.57-2.8-11.46-4.2-16.74-4.44-14.46-.65-25.43,7.25-28.69,9.56-18.78,13.31-21.97,35.03-22.54,39.62Z"/><path class="cls-34" d="m38.12,591.81c.66-.36,3.26,6.95,10.76,11.78.97.62,9.05,5.66,18.96,4.1,10.62-1.68,19.58-10.35,23.06-22.03,8.68,4.94,16.44,7.66,22.03,9.22,11.78,3.29,20.49,3.28,37.05,3.27,5.6,0,8.65-.22,12.31-1.34,9.14-2.79,9.96-8.44,16.74-10.65,15.61-5.09,28.45,6.52,33.3,1.02,3.66-4.15-2.57-12,2.9-20.67,2.21-3.49,3.55-2.74,4.78-5.47,4.4-9.74-11.12-23.08-7.51-27.5,1.32-1.61,4.66-1.39,7.51-1.2,5.06.34,7.29,2.54,8.2,1.71,2.19-2.02-9.12-16.36-7.69-17.59.83-.71,5.68,2.35,8.71,7,.27.42,5.75,9.12,2.39,18.1-2.69,7.19-8.4,7.46-8.54,12.98-.13,5,4.59,7.42,3.47,11.8-.68,2.65-3.07,4.32-4.83,5.28,1.1.65,2.82,1.87,4.27,3.93.84,1.19,3.37,4.78,2.39,9.05-1.14,4.94-6.13,7.07-7.17,7.51-3.33,1.42-4.42.24-6.9,1.22-6.23,2.45-4.24,11.67-9.21,15.29-5.48,3.99-12.82-3.69-31.2-7.97-6.41-1.49-16.34-3.81-28.69-2.22-9.41,1.21-12.98,3.81-23.06,4.1-7.82.23-14.25-.99-18.45-2.05-1.37,4.36-7.92,23.6-25.22,30.13-3.33,1.26-9.85,3.72-16.28,1.13-3.12-1.25-5.92-3.57-13.83-17.93-5.8-10.53-11.08-21.57-10.25-22.03Z"/><path class="cls-16" d="m134.96,602.74c-7.7,1.37-10.92,2.02-15.94,2.05-5.54.04-10.11-.7-13.21-1.37-1.98,3.38-4.93,8.16-8.88,13.66-5.57,7.75-8.44,11.66-12.65,13.81-7.85,4-15.87,2.12-17.59,1.67-4.97-1.29-8.26-3.78-9.71-4.9-14.26-11.04-19.83-38.63-20.15-40.17-2.64-12.9-8.12-39.76,6.28-62.19,6.49-10.1,13.47-13.66,16.17-14.72,9.9-3.89,19.43-1.35,24.85.88,1.26-8.6,5.9-27.08,22.77-39.03,3.04-2.16,14.11-9.78,29.17-9.74,2.11,0,7.02.17,21.44,4.94,7.86,2.6,18.89,6.69,31.8,12.99,9.92,6.5,34.68,24.12,42.67,42.75,1.4,3.26,5.11,11.92,1.23,16.69-1.95,2.4-4.86,2.68-7.43,2.93-2.15.21-4,.38-4.78,1.73-1.01,1.74.45,4.34,2.13,7.34,2.21,3.94,4.95,8.83,3.43,14.3-.16.56-.33,1.05-.53,1.49-.65,1.49-1.15,1.79-1.33,2.33-.57,1.76,3.21,3.28,5.19,7,1.75,3.29,1.21,6.66,1.06,7.43-.76,3.88-3.31,6.16-4.44,7.17-3.42,3.06-7.29,3.73-8.94,3.91,4.92,2.4,7.89,6.6,7.57,10.66-.3,3.83-3.41,6.21-3.64,6.38-3.46,2.53-8.29,2.21-24.37-2.96-5.05-1.62-11.66-3.87-19.36-6.83-9.18-3.41-16.57-3.86-21.63-3.64-2.56.11-8.77,1.21-21.18,3.42Zm-47.97,22.71c4.38-3.66,10.93-12.35,16.71-24.93,7.93,1.95,14.31,2.16,18.45,2.05,18.26-.49,24.35-8.18,40.14-5.75,1.59.24.25.12,14.01,3.36,13.96,3.28,14.84,3.29,18.13,4.61,6.85,2.75,8.26,4.83,10.68,3.87,4.85-1.91,6.42-13.14,2.83-16.09-.52-.43-.8-.4-9.2-2.81-.48-.14-.98-.28-1.68-.5-2.42-.77-4.96-1.79-6.4-2.57-2.34-1.26-2.37-2.94-5.47-5.12-12.17-8.61-10.23-7.78-13.32-9.56-7.35-4.25-7.78-3.24-14.01-6.49-8.77-4.58-14.07-11.44-13.66-11.96.48-.61,8.75,7.86,20.5,11.61,1.76.56,4.74,1.37,8.54,3.42,2.77,1.49,3.98,2.56,7.51,4.78,3.09,1.94,5.81,3.41,7.86,4.44,5.47,3.42,10.93,6.83,16.4,10.25,1.24.98,6.05,4.55,12.3,3.76,1.41-.18,4.85-.62,7.51-3.42.63-.66,2.57-2.7,2.73-5.81.13-2.54-1.01-4.44-1.65-5.49-.65-1.05-1.43-1.88-1.64-2.09-.74-.77-1.43-1.3-1.87-1.61,0,0-.2-.14-.4-.27-1.69-1.11-79.4-44.49-79.16-45.02,0,0,54.25,25.14,63.97,33.1,1.3,1.07,3.68,2.49,8.44,5.33,1.97,1.18,6.55,3.86,7.89,2.61.4-.37.94-1.5,1.19-2.1.15-.35.29-.74.41-1.18,1.51-5.4-3.25-12.86-3.25-12.86-11.66-18.21-21.44-27.47-21.44-27.47-3.31-3.13-15.45-14.38-34.14-25.49-7.54-4.48-11.38-6.1-11.29-6.28.21-.42,22.67,8.02,40.2,22.33,10.55,8.61,15.83,12.92,17.7,17.47.63,1.54,1.97,5.35,5.47,7,2.75,1.3,5.9.81,7.63.54,2.17-.34,4.76-.74,6.14-2.23.66-.72,3.12-3.94-2.5-15.39-9.7-19.76-27.5-31.42-37.92-38.09-4.76-3.05-8.26-5.19-13.49-7.34-6.74-2.77-10.71-3.18-22.37-6.32-12.95-3.49-11.65-3.96-15.71-4.61-16.27-2.63-30.29,5.94-31.74,6.85-20.06,12.63-21.98,36.38-22.15,38.97l-.16,1.28-1.17-.53c-4.87-2.19-14.53-5.28-24.54-1.35-2.53.99-9.07,4.34-15.26,13.98-13.98,21.78-8.6,48.12-6.02,60.78,3.74,18.33,10.48,31.84,19.48,39.07,2.89,2.32,6.84,5.5,12.46,5.94,1.04.08,1.97.05,2.82-.05,1.83-.22,3.39-.7,5.03-1.43,2.96-1.3,6.39-3.42,8.51-5.2Z"/><path class="cls-3" d="m219.34,536.32c-1.76,3.53.01,7.24,3.57,14.38,3.31,6.65,10.39,18.35,13.67,17.1,1.17-.44,1.36-2.51,1.74-6.66.37-4.01.06-9.53-1.77-18.71-1.24-6.21-1.91-9.35-4.35-10.71-3.92-2.18-10.69.26-12.85,4.59Z"/><path class="cls-7" d="m211.08,594.4c-3.4,4.99-6.8,9.97-10.2,14.96,3.09.83,6.34,1.6,9.76,2.28,8.81,1.75,16.99,2.56,24.29,2.81-3.07-4.45-7.96-10.29-15.35-15.3-2.98-2.02-5.87-3.57-8.5-4.76Z"/></g><g id="right_hand"><path class="cls-38" d="m646.66,498.98c.15,1.85-2.67,3.28-4.12,1.38-3.67-4.83-8.88-7.37-14.91-7.82-4.89-.36-10.04,1.19-12.22,5.96-2.86,6.25-1.92,17.43-9.48,20.49-.01,0-.03,0-.04.01.22,4.32-.56,8.74.73,12.88.72,2.31-2.76,4.26-3.94,1.95-.09-.17-.16-.34-.24-.51,0,0,0,0-.01,0,0-.03-.01-.06-.02-.09-.26-.58-.48-1.17-.68-1.77-.06.39-.11.78-.17,1.17-3.05-5.02-11.54-17.46-28.01-25.28-17.37-8.24-33.22-6.41-38.94-5.47-2.67-4.68-6.59-10.31-12.3-15.71-12.88-12.18-36.2-24.41-57.39-17.08-5.75,1.99-9.91,4.92-12.3,6.83-5.61-2.15-16.32-5.36-29.38-3.42-13.78,2.05-22.5,8.71-33.48,17.08-16.98,12.95-20.81,23.35-21.86,26.64-2.22,6.92-1.22,10.74-.68,12.3,2.35,6.88,8.15,6.41,10.25,11.61,3.28,8.16-8.91,14.36-12.98,33.48-2.17,10.18-.48,16.73,0,18.45.27.96,4.11,15.67,11.61,16.4,2.19.21,3.35-.9,7.74-3.56,5.7-3.45,16.59-10.05,18.91-8.06,3.15,2.7-12,18.93-7.51,25.96,3.26,5.12,12.57-.27,34.84,1.37,17.75,1.31,21.33,5.43,33.48,2.73,7.32-1.63,8.99-3.79,18.45-5.47,5.43-.96,13.58-2.41,21.86-.68,17.8,3.71,18.07,18.28,32.79,19.81,9.27.97,9.98-4.73,25.28-4.78,8.03-.03,10.97,1.53,18.45.68,8.05-.92,14.37-3.83,18.45-6.15,6.74,5.04,19.04,12.42,32.79,10.25,26.58-4.19,39.8-41.11,41.67-64.9,2.35-29.78-11.44-59.85-26.65-76.71Z"/><path class="cls-21" d="m366.55,523.95c1.29-.52,2.93-.91,4.34-.22,1.91.92,2.07,3.15,3.19,3.19,1.62.06,2.07-4.58,3.87-4.78,1.82-.2,4.22,4.18,5.01,8.43.57,3.08.16,5.38-.68,9.79-1.18,6.2-2.33,7.74-3.19,12.75-.64,3.73-.72,7.04-.6,9.68,3.08-3.52,4.36-4.06,4.93-3.76,1.24.68-1.24,5.32-.68,11.84.19,2.2.77,9.05,4.33,10.7,6.25,2.92,18.4-11.75,20.04-10.25,1.06.98-3.63,7.51-2.73,8.2.82.63,5.36-4.35,5.92-3.87.32.27-3.69,3.11-3.42,6.15.39,4.39,9.22,4.12,11.95,10.12,2.49,5.47-2.8,10.21-.23,12.92,3.1,3.27,13.27-1,19.93-.49.38.03,1.64.18,3.32.01,2.82-.29,4.39-1.41,15.12-2.06,4.91-.3,15.15-.72,27.78-.68,4.99.01,10,.1,16.17-2.05,2.77-.96,5.58-1.94,8.43-4.33,6.54-5.48,6.74-12.93,9.11-12.75,1.58.12,1.57,3.45,5.01,8.88.62.99,2.75,4.31,5.92,7.06,5.73,4.98,12.38,5.96,13.89,6.15,8.71,1.09,15.34-2.83,20.95-6.15,7.38-4.37,12.42-9.93,15.71-14.57,5.5,6.12,9.66,10.98,12.3,14.12,4.25,5.04,6.77,8.23,10.02,7.97,3.37-.27,4.47-4,7.06-3.64,3.08.42,3.2,5.9,6.15,9.56,5.42,6.75,19.42,6.17,28.69,2.73,18.46-6.85,25.18-27.65,27.34-26.54,1.47.75-1.06,10.61-6.39,20.62-4.72,8.87-16.36,30.76-35.68,32.19-9.99.74-20.12-4.13-22.11-5.12-3.7-1.84-6.53-3.85-8.48-5.39-17.11,6.13-25.88,6.47-30.74,5.42-.99-.21-4.04-.97-8.12-.7-4.99.32-7.68,1.92-11.01,2.98-5.84,1.86-13.56,2.06-19.58-.46-6.79-2.84-5.73-6.74-15.65-12.83-3.29-2.02-6.75-4.1-11.73-5.07-1.67-.32-5.1-.83-16.01,1.1-8.25,1.46-9.48,2.32-18.1,4.04-7.75,1.55-11.63,2.33-16.62,2.51-9.08.32-8.89-1.64-21.27-2.15-10.06-.42-15.08-.63-19.72.1-1.15.18-5.31.88-10.48-.09-3.2-.6-4.8-.86-5.62-1.96-3.49-4.67,8.58-17.11,5.85-20.15-1-1.12-3.17-.06-9.65,1.47-9.6,2.27-14.48,3.58-17.91,1.95-6.65-3.16-7.98-12.84-8.57-17.1-1.11-8.03.04-21.37,7.58-32.99,3.35-6.12,4.68-10.68,5.26-13.25.35-1.53.67-3.44-.36-4.91-.95-1.37-2.1-.94-4.15-2.16-3.45-2.05-5.31-6.12-5.69-9.42-.13-1.16-.08-2.12,0-2.74Z"/><path class="cls-42" d="m601.55,530.88c-3.79-14.44-19.68-21.32-27.44-24.93-16.15-7.5-31.37-6.66-38.82-5.71-3.34-5.69-7.4-10.82-12.09-15.25-14.51-13.72-38.28-24.41-58.67-17.36-4.31,1.49-8.38,3.71-12.1,6.59-9.57-3.55-19.7-4.66-29.34-3.23-14.11,2.1-22.91,8.82-34.06,17.33-11.75,8.97-19.46,18.39-22.3,27.26-1.65,5.16-1.88,9.57-.68,13.09.48,1.41,1.1,2.55,1.79,3.49.89,1.21,2.09,2.12,4.41,3.92,1.98,1.54,1.94,1.38,2.23,1.68,2.96,3.09-.64,11.35-1.9,14.23-2.89,6.63-4.95,7.43-7.39,14.3-.73,2.07-1.39,4.32-1.91,6.78-2,9.39-.85,15.97.02,19.05,3.42,12.19,8.67,16.12,12.47,17.26,5.41,1.64,8.9-6.56,20.95-8.2.97-.13,1.77-.2,2.3-.23.47-2.15,3.33-3.14,5.81-4.05,13.22-4.86,8.6-4.85,17.07-7.17,8.74-2.4,7.78-.81,20.5-3.42,12.88-2.64,20.45-4.2,24.08-8.54.52-.63,1.75-2.25,3.59-2.39,2.13-.17,3.08,1.79,6.32,3.42,3.45,1.72,6.88,1.76,7,1.37.19-.62-8-1.71-10.25-6.83-1.37-3.12-.1-6.76,1.37-9.56-1.02,2.03-2.82,4.93-5.98,7.17-5.39,3.83-9.77,2.23-18.96,3.42-11.36,1.46-10.99,4.71-25.28,7.17-10.32,1.78-9.55-.08-14.79,1.75-7.82,2.74-9.24,6.93-22.44,14.87-7.56,4.55-9.9,5.14-12.3,4.55-6.26-1.53-8.71-10.1-9.03-11.27-2.7-9.94,3.49-18.78,4.93-20.84,5.11-7.29,12.07-10.59,14.63-11.77,21.58-9.91,61.03-26.43,68.07-29.09.07-.03-1.58.48-1.58.48-16.29,5.77-25.97,7.09-42.71,13.37-13.29,4.99-19.94,7.48-27.43,13.15-8.11,6.14-13.92,13.24-14.78,12.53-.77-.64,4.55-5.89,7.85-15.93,2.14-6.51,1.3-8.78,3.95-13.96,1.92-3.75,4.29-6.33,8.39-10.1,8.5-7.8,14.88-13.67,25.28-19.03,13.87-7.16,25.33-8.43,25.28-8.65-.07-.27-16.95-.52-33.07,9.58-12.67,7.93-28.09,24.28-30.86,22.8-2.38-1.27-3.82-3.36-3.82-3.36,0,0,0,0,0,0-.55-.76-1.04-1.66-1.42-2.79-1.02-3-.79-6.87.69-11.5,2.68-8.37,10.09-17.37,21.42-26.02,10.86-8.29,19.43-14.83,32.89-16.83,9.43-1.41,19.37-.25,28.74,3.35l.68.26.57-.45c3.65-2.92,7.66-5.15,11.92-6.62,19.39-6.71,42.15,3.61,56.1,16.8,4.71,4.45,8.77,9.64,12.07,15.42l.44.77.87-.14c7.46-1.23,22.34-2.16,38.19,5.36,15.15,7.19,23.72,18.62,27.47,24.79l1.85,3.05c-.06-1.23-.23-3.06-.79-5.2Z"/><path class="cls-42" d="m646.75,489.79c-5.34-10.44-10.19-18.75-13.61-24.39-15.64-25.76-25.05-41.26-42.15-54.5-14.56-11.27-18.79-14.48-18.79-14.48-14.74-11.15-19.45-14.24-19.46-19.36-.02-6.06,6.58-8.83,6.63-17.85.02-3.22-.81-5.82-1.39-7.3-.88.83-1.77,1.66-2.65,2.48-.64,9.27-2.42,13.6-3.45,15.53-2.68,5.03-3.23,5.78-3.23,5.78-1.42,1.92-2.49,2.8-2.38,4.08.13,1.55,1.89,2.68,3.4,3.4,26.86,18.58,44.17,37.3,54.91,50.83,4.61,5.81,8.05,10.72,12.58,17.17,8.93,12.73,24.07,34.31,35.36,58.11,13.44,28.34,20.98,44.35,19.52,66.01-1.58,23.32-14.79,59.67-40.61,63.75-12.58,1.99-24.26-4.35-31.84-10.01l-.66-.5c-8.27,3.95-15.11,6-18.68,6.4-2.13.24-4.03.25-4.03.25-2.13,0-3.94-.19-5.92-.41-2.28-.25-4.87-.53-8.36-.53-8.4.03-12.62,1.74-16,3.12-2.86,1.16-5.12,2.08-9.14,1.67-6.77-.7-10.23-4.31-14.24-8.48-4.21-4.38-8.98-9.35-18.43-11.32-8.52-1.78-16.84-.3-22.34.68-5.43.96-8.36,2.09-11.19,3.17-2.16.83-4.2,1.61-7.31,2.3-7.04,1.57-11.02.77-17.04-.44-3.97-.8-8.91-1.79-16.06-2.32-3.2-.24-6.14-.33-8.83-.33-8.27,0-8.58.94-14.35.8-2.26-.05-12.47-.29-13.12-3.31-.17-.77,1.03-2.19,3.42-5.01,3.7-4.36,4.46-4.55,4.67-5.92.44-2.89-2.54-4.61-2.97-6.82-.02.61-.09,1.35-.24,2.18-1.59,8.71-9.91,11.11-9.32,14.88.63,4.04,10.93,6.39,17.81,6.52,4.49.08,6.03-.8,14.28-.79,2.59,0,5.41.09,8.47.32,6.99.52,11.85,1.49,15.75,2.27,6.11,1.23,10.53,2.11,18.09.43,3.3-.73,5.52-1.59,7.67-2.41,2.72-1.04,5.52-2.12,10.72-3.04,5.31-.94,13.34-2.37,21.38-.69,8.68,1.81,12.97,6.27,17.12,10.59,4.17,4.34,8.11,8.44,15.8,9.24,4.65.48,7.29-.59,10.36-1.84,3.35-1.36,7.15-2.91,15.06-2.94,3.35,0,5.75.25,8.07.51,3.12.34,6.07.67,10.51.16,6.24-.71,12.37-2.69,18.21-5.9,6.92,5.04,16.86,10.4,27.9,10.4.7,0,2.78-.04,5.19-.4,20.51-3.07,33.95-25.02,35.33-27.33,2.53-4.26,9.18-16.58,9.18-39.78,0-38.66-18.45-69.24-29.58-84.67Z"/><path class="cls-3" d="m357,563.78c.05-2.52.2-6.13.68-10.43.52-4.68,1.29-11.43,3.85-19.04,2.84-8.43,7.5-16.85,9.61-16.28,1.19.32.59,3.24,3.31,6.71,1.68,2.13,3.22,2.63,3.82,3.36,3.07,3.77-6.09,18.63-21.28,35.68Z"/><path class="cls-3" d="m403.33,624.72c1.33-1.58,7.1-8.81,6.12-18.9-.24-2.48-.94-9.71-4.49-11.39-4.27-2.02-14.03,3.33-38.04,35.46,12.14-1.72,24.28-3.45,36.41-5.17Z"/></g><path class="cls-38" d="m250.99,569.49c-4.07-19.12-16.26-25.32-12.98-33.48,2.1-5.21,7.89-4.73,10.25-11.61.53-1.56,1.53-5.38-.68-12.3-1.05-3.29-4.88-13.69-21.86-26.64-10.97-8.37-19.69-15.03-33.48-17.08-13.05-1.94-23.77,1.26-29.38,3.42-2.39-1.91-6.55-4.84-12.3-6.83-21.19-7.33-44.51,4.9-57.39,17.08-5.71,5.4-9.62,11.03-12.3,15.71-5.72-.94-21.57-2.78-38.94,5.47-16.38,7.78-24.86,20.12-27.96,25.19-4.99,14.52-5.9,27.01-5.89,35.12.04,25.74,9.47,43.92,11.35,47.44,5.22,9.77,11.21,16.83,15.58,21.35.03,0,.05,0,.08.01,7.48.85,10.41-.71,18.45-.68,15.3.05,16,5.75,25.28,4.78,14.72-1.53,14.99-16.1,32.79-19.81,8.28-1.73,16.43-.28,21.86.68,9.45,1.68,11.13,3.84,18.45,5.47,12.14,2.7,15.73-1.43,33.48-2.73,22.27-1.64,31.58,3.76,34.84-1.37,4.49-7.05-10.52-23.46-7.51-25.96,1.59-1.32,7.44,1.98,18.86,8.43,4.51,2.55,5.72,3.42,7.78,3.18,7.55-.89,11.23-15.03,11.61-16.4.48-1.72,2.17-8.27,0-18.45Z"/><path class="cls-21" d="m244,552.27c-2.58-7.07-4.46-11.89-5.44-13.69-.19-.35-.78-1.37-.56-2.57.09-.46.37-1.07,1.09-1.9,1.28-1.47,2.77-1.34,4.15-2.16,3.45-2.05,5.31-6.12,5.69-9.42.13-1.16.08-2.12,0-2.74-1.29-.52-2.93-.91-4.34-.22-1.91.92-2.07,3.15-3.19,3.19-1.62.06-2.07-4.58-3.87-4.78-1.82-.2-4.22,4.18-5.01,8.43-.57,3.08-.16,5.38.68,9.79,1.18,6.2,2.33,7.74,3.19,12.75.64,3.73.72,7.04.6,9.68-3.08-3.52-4.36-4.06-4.93-3.76-1.24.68,1.24,5.32.68,11.84-.19,2.2-.77,9.05-4.33,10.7-6.25,2.92-18.4-11.75-20.04-10.25-1.06.98,3.63,7.51,2.73,8.2-.82.63-5.36-4.35-5.92-3.87-.32.27,3.69,3.11,3.42,6.15-.39,4.39-9.22,4.12-11.95,10.12-2.49,5.47,2.8,10.21.23,12.92-3.1,3.27-13.27-1-19.93-.49-.38.03-1.64.18-3.32.01-2.82-.29-4.39-1.41-15.12-2.06-4.91-.3-15.15-.72-27.78-.68-4.99.01-10,.1-16.17-2.05-2.77-.96-5.58-1.94-8.43-4.33-6.54-5.48-6.74-12.93-9.11-12.75-1.58.12-1.57,3.45-5.01,8.88-.62.99-2.75,4.31-5.92,7.06-5.73,4.98-12.38,5.96-13.89,6.15-8.71,1.09-15.34-2.83-20.95-6.15-7.38-4.37-12.42-9.93-15.71-14.57-5.5,6.12-9.66,10.98-12.3,14.12-3.02,3.59-5.17,6.23-7.33,7.37,1.01,3.35,2.17,6.63,3.51,9.8,3.36,7.92,8.48,14.33,14.33,20.13,6.51,1.26,10.75,1.12,13.63.5.99-.21,4.04-.97,8.12-.7,4.99.32,7.68,1.92,11.01,2.98,5.84,1.86,13.56,2.06,19.58-.46,6.79-2.84,5.73-6.74,15.65-12.83,3.29-2.02,6.75-4.1,11.73-5.07,1.67-.32,5.1-.83,16.01,1.1,8.25,1.46,9.48,2.32,18.1,4.04,7.75,1.55,11.63,2.33,16.62,2.51,9.08.32,8.89-1.64,21.27-2.15,10.06-.42,15.08-.63,19.72.1,1.15.18,5.31.88,10.48-.09,3.2-.6,4.8-.86,5.62-1.96,3.49-4.67-8.58-17.11-5.85-20.15,1-1.12,3.17-.06,9.65,1.47,9.6,2.27,14.48,3.58,17.91,1.95,6.65-3.16,7.98-12.84,8.57-17.1,1.11-8.03-.04-21.37-7.58-32.99Z"/><path class="cls-42" d="m252.22,568.95c-.53-2.47-1.18-4.72-1.91-6.78-2.34-6.58-4.48-7.42-7.39-14.3-2.99-7.07-2.43-10-2.06-11.3.29-1,.83-2.88,2.39-4.62,1.56-1.74,2.92-1.9,4.41-3.92.69-.94,1.31-2.08,1.79-3.49,1.2-3.52.98-7.93-.68-13.09-2.84-8.87-10.55-18.3-22.3-27.26-11.15-8.51-19.95-15.22-34.06-17.33-9.64-1.43-19.77-.32-29.34,3.23-3.73-2.88-7.79-5.1-12.1-6.59-20.39-7.05-44.16,3.64-58.67,17.36-4.68,4.43-8.75,9.55-12.09,15.25-6.43-.98-22.13-2.46-38.82,5.71-4.46,2.18-12.02,6.54-19.02,14.3-17.28,19.16-17.16,43.62-17.11,54.2.05,9.72.3,24.25,9.18,39.78,6.96,12.17,16.12,19.52,21.75,23.36.48-.42,1.31-1.01,2.46-1.29,2.71-.67,4.94.9,5.31,1.17-4.55-3.5-31.48-24.9-34.41-62.16-2.06-26.17,8.87-45.62,13.15-52.46,4.68-5.08,11.16-10.53,19.77-14.62,15.86-7.52,30.74-6.59,38.19-5.36l.87.14.44-.77c3.3-5.78,7.36-10.97,12.07-15.42,13.96-13.2,36.72-23.51,56.1-16.8,4.26,1.47,8.27,3.7,11.92,6.62l.57.45.68-.26c9.36-3.59,19.3-4.75,28.74-3.35,13.46,2,22.04,8.55,32.89,16.83,11.33,8.65,18.74,17.65,21.42,26.02,1.48,4.63,1.72,8.5.69,11.5-.39,1.13-.87,2.03-1.42,2.79,0,0,0,0,0,0,0,0-1.43,2.09-3.82,3.36-2.77,1.48-18.19-14.87-30.86-22.8-16.12-10.09-33-9.84-33.07-9.58-.06.22,11.4,1.49,25.28,8.65,10.4,5.37,16.78,11.23,25.28,19.03,4.1,3.76,6.47,6.35,8.39,10.1,2.65,5.18,1.81,7.45,3.95,13.96,3.3,10.04,8.62,15.29,7.85,15.93-.85.71-6.66-6.39-14.78-12.53-7.49-5.67-14.13-8.16-27.43-13.15-16.74-6.28-26.42-7.6-42.71-13.37,0,0-1.65-.51-1.58-.48,7.05,2.66,46.5,19.18,68.07,29.09,2.57,1.18,9.52,4.47,14.63,11.77,1.44,2.06,7.63,10.89,4.93,20.84-.32,1.17-2.77,9.74-9.03,11.27-2.4.59-4.74,0-12.3-4.55-13.2-7.94-14.63-12.13-22.44-14.87-5.24-1.84-4.47.02-14.79-1.75-14.29-2.46-13.92-5.71-25.28-7.17-9.19-1.18-13.57.41-18.96-3.42-3.15-2.24-4.96-5.14-5.98-7.17,1.47,2.8,2.73,6.45,1.37,9.56-2.24,5.12-10.44,6.21-10.25,6.83.12.39,3.56.36,7-1.37,3.24-1.62,4.19-3.58,6.32-3.42,1.84.15,3.06,1.76,3.59,2.39,3.63,4.34,11.2,5.9,24.08,8.54,12.72,2.61,11.76,1.02,20.5,3.42,8.48,2.33,3.86,2.31,17.07,7.17,2.48.91,5.34,1.9,5.81,4.05.54.04,1.34.1,2.3.23,12.05,1.65,15.54,9.84,20.95,8.2,3.8-1.15,9.04-5.08,12.47-17.26.87-3.09,2.02-9.66.02-19.05Z"/><path class="cls-42" d="m216.73,600.1c-.15-.83-.22-1.57-.24-2.18-.43,2.21-3.4,3.93-2.97,6.82.21,1.37.97,1.56,4.67,5.92,2.39,2.82,3.58,4.24,3.42,5.01-.65,3.02-10.87,3.26-13.12,3.31-5.76.13-6.08-.8-14.35-.8-2.69,0-5.62.09-8.83.33-7.15.53-12.09,1.52-16.06,2.32-6.02,1.21-10,2.01-17.04.44-3.11-.69-5.15-1.48-7.31-2.3-2.83-1.08-5.75-2.21-11.19-3.17-5.5-.98-13.82-2.45-22.34-.68-9.44,1.97-14.21,6.93-18.43,11.32-4.01,4.17-7.47,7.77-14.24,8.48-4.02.41-6.28-.5-9.14-1.67-3.39-1.38-7.61-3.09-16-3.12-3.49,0-6.07.27-8.36.53-1.98.22-3.79.42-5.92.41,0,0-1.89,0-4.03-.25-.61-.07-1.33-.19-2.13-.36,1.01,1.01,2.03,2.01,3.08,2.99,3.77.32,6.45.03,9.27-.28,2.33-.26,4.72-.51,8.07-.51,7.91.03,11.71,1.57,15.06,2.94,3.06,1.25,5.71,2.32,10.36,1.84,7.69-.8,11.63-4.9,15.8-9.24,4.15-4.32,8.44-8.78,17.12-10.59,8.05-1.68,16.07-.25,21.38.69,5.2.92,8,2,10.72,3.04,2.15.83,4.38,1.68,7.67,2.41,7.57,1.68,11.98.8,18.09-.43,3.9-.78,8.76-1.76,15.75-2.27,3.06-.23,5.88-.32,8.47-.32,8.25-.01,9.8.88,14.28.79,6.87-.13,17.18-2.48,17.81-6.52.59-3.78-7.73-6.17-9.32-14.88Z"/><path class="cls-3" d="m258.49,559.63c-.05-2.52-.2-6.13-.68-10.43-.52-4.68-1.29-11.43-3.85-19.04-2.84-8.43-7.5-16.85-9.61-16.28-1.19.32-.59,3.24-3.31,6.71-1.68,2.13-3.22,2.63-3.82,3.36-3.07,3.77,6.09,18.63,21.28,35.68Z"/><path class="cls-3" d="m206.8,618.52c-1.44-1.48-7.74-8.26-7.52-18.39.05-2.49.21-9.75,3.62-11.69,4.11-2.34,14.24,2.26,40.6,32.5-12.23-.81-24.47-1.61-36.7-2.42Z"/><path class="cls-1" d="m204.27,208.66c3.42,4.34,8.25,8.85,14.01,8.82,9.29-.04,12.15-11.78,22.86-12.83,1.18-.12,7.19,2.19,19.19,6.79,6.32,2.42,13.35,2.65,19.62,5.17.43.17,1.57.64,2.7.22,2.77-1.05,3.06-6.58,3.13-6.57.05.01-.91,2.8-1.08,6.14-.15,2.82.3,4.29-.54,4.85-1.12.75-2.69-1.36-5.07-1.4-3.12-.06-4.92,3.49-7.51,6.25-5.59,5.96-13.71,6.99-16,7.28-6.71.85-6.72-2.07-18.97-2.54-4.73-.18-6.28.2-9.38-.86-2.62-.9-5.16-2.75-10.24-6.47-2.88-2.11-4.26-3.25-5.93-4.96-3.27-3.35-5.39-6.9-6.79-9.9Z"/><g id="TEETH"><path class="cls-6" d="m221.17,328.02c-1.1.55-6.73-8.46-8.29-10.97-3.59-5.75-5.51-8.83-7.19-13.4-3.67-9.95-1.77-15.17-6.15-17.99-3.2-2.06-7.43-1.53-7.4-2.07.03-.63,5.8.62,9.22-2.71,1.47-1.43,1.7-2.73,3.87-4.33,1.32-.98,1.71-.66,3.64-1.59,3.62-1.76,3.29-3.37,5.92-4.55,2.86-1.29,3.74.38,8.43-.68,1.64-.37,3.62-.82,5.47-2.28,3.11-2.44,1.94-4.64,4.55-7.06,2.69-2.48,4.93-1.09,10.48-3.87,1.96-.98,3.43-2.04,4.33-2.73,1.37.99,2.73,1.97,4.1,2.96.99-.99,1.97-1.97,2.96-2.96,4.05-.62,6.49.23,7.97,1.14.99.61,1.17,1.01,2.28,1.59,2.66,1.41,4.61.67,7.06.91,5.45.53,5.53,5.12,11.61,5.92,2.2.29,4.34-.03,5.69-.23,3.12-.46,5.29-1.36,5.92-1.59,6.76-2.51,18.28,3.13,21.18,4.55,7.99,3.92,13.46,9.21,16.85,13.21-.55.82-1.49,1.93-2.96,2.5-2.45.97-4.89-.13-6.83-.91,0,0-3.45-1.44-12.3-3.64-10.09-2.51-15.79.51-18.22-3.19-.93-1.41-.32-2.18-1.82-4.78-.57-.98-2.89-5.01-5.47-4.78-1.1.1-1.29.88-4.1,3.42-2.28,2.05-3.42,3.08-4.55,3.42-2.68.79-4.65-1.26-8.2-2.73-1.48-.61-2.2-.7-11.61-1.37-15.35-1.09-17.45-.65-18.45.91-.95,1.49.17,2.45-1.12,7.27-.89,3.34-1.81,4.29-2.38,4.76-1.15.94-1.82.67-4.59,1.53-4.25,1.32-4.28,2.46-6.12,2.38-3.36-.14-4.5-3.99-6.51-3.65-2.49.43-3.33,6.79-3.42,7.51-2.18,17.68,7.8,39.25,6.15,40.08Z"/><path class="cls-7" d="m286.3,284.3c.68-.08.92-.87,3.13-5.86,1.73-3.9,1.78-3.84,1.88-4.38.78-4.32-2.13-9.54-4.55-9.56-1.15-.01-1.21,1.16-4.1,3.42-2.91,2.28-4.16,2.12-4.55,3.42-.42,1.38.75,2.35,3.42,6.38,3.17,4.8,3.68,6.73,4.78,6.6Z"/><path class="cls-7" d="m242.32,268.14c-.68.45-1.33,1.27-2.05,5.72-.54,3.37-.81,5.08-.26,5.98.69,1.12,1.31.69,4.87,2.99,1.73,1.12,2.16,1.6,2.9,1.45,1.15-.23,1.08-1.59,2.82-3.33,1.64-1.64,2.44-1.17,3.33-2.48.76-1.12.6-2.07.68-5.12.04-1.29.12-3.22.36-5.61-4.41.1-7.58.02-9.93-.11-.76-.04-1.79-.11-2.73.51Z"/><path class="cls-7" d="m258.24,267.79c-.63.48-.37,1.69-.11,3.36.73,4.8.09,4.72.79,5.95.69,1.21.89.53,3.91,3.53.72.72,1.25,1.29,1.88,1.2.71-.11.99-.97,1.62-1.96,1.05-1.63,1.9-1.77,3.33-3.16,1.06-1.03,3.75-3.64,3.25-5.55-.76-2.89-8.22-1.94-13.24-3.42-.26-.08-.96-.29-1.42.06Z"/><path class="cls-7" d="m311.49,358.54c.65,3.1,1.62,6.71,2.72,6.69,1.28-.03,2.08-5,3.42-12.02,1.32-6.94,3.82-13.7,4.36-20.75,1.89-25.01,9.25-48.19,4.69-49.97-.41-.16-1.07-.2-2.72-.76-2.63-.88-3.48-1.61-5.29-2.31-2.35-.9-2.48-.26-6.14-1.06-4.67-1.03-5.76-2.23-6.76-1.6-1.83,1.15-.14,6.48.87,10.82,1.37,5.93.24,4.7,1.36,28.68.21,4.45.56,11.09,1.13,19.27.79,7.67,1.59,15.34,2.38,23.01Z"/><path class="cls-3" d="m218.32,307.53c-2.03-9.32-5.25-22.47-1.7-24.31.75-.39,2.5-.63,4.13-.37,2.17.34,2.54,1.32,4.2,1.22,1.77-.11,1.93-1.25,4.08-1.53.38-.05,2.04-.27,3.4.51,1.96,1.12,2.39,3.82,2.55,4.93,3.35,23.04,3.06,33.32,3.06,33.32-.63,22.57-.35,23.71-1.19,31.11-.84,7.4-1.95,13.6-2.89,18.19-1.62-6.33-3.43-12.85-5.44-19.55-1.71-5.69-3.47-11.18-5.27-16.49-1.68-11.35-3.52-20.55-4.93-27.03Z"/></g></svg>