<?xml version="1.0" encoding="UTF-8"?><svg id="Layer_1" xmlns="http://www.w3.org/2000/svg" viewBox="0 0 680 679.68"><defs><style>.cls-1{stroke-width:1.9px;}.cls-1,.cls-2,.cls-3,.cls-4,.cls-5,.cls-6,.cls-7,.cls-8,.cls-9,.cls-10,.cls-11,.cls-12,.cls-13,.cls-14,.cls-15,.cls-16,.cls-17,.cls-18,.cls-19,.cls-20,.cls-21,.cls-22,.cls-23,.cls-24,.cls-25{stroke-miterlimit:10;}.cls-1,.cls-2,.cls-3,.cls-4,.cls-5,.cls-6,.cls-7,.cls-8,.cls-9,.cls-10,.cls-11,.cls-12,.cls-13,.cls-15,.cls-16,.cls-17,.cls-18,.cls-19,.cls-20,.cls-21,.cls-22,.cls-23,.cls-25{stroke:#231f20;}.cls-1,.cls-16,.cls-21{fill:none;}.cls-2{fill:#f47542;}.cls-2,.cls-6,.cls-22{stroke-width:1.19px;}.cls-26,.cls-3,.cls-7,.cls-10,.cls-18,.cls-24{fill:#fff;}.cls-27{fill:#301611;}.cls-3,.cls-9,.cls-17,.cls-19,.cls-21{stroke-width:1.79px;}.cls-4{fill:#a23522;stroke-width:2.07px;}.cls-5{fill:#fbce3c;}.cls-5,.cls-15{stroke-width:3.13px;}.cls-28{fill:#f37546;}.cls-6,.cls-13,.cls-17,.cls-20,.cls-29{fill:#231f20;}.cls-30{fill:#070908;}.cls-31,.cls-11{fill:#690e1b;}.cls-7,.cls-12,.cls-24{stroke-width:.6px;}.cls-8{fill:#f1f2f2;}.cls-8,.cls-16{stroke-width:3.58px;}.cls-9{fill:#6b0f19;}.cls-32{fill:#feffff;}.cls-10{stroke-width:.3px;}.cls-33{fill:#f47744;}.cls-11,.cls-18,.cls-20{stroke-width:.45px;}.cls-12,.cls-34{fill:#6c0f1a;}.cls-13,.cls-25{stroke-width:2.39px;}.cls-14{fill:#f37448;stroke:#f26330;stroke-width:1.59px;}.cls-15{fill:#f9d046;}.cls-35{fill:#ae2325;}.cls-19{fill:#796668;}.cls-36{fill:#721116;}.cls-37{fill:#796866;}.cls-22{fill:#f8b5ad;}.cls-38{fill:#5c4442;}.cls-23{fill:#796966;stroke-width:4.78px;}.cls-39{fill:#ea2c30;}.cls-40{fill:#5d5150;}.cls-24{stroke:#fff;}.cls-41{fill:#d25830;}.cls-42{fill:#958885;}.cls-25{fill:#c7434e;}.cls-43{fill:#070909;}.cls-44{fill:#414042;}</style></defs><path class="cls-23" d="m462.66,146.17c-5.19-3.93-6.64-5.09-6.64-5.09-11.07-8.85-12.2-11.8-17.03-13.55-4.75-1.71-8.74-1.04-16.71.32-12.97,2.21-13.75,5.6-25.06,7.74-7.76,1.47-13.69,1.07-24.74.32-11.74-.79-18.06-2.57-20.24-3.23-6.39-1.91-6.2-2.78-10.92-4.19-11.64-3.49-22.59-1.13-34.7,1.61-12.31,2.79-11.57,4.42-17.99,4.52-9.53.14-11.34-3.45-23.78-4.19-3.45-.21-2.4.13-17.67.65-13.71.47-14.07.18-16.39.65-3.04.61-11.94,3-22.17,17.42-20.09,28.31-12.95,57.35-33.74,109.66-.99,2.48-1,9.55-6.1,14.19-6,5.45-14.72,4.73-18.64,4.52,0,0-1.66-.09-49.16,8.71-15.05,2.79-35.84,11.58-59.76,38.7,5.58.55,14.59,1.62,25.54,3.87,25.13,5.16,27.54,9.74,52.53,15.48,19.62,4.5,26.08,3.46,28.55,8.9,2.39,5.28-1.73,10.3-14.41,35.61-7.04,14.06-10.48,21.12-12.21,26.45-5.36,16.53-4.88,31.21-4.5,40.32.34,8.16,1.35,14.92,2.25,19.67-.37,8.1-2.06,21.96-9.64,37.09-6.24,12.47-14.09,21.01-19.6,26.13,11.46,13.12,22.92,26.23,34.38,39.35,11.35,8.39,22.71,16.77,34.06,25.16,18.27,12.36,45.06,28.23,79.68,41.28,24.68,9.31,85.65,31.88,163.86,23.11,49.18-5.52,83.37-9.35,99.93-35,20.07-31.09-11.75-54.01-.64-135.19,4.06-29.68,8.66-63.39,19.28-86.12,1.59-3.39,7.54-15.59,10.6-32.9,1.68-9.48,1.94-17.36,1.93-22.26,2.33-.12,5.77-.53,9.64-1.94,10.61-3.86,16.25-12.26,20.24-18.38,6.1-9.35,10.78-16.53,9.64-26.13-1.74-14.64-15.56-22.68-17.67-23.87-.33-3.81-1.02-10.09-2.57-17.74-3.89-19.14-8.05-21.39-8.68-34.83-.2-4.19,0-8.54-.54-20.32-.21-4.72-.32-7.09-.43-8.17-2.26-22.24-58.66-42.33-79.79-58.34Z"/><path class="cls-42" d="m219.9,187.47c5.82.57,9.13,13.2,10.24,17.46,4.6,17.56-3.91,32.34-4.82,33.87-6.6,11.07-13.4,10.8-18.31,21.29-3.43,7.31-2.86,14.1-2.41,23.71.44,9.38.83,17.63,5.78,26.61,6.02,10.91,15.11,16.27,18.8,18.38,16.81,9.64,33.07,6.75,33.09,8.06.03,1.65-25.71,11.05-45.63-.32-24.05-13.73-25.08-49.45-25.54-65.8-1.2-42.02,17.77-84.33,28.79-83.26Z"/><path class="cls-13" d="m320.11,376.53c5.82-9.66,13.08-8.86,44.34-21.29,60.54-24.07,67.02-40.46,101.53-42.25,6.75-.35,44.43-2.31,55.91,17.74,5.26,9.18,1.97,17.66-1.93,40.64-8.45,49.79-.68,55.08-7.39,70.31-17.49,39.69-98.07,66.87-150.21,33.38-35.5-22.8-57.37-73.43-42.25-98.54Z"/><path class="cls-29" d="m504.65,583.37s0,0,0,0c-.02,0,.31,2.55.25,2.76-.53,2.09-86.46-23.96-169.94-49.76,16.28,6.28,28.39,11.33,33.18,13.68,2.77,1.36,4.83,2.56,4.83,2.56,3.06,1.79,4.38,2.9,7.86,5.18,3.05,2,5.12,3.17,5.89,3.64,3.42,2.08,8.97,7.18,18.2,20.71-5.89,1.08-8.92-.14-10.6-1.61-1.2-1.05-1.16-1.73-2.73-3.39-3.62-3.83-8.2-4.81-8.35-4.52-.16.32,5.05,2,6.43,6.45.47,1.53.44,3.24,0,3.39-.79.25-1.91-4.82-6.43-9.84-3.74-4.15-7.3-5.49-8.19-5.81-1.92-.68-3.62-.9-4.82-.97,2.04,1.2,5.07,3.25,8.03,6.45,6.33,6.85,5.79,11.9,9.96,16.45,4.76,5.19,10.13,3.69,23.13,6.13,13.75,2.57,32.69,8.92,32.45,13.87-.25,5.05-20.42,7.61-21.53,7.74-12.04,1.46-21.39-.56-28.92-2.26-11.83-2.67-22.07-5.01-31.49-13.55-6.41-5.81-9.23-11.51-10.28-13.87-5.12-11.5-4.51-25.35-.64-26.77.63-.23.59.03,6.43,1.94,4.09,1.34,7.64,1.94,10.15,2.25-10.64-3.29-15.85-5.98-15.62-8.05.13-1.13,1.86-2.08,5.21-2.85-1.73.16-3.72.11-5.85-.37-5.27-1.2-9.68-4.68-9.32-5.48.22-.5,2.41-.32,10.92,2.58-4.15-2.01-10.29-5.55-16.07-11.61-9.51-9.99-7.62-15.93-13.17-21.29-16.35-15.77-58.71,10.65-67.47-1.61-1.15-1.61-2.16-4.49-.64-10-16.96-7.43-25.31-11.47-25.06-12.12.16-.41,3.69.52,10.6,2.77-6.97-3.24-16.71-8.31-27.45-15.88-15.35-10.81-24.1-16.98-30.35-28.96-8.38-16.07-7.06-32.66-6.45-40.31.64-8.03,2.28-14.59,3.69-19.11l3.06,5.57c.23-11.12.54-23.91.96-38.09.52-17.59.88-26.35,4.5-27.39,2.91-.83,7.31,4.26,16.12,14.44,8.22,9.5,7.93,10.94,11.51,12.65,11,5.24,24.73-3.07,26.52-4.18,3.54-2.21,5.81-4.56,5.61-4.85-.29-.43-5.55,4.33-11.57,3.87-4.3-.33-7.59-3.2-9.64-5.48,19.27-3.93,34.23-7.33,34.06-8.39-.13-.83-9.55.1-9.64-.65-.05-.4,2.65-1.18,10.28-2.58-8.47.46-41.41,1.43-53.34-17.74-3.88-6.23-5.16-14.48-7.71-30.96-1.84-11.89-2.55-21.89-2.85-28.91-7.95-.04-15.91-.08-23.86-.12,0,0,0,0,0,.01-1.12,2.81-1.81,4.42-2.36,5.61-.74,1.61-1.37,2.93-1.51,3.21-2.84,5.62-13.85,7.56-13.79,9.62.07,2.87,21.51.37,27.91,10.21,3.27,5.03,1.79,12.01-.4,17.79-11.67,15.77-22.34,19.89-29.57,20.93-19.2,2.78-25.88-14.37-56.95-17.58-19.28-1.99-32.95,2.94-36.7,4.39-8.99,3.48-15.64,8.13-19.92,11.61,8.69,1.19,20.57,3.63,33.74,9.19,17.31,7.3,23.15,14.2,37.91,18.22,8.2,2.23,19.8,3.76,34.97.84-.92,2.79-2.31,6.87-4.18,11.74-3.74,9.78-7.08,16.49-10.6,24.19-9.43,20.63-10,19.64-12.21,26.45-5.36,16.53-4.88,31.21-4.5,40.32.34,8.16,1.35,14.92,2.25,19.67-.37,8.1-2.06,21.96-9.64,37.09-6.24,12.47-14.09,21.01-19.6,26.13,11.46,13.12,22.92,26.23,34.38,39.35,11.35,8.39,22.71,16.77,34.06,25.16,18.27,12.36,45.06,28.23,79.68,41.28,22.64,8.53,84.51,31.45,163.86,23.11,43.24-4.54,84.45-6.34,100.3-35.33,9.27-16.96,6.4-36.37,3.01-48.97Z"/><path class="cls-26" d="m214.08,474.74c.65,0,1.62.05,2.73.32,1.92.47,2.95,1.26,4.3,1.94,1.73.86,2.5.78,5.5,1.49,1.95.46,4.86,1.53,10.68,3.67,3.62,1.33,5.07,1.93,5.82,3.47.55,1.11.92,3.1.16,3.71-.25.2-.53.17-.69.46-.24.43.09,1.05.61,1.88.89,1.41,1.33,2.11,1.97,2.7,1.27,1.18,2.33,1.35,5.98,2.58,2.92.98,4.39,1.48,4.86,1.89,1.51,1.33,2.03,3.17,2.97,6.49.78,2.75.42,2.75.96,3.99,1.59,3.6,5.32,5.21,6.23,5.56,1.47.58,3.2.91,9.76,0,10.7-1.49,10.08-2.93,15.82-2.98,3.41-.03,6.86.44,7.67-1.21.27-.56.29-1.44-.12-1.77-.8-.66-2.88.99-3.09.69-.15-.21.64-1.41,1.89-1.69.98-.22,2.23.13,2.65.97.68,1.33-1.08,3.21-1.25,3.39-1.98,2.07-4.85.52-9.72.85-1.53.1-1.07.23-9.04,2.42-8.34,2.29-9.96,2.46-11.77,2.3-3.22-.28-5.74-1.48-7.27-2.38-2.91-1.64-4.05-3.44-4.54-4.84-.94-2.69.21-4.8-1.49-7.38-.18-.28-.92-1.34-2.29-2.18-2.23-1.35-4.66-1.03-5.42-.97-2.45.19-6.4-.71-12.9-5.78,1.77,1.3,4.94,3.26,9.33,4.05,2.3.41,4.33.39,5.9.24-3.08-1.49-6.84-3-11.24-4.15-2.48-.65-4.81-1.1-6.96-1.41,2.17.14,4.54.4,7.07.85,1.53.27,2.98.59,4.34.93-8.64-3.37-18.36-8.03-28.4-14.55-3.69-2.39-7.1-4.83-10.24-7.26,1.73.85,4.57,2.3,7.99,4.31,6.87,4.04,7.69,5.43,13.05,8.02,1.69.81,4.15,1.83,9.08,3.87,2.53,1.05,4.63,1.89,6.06,2.46-.39-.61-1-1.43-1.93-2.22-1.04-.88-2.06-1.38-2.77-1.65,1.59.52,3.19,1.05,4.78,1.57.17-.01,1.19-.09,1.65-.85.63-1.03-.33-2.38-.44-2.54-.52-.74-1.15-.98-2.95-1.77-2.77-1.22-1.99-.98-3.12-1.42-5-1.95-7.36-1.7-12.13-3.75-.74-.32-2.6-1.15-5.3-2.18-2.88-1.1-3.09-1.04-3.13-.97-.23.39,3.15,3,6.55,4.88,3.33,1.84,6.33,2.8,8.31,3.31-1.09-.1-2.56-.31-4.26-.77-2.36-.63-6.35-1.75-9.68-5.16-.75-.77-1.69-1.89-2.57-3.43Z"/><g id="eye"><path class="cls-8" d="m265.32,226.22c-1.71,1.12-4.86,3.53-7.23,7.74-.54.95-2.81,5.16-2.89,11.13-.03,2.42-.14,10.66,5.78,15.97,3.25,2.91,6.9,3.68,10.12,4.35,1.95.41,6.23,1.26,11.57,0,.87-.21,7.01-1.72,11.08-5.81,6.07-6.09,7.01-17.35,2.41-28.06-10.28-1.77-20.56-3.55-30.85-5.32Z"/><path class="cls-17" d="m274.86,235.01c-1.05,1.01-4.28,4.38-4.72,9.59-.51,6.15,3.15,11.37,7.23,14.03,3.32,2.17,6.63,2.37,7.71,2.42,1.71.08,5.67.27,8.89-2.37,1.82-1.49,2.75-3.35,3.19-4.22.92-1.84,1.24-3.46,1.48-4.73.35-1.81.43-3.35.42-4.47-1.38-.5-3.32-1.21-5.62-2.13-2.73-1.09-4.73-1.97-6.43-2.73-4.36-1.93-8.41-3.73-12.15-5.4Z"/><path class="cls-26" d="m277.37,236.97c3.2,1.45,6.39,2.9,9.59,4.35-.34.46-.86,1.1-1.61,1.77-1.02.92-1.91,1.72-3.21,1.99-1.3.27-2.9-.03-4.02-.97-1.76-1.49-2.21-4.5-.75-7.15Z"/></g><path class="cls-40" d="m410.67,267.67c1.36-.38,2.36-.97,2.93-1.34.16-.39.32-.79.48-1.18-4-.28-6.88-1.29-8.76-2.15-2.93-1.34-4.96-3.01-5.94-2.26-.7.53-.55,2.05-.16,3.06,1.32,3.41,7.04,5.1,11.45,3.87Z"/><path class="cls-29" d="m397.86,264.28c1.39.72,2.78,1.43,4.18,2.15,1.01.88,2.25,1.79,3.75,2.58,5.53,2.91,11.05,2.37,13.6,1.94-2.68-1.04-5.36-2.08-8.03-3.12.75-.5,1.5-1,2.25-1.51-1.26.14-3.18.23-5.46-.21-2.28-.45-4.84-.95-6.64-3.12-.51-.61-1.66-2.21-1.82-4.95.07.92.27,2.06.78,3.27,1.73,4.13,6.09,5.94,6.07,5.97-.03.05-9.88-5.95-9.91-5.91-.02.03,6.44,4.04,6.16,4.57-.14.26-1.92-.37-4.93-1.67Z"/><path class="cls-29" d="m396.36,255.14s1.59-.38,3.53.11c3.14.78,3.59,2.9,6.37,4.25,3.64,1.76,7.66.45,7.66.27,0-.15-2.72.36-5.92-1.02-2.49-1.07-2.5-2.03-4.79-2.96-3.45-1.41-6.85-.65-6.85-.65Z"/><path class="cls-29" d="m392.61,251.17c-.06.16,1.73.94,2.89,1.4,4.76,1.87,9.37,2.41,9.42,2.15.03-.14-1.92-.72-5.84-1.88-2.65-.78-6.4-1.89-6.48-1.67Z"/><path class="cls-29" d="m409.96,256s1.26.69,2.25.22c.79-.37.69-1.14,1.34-1.88,1.45-1.65,4.76-1.04,4.77-.91,0,.08-1.33-.19-2.91.58-1.82.89-2.05,2.21-3.53,2.41-1.05.14-1.92-.39-1.91-.4Z"/><path class="cls-29" d="m269.13,152.79c-.38-.31-1.01-.76-1.39-1.61-.18-.4-.43-.95-.21-1.4.42-.85,2.25-.71,3.11-.54.43.08.86.17,1.29.43,1.47.9,1.03,2.77,1.93,4.52.25.48.74,1.23,5.68,3.66,2.52,1.24,4.5,2.08,5.68,2.58,2.02.86,4.64,1.96,7.71,3.23-2.46.04-4.93.07-7.39.11-3.78-1.76-7.57-3.51-11.35-5.27-.73-.82-1.35-1.52-1.82-2.04-3.28-3.7-3.02-3.5-3.21-3.66Z"/><path class="cls-29" d="m290.65,149.24c-.08-.15,2.43-1.86,5.36-3.12,6.62-2.84,12.94-2.28,12.96-2.04.02.21-5.12.06-12.1,2.58-3.53,1.28-6.13,2.73-6.21,2.58Z"/><path class="cls-29" d="m333.49,144.51c-.06-.28,1.54-1.12,3.32-1.4,2.91-.45,3.78.99,7.82,1.4,2.81.29,3.01-.35,5.14.22,2.31.61,2.69,1.52,4.61,2.04,2.53.69,4.27-.22,6.43-.65,4.23-.83,7.4.78,10.92,1.94,8.52,2.8,17.82,2.59,23.34,2.46,5.46-.13,13.58-1.07,23.35-5.15-3.69,2.51-9.12,5.54-16.17,7.42-10.58,2.82-19.24,1.56-20.99,1.29-6.63-1.04-7.31-2.62-17.46-4.41-7.15-1.26-6.64-.44-11.03-1.61-6.67-1.78-9.62-4.14-15.4-3.71-1.6.12-3.8.48-3.87.17Z"/><path class="cls-29" d="m381.72,156.07c-.08.31,4.21.52,8.33,3.82,1.49,1.19,2.01,1.93,3.64,2.8,2.26,1.2,4.25.91,5.78.97,6.73.26,12.54,7.5,12.1,8.17-.3.46-4.05-1.51-8.14-3.66-6.42-3.37-9.5-5.8-9.75-5.48-.28.36,3.08,4.06,7.82,6.99,5.51,3.41,12.59,5.58,13.49,4.09.61-1-1.68-3.42-3.53-5.38-3.65-3.86-7.53-5.61-9.85-6.67-1.04-.47-1.95-.6-4.07-1.4-2.39-.9-3.94-1.64-4.74-1.99-5.25-2.31-11-2.62-11.08-2.26Z"/><path class="cls-29" d="m445.2,161.5c.83-1.18,12.81,6.07,18.15,9.3,5.46,3.3,11.73,7.09,11.3,8.01-.43.92-7.58-1.04-13.98-4.35-9.14-4.74-16.17-11.96-15.48-12.96Z"/><path class="cls-29" d="m390.79,275.25c-3.06-.52-7.33-1.65-11.78-4.3-6.34-3.78-9.79-8.71-12.42-12.47-1.95-2.78-4.26-6.64-6.21-11.61h-2.78c-.22-3.73-.08-9.26,1.93-15.48,1.05-3.27,2.38-6,3.64-8.17,0-1.68.16-4.13,1.07-6.88,1.56-4.7,4.29-7.2,3.43-8.39-.6-.83-2.31-.13-4.5,0-2.62.15-6.22-.51-10.71-3.87-.29,3.01-.57,6.02-.86,9.03-4.28.14-8.57.29-12.85.43,3-1.15,6-2.29,9-3.44.5-2.37,1-4.73,1.5-7.1-4.64-2.11-10.9-5.66-16.92-11.61-1.71-1.7-6.84-8.15-6.85-8.17h0c-.2-.02-17.91-.63-33.63-5.59-4.64-1.46-11.16-3.95-18.64-8.39,11.16,4.28,24.7,8.22,40.33,10.3,5.05.67,9.9,1.09,14.51,1.31,1.34,2.22,2.96,4.47,4.93,6.67,11.7,13.07,28.17,15.68,35.56,16.34-.07-2.72-.14-5.45-.21-8.17.64,1.94,1.29,3.87,1.93,5.81,2.78-3.15,5.57-6.31,8.35-9.46-3.12-2.14-7.78-5.07-13.92-7.96-.16-.08-1.19-.56-2.34-1.06-3.93-1.72-10.31-4.15-19.51-6.25,6.85,1.15,13.71,2.29,20.56,3.44,5.71,3.01,11.42,6.02,17.14,9.03,1.14-.9,2.79-2.09,4.93-3.23,2.31-1.23,8.53-4.55,16.28-3.87,6.47.57,10.9,3.65,15.85,7.1,4.13,2.87,7.09,5.83,9,7.96,2.28,1.22,4.57,2.44,6.85,3.66,2.28,3.08,4.57,6.16,6.85,9.25,1.79,7.38,3.57,14.77,5.36,22.15-.42-2.04-1.08-4.99-2.06-8.51-1.89-6.79-2.85-10.22-5.22-13.85-1.39-2.13-3.91-5.29-8.35-8.17,1.78,2.03,4.24,5.25,6.21,9.68.67,1.5,1.11,2.74,2.68,8.28,2.5,8.81,3.75,13.25,3.75,15.27,0,2.77-.56,7.38-4.07,13.01.83-1.71,1.86-4.38,2.14-7.74.34-4.06-.61-7.07-2.36-12.36-3.11-9.45-4.67-14.18-5.03-14.94-1.07-2.22-4.86-9.74-12.53-17.2-3.64-3.54-7.27-7-13.17-9.14-1.99-.72-5.03-1.79-9-1.61-5.31.24-9.05,2.57-12.42,4.73-4.29,2.75-11.04,7.07-15.1,15.8-3.88,8.35-3.1,16.03-2.57,21.29.58,5.69,2.02,10.26,3.21,13.33-1.26-1.47-2.69-3.43-3.96-5.91-.81-1.59-1.39-3.08-1.82-4.41-.16,4.43.29,8.07.75,10.64,1.07,5.94,1.98,11.01,5.46,13.22.75.48,1.96,1.04,3.21,2.47,1.29,1.47,1.36,2.43,2.46,3.87,1.43,1.87,3.15,2.66,3.96,3.12,2.19,1.24,5.22,4.29,9,12.15Z"/><path class="cls-30" d="m424.13,246.62c2.09-.24,4.18-.48,6.27-.73l.24-4.84c-.29-.73-.77-1.79-1.53-2.98-1.65-2.6-3.47-4.01-4.74-5.08-.45-.38.01,0-7.23-7.9-3.12-3.4-5.68-6.17-5.7-8.31,0-.26.03-1.04-.48-1.61-.64-.72-1.44-.34-2.33-.89-1.07-.66-.85-1.81-1.69-3.31-.67-1.19-1.54-1.78-2.97-2.74-3.59-2.42-7.49-2.83-8.27-2.9-2.53-.24-7.04-.66-10.6,2.18-2.54,2.02-3.3,4.66-4.66,9.43-.89,3.11-1.8,6.28-1.2,10.4.31,2.15.79,5.48,3.05,8.31,0,0,2.4,2.99,4.18,6.05.01.02.25.44.48,1.05.13.34.65,1.72.32,1.94-.35.23-1.34-1.07-1.61-.89-.25.18.15,1.71,1.29,2.34.37.2,1.11.47,1.45.16.45-.42-.3-1.46.08-1.94.49-.61,2.44.22,3.45.65,5.61,2.35,8.41,3.52,9.72,3.55,1.43.03,2.82-.25,4.42.65.8.45,1.35,1.03,1.69,1.45-.41.22-1.17.56-2.17.65-1.05.08-1.88-.16-2.33-.32.88.7,1.67,1.16,2.25,1.45,1.3.66,2.09,1.05,2.97.81.74-.21,1.21-.77,1.45-1.13.58.01,1.38,0,2.33-.08,1.51-.13,4.42-.42,7.55-2.1,1.13-.6,2.73-1.62,4.34-3.31Z"/><path class="cls-37" d="m384.77,223c2.8,3.93,5.12,7.12,6.83,9.6,1.02,1.47,2.71,3.97,4.74,5,.19.09.63.3,1.12.73,1.34,1.14,1.7,2.67,1.85,3.14.41,1.29,1.91,3.01,6.91,4.68-5.09.58-7.21-.52-8.19-1.69-.53-.64-1.13-1.78-2.41-2.1-1.21-.3-1.59.49-2.73.24-1.08-.23-1.9-1.36-3.53-3.63-.55-.76-.87-1.29-1.61-1.94-.87-.76-1.66-1.11-1.85-1.21-1.04-.55-1.95-3.18-1.12-12.82Z"/><path class="cls-29" d="m447.88,179.45c-.14-.33-2.49.38-6.21,1.51-4.95,1.5-11.58,3.73-19.39,6.99-.31.69-.28,1.19-.21,1.51.34,1.56,2.66,2.75,5.78,2.69,5.39.02,10,.31,13.6.65,5.69.53,11.18,1.03,18.1,2.8,5.91,1.51,6.94,2.42,12.1,3.33,4.88.86,8.99.94,11.78.86l-.86,2.26c-1.98-.34-4.09-.64-6.32-.86-3.62-.36-7-.47-10.07-.43,8.18.03,11.49,1.83,12.96,3.55.48.56,1.98,2.53,3.75,2.37.9-.09,1.55-.7,1.71-.86,1.56-1.51.42-3.47,1.71-4.62,1.06-.94,2.23-.01,3.64-1.18.69-.57.75-1.07,1.29-1.94.6-.96,1.67-2.18,3.75-3.23-.93.43-2.32.99-4.07,1.4-2.37.55-4.31.57-5.68.54-5.34-.13-7.94-1.25-15.64-2.58-5.06-.87-6.01-.75-7.88-1.86-2.94-1.75-4.59-4.44-5.5-6.42.03.79.22,2.98,1.82,5.05,1.88,2.44,4.43,3.07,5.14,3.23-2.7-.8-6.81-1.88-11.89-2.69-14.76-2.35-26.45-.61-26.56-1.61-.05-.47,2.45-.85,6.43-2.15,9.26-3.03,16.97-7.65,16.71-8.28Z"/><path class="cls-29" d="m553.69,287.83c-1.4-.87-3.07-1.9-5.24-3.49-1.54-1.13-2.81-2.16-3.75-2.96,0,0-1.42-1.2-7.39-6.77-1.02-1.26-2.39-2.64-4.18-3.87-.84-.58-3.24-2.13-6.77-2.98-1.66-.4-3.1-.53-4.16-.56-.24.37-.56.97-.49,1.67.14,1.31,1.57,1.99,1.45,2.2-.18.32-3.23-1.18-6.43-2.53-2.14-.9-5.5-2.22-5.46-2.31.03-.07,1.75.89,3.64.38.16-.04,1.74-.49,1.82-1.34.02-.27-.08-.74-1.5-1.67-2.26-1.48-4.3-1.78-4.28-1.88.02-.12,3.19.1,7.39,1.34,1.72.51,1.84.66,3.59,1.13,2.16.58,3.77.99,5.73.97.52,0,2.7-.03,4.61-.86,4.63-2.01,5.88-7.94,6.05-8.82.36,1.02.71,2.52.43,4.25-.85,5.3-6.73,7.51-7.07,7.63.08.24.44,1.19,1.39,1.61.77.34,1.5.16,1.87.05,2.08-.57,3.32-2.8,3.64-3.39,1.66-3,2.45-11.83,1.82-23.49.75,1.72,1.66,4.09,2.41,6.99.4,1.55,1.05,4.12,1.29,7.47.34,4.96.58,8.39-1.61,11.02-.64.76-2.24,2.38-5.68,3.01.22.63.59,1.5,1.23,2.42,1.41,2.02,3.66,3.61,4.12,3.23.17-.14.06-.52,0-.75-.44-1.6-2.43-2.03-2.3-2.69.04-.21.25-.17,1.39-.97.56-.39.55-.43.7-.48,1.18-.43,3.19,1.38,2.95,1.99-.15.37-1.05.13-1.23.59-.14.35.32.6.59,1.56.18.63.1.96.27,1.02.33.11.67-1.09,1.34-1.18.79-.11,1.45,1.41,2.46,2.85,1.11,1.58,1.81,1.9,3.59,3.6,3.36,3.23,6.85,7.87,6.32,8.44-.23.24-1.67-.64-4.55-2.42Z"/><path class="cls-29" d="m515.41,202.57c-.14.34-.38.84-.8,1.34-1.49,1.79-3.84,2.03-4.93,2.2-3.2.52-5.41,2.15-9.42,5.11-3.39,2.5-5.19,3.82-6.37,6.4-1.51,3.3-.96,6.38-2.84,7.1-1.11.43-2.25-.29-2.3-.32-1.56-1.01-1.52-3.49-1.5-4.57.06-3.57,1.72-6.18,4.55-10.54,1.77-2.72,2.94-4.51,5.09-6.5,2.14-1.98,2.57-1.68,4.82-3.92.84-.83,2.41-2.49,4.6-4.08.42-.3.72-.5.86-.59,1.58-1.04,3.01-1.66,4.02-2.04-1.01.4-2.96,1.34-4.66,3.33-1.42,1.66-2.06,3.35-2.36,4.35,1.2-.73,2.15-1.44,2.84-1.99,1.88-1.5,2.82-2.25,3.32-3.23.28-.54.47-1.13,1.12-1.67.58-.48.84-.35,1.5-.81,1.11-.77,1.06-1.62,1.71-1.83.45-.14.72.2,2.52,1.51,1.49,1.08,1.94,1.32,1.87,1.61-.07.31-.64.32-2.14.65-1.59.35-.78.31-4.07,1.29-.35.11-.91.27-1.39.75-.48.48-.79,1.16-.64,1.29.13.12.59-.32,1.23-.7,1.52-.89,3.22-.93,4.66-.97,1.53-.04,2.21.18,2.52-.27.41-.61-.51-1.58-.16-2.04.35-.47,1.64.19,3.43.65,1.63.42,1.93.23,3.96.54,1.32.2,4.15.62,6.96,1.99.76.37,2.95,1.43,4.6,3.23,4.49,4.88,3.19,13.18,2.73,13.22-.27.03-.24-2.82-2.14-7.47-1.33-3.24-2.12-5.17-4.02-6.72-2.55-2.08-5.52-2.19-10.07-2.37-.93-.04-4.4-.13-9,.75-6.13,1.18-10.32,3.36-11.19,3.82-3.59,1.9-6,3.93-6.91,4.73-2.72,2.39-5.72,5.02-7.23,9.46-.94,2.76-.96,5.21-.86,6.72.45-2.03,1.41-5.23,3.64-8.6,2.19-3.31,4.7-5.42,6.37-6.61-5.68,6.65-6.8,8.18-6.69,8.28.13.11,1.89-2.03,5.19-4.46,2.25-1.65,4.51-3.31,7.82-4.3,2.14-.64,2.91-.45,5.25-1.34,1.98-.76,3.5-1.68,4.5-2.37Z"/><path class="cls-43" d="m499.61,248.58c-.19-1.51-.19-3.61,1.07-5.16,1.04-1.29,1.94-.96,3.86-2.37,2.16-1.58,2.06-2.76,4.5-5.38,1.35-1.45,1.82-1.56,4.07-3.44,2.89-2.42,2.81-2.82,6.37-6.18,5.97-5.62,6.4-4.69,9.32-8.22,1.29-1.57,2.48-3.29,3.16-3.01.58.24.28,1.75.43,3.66.25,3.23,1.57,4.98,2.36,6.88,2.88,6.94-1.59,15.53-2.14,16.56-.93,1.73-2.77,4.63-6.21,7.31.35.14.96.42,1.45,1.02,1.08,1.33.78,3.27.7,3.28-.05,0,.02-.79-.46-1.59-.54-.89-1.5-1.34-2.37-1.57-.18.4-.48,1-.96,1.65-1.08,1.47-2.06,1.87-2.01,2.7.05.75.89,1.03.76,1.41-.17.5-1.78.32-2.93.28-2.98-.09-3.78.75-5.98.93-3.39.27-6.11-1.35-8.51-2.78-3.21-1.91-5.26-4.31-6.45-5.98Z"/><path class="cls-7" d="m511.28,237.19c.4.1.75.82,1.45,2.26.28.58.68,1.42.96,2.58.37,1.53.8,3.3,0,4.03-.66.61-1.5-.09-3.53,0-2.66.12-3.63,1.41-4.18.97-1.38-1.11,3.34-10.35,5.3-9.84Z"/><path class="cls-21" d="m389.62,269.01s1.05.97,1.82,2.69c.43.95.3,1.12.64,1.61,1.1,1.58,3.8,1.79,3.96,1.4.11-.27-.99-.67-3-2.37-2.01-1.7-3.38-3.38-3.43-3.33Z"/><path class="cls-29" d="m402.79,261.59c.1-.31,2.39.22,3.05.38,2.08.48,4.94,1.37,8.25,3.17-2.05-.07-4.55-.41-7.23-1.4-1.91-.7-4.18-1.83-4.07-2.15Z"/><path class="cls-29" d="m234.72,405.96c-1.95-.86-3.58-1.88-4.94-2.9,4.35,1.34,8.08,1.05,10.08-.97,1.33-1.34,1.69-3.15,1.93-5.32.73-6.59-1.86-11.86-2.57-13.22-.57-1.09-3.41-6.33-9.56-9.92-2.88-1.68-6.68-3.9-10.12-2.42-.66.28-1.2.67-1.68,1.11-1.21,1.14-4.67,4.71-5.39,10.34-1.2,9.29,6.12,15.59,6.67,16.05,3.55,4.06,7.41,5.91,9.96,7.1,2.77,1.29,8.49,3.87,15.9,3.06,3.04-.33,5.47-1.13,7.07-1.77-2.51.68-9.66,2.25-17.35-1.13Zm-15.93-13.3c-2.32-4.83-3.75-12.86.17-16.15,1.15-.97,2.48-1.26,3.26-1.37,1.59.08,5.67.49,9.64,3.44,1.12.84,4.06,3.23,5.77,7.47.27.67,3.98,10.22-.85,14.29-3.42,2.87-8.79,1.06-9.52.82-5.22-1.76-7.49-6.48-8.46-8.49Z"/><path class="cls-36" d="m498.64,345.02c-3.91.25-7.2,6.69-8.35,10.32-2.75,8.66,2.4,14.67-1.93,21.29-1.88,2.88-4.26,3.88-3.86,5.81.64,3.05,7,2.58,8.35,6.45.84,2.4-1.33,3.34-1.29,7.1.07,5.59,4.94,8.75,3.86,10.32-1.09,1.59-5.87-1.9-8.35,0-2.56,1.96.45,7.26,1.29,19.35.46,6.68-.23,8.24,1.29,9.68,4.15,3.93,17.83.3,20.56-7.1,3.23-8.73-10.17-19-6.43-24.51,2.19-3.23,7.26-.44,10.92-3.23,11.01-8.37-5.12-56.16-16.07-55.48Z"/><path class="cls-5" d="m635.84,464.81c-5.45-10.14-11.82-17.77-17.22-23.21-3.74-4.02-8.29-8.27-13.78-12.35-16.23-12.06-32.81-16.76-43.79-18.77,4.09,2.86,65.49,47.1,64.45,109.15-.25,14.92-.69,41.23-18.2,60.75-9.42,10.5-21.71,16.73-20.18,20.85-5.3-1.45-9.11-4.03-10.82-5.05-12.34-7.36-39.94-7.37-106.17,23.25,6.26,5.56,17.98,14.52,35.08,19.81,3.62,1.12,18.43,5.46,38.13,3.68,6.06-.55,33.46-3.57,54.61-21.54,8.78-7.46,17.57-18.46,18.53-19.64,1.57-1.92,6.84-8.38,8.59-11.85,4.23-6.5,8.52-14.27,12.24-23.34,8.35-20.33,10.29-38.56,10.59-50.44.23-10.59-.87-30.46-12.07-51.3Z"/><path class="cls-27" d="m584.95,600.25c-.51.88-.68,1.68-.41,2.41-2.65-.72-4.93-1.73-6.76-2.69-2.25-1.17-3.83-2.21-4.04-2.35-.01,0-.02-.01-.02-.01-2.25-1.48-33.17,2.75-110.15,16.33,6.69,6.91,20.49,19.18,41.65,25.3,21.78,6.3,39.74,2.73,50.62.43,9.44-1.99,26.52-5.6,39.53-16.87,3.97-3.44,11.38-10.87,18.53-19.64.88-1.08,2.94-3.6,4.88-6.22-5.68,2.91-10.03,3.1-12.96,2.72-3.58-.46-5.05-1.75-8.62-2.16-5.05-.58-9.4,1.18-12.26,2.75Z"/><path class="cls-15" d="m629.63,521.07c-4.35,65.72-72.63,126.53-133.45,109.96-51.99-14.16-83.87-80.86-68.45-137.57,15.48-56.92,77.73-100.52,133.33-82.97,46.59,14.7,71.45,66.96,68.57,110.59Z"/><path class="cls-1" d="m609.02,518.61c-.51,8.18-2.89,38.99-27.33,64.84-6.83,7.22-32.04,33.88-66.57,30.06-20.61-2.28-34.35-14.28-39.64-19.03-24.55-22.04-37.55-61.28-26.39-97.13,13.87-44.55,61.78-73.37,101.35-65.93,24.86,4.67,40.04,22.45,42.22,25.09,18.79,22.64,17.12,49.64,16.34,62.1Z"/><path class="cls-29" d="m595.62,509.32c-.19-.54-8.15-.02-14.97,4.75-4.88,3.41-7.56,7.86-8.99,10.9,1.74,2.01,3.47,4.02,5.21,6.04,3.76,4.36,11.67,12.34,14.88,10.61,1.11-.6,1.52-2.29,1.46-3.54-.34-6.33-13.6-6.86-14.53-12.97-.78-5.12,7.29-12.65,12.79-12.43.52.02,3.61.21,3.75-.43.07-.33-.71-.62-.75-1.29-.06-.88,1.23-1.41,1.15-1.64Z"/><path class="cls-29" d="m487.01,429.82c.53.47,1.04.97,1.51,1.5.23.26.45.53.67.8-.08-.1-.09-.12,0,0,.06.08.11.15.17.23.1.14.2.28.3.42.37.55.71,1.12,1.01,1.71.08.15.15.3.22.45.04.08.08.17.12.25.01.03.11.25.04.09-.08-.18.06.14.06.14.03.07.05.14.08.21.07.17.13.35.19.52.23.69.97,1.22,1.72.97.69-.22,1.23-.98.97-1.72-.99-2.92-2.76-5.52-5.06-7.57-.55-.48-1.44-.58-1.97,0-.49.53-.58,1.46,0,1.97h0Z"/><path class="cls-29" d="m507.65,420.23c.41-.39.84-.83,1.31-1.03.24-.1.41-.12.63-.12.18,0,0-.03.17.03.12.04.15.05.06.02.11.07.13.08.06.02.04.03.21.25.1.09.03.05.17.38.12.21.03.1.06.2.09.3.02.07.03.14.04.21-.01-.11-.01-.09,0,.04.04.61.05,1.22.06,1.82.01.65.05,1.3.03,1.96,0,.05-.02.43,0,.32-.01.12-.05.23-.07.35s-.02.12-.13.28c.06-.08-.12.11-.13.12.18-.14-.3.1-.08.03,0,0-.33.08-.14.05-.04,0-.45,0-.26.02-.11-.01-.21-.04-.31-.08.12.04-.2-.11-.25-.14.13.08-.1-.09-.13-.12-.05-.05-.1-.11-.15-.16.05.07.04.05-.03-.05-.02-.04-.2-.37-.15-.24-.22-.53-.71-.91-1.32-.75-.5.14-.97.78-.75,1.32.54,1.3,1.64,2.35,3.13,2.35s2.64-1.07,2.85-2.53c.1-.71.06-1.42.05-2.14s-.01-1.39-.05-2.09c-.07-1.37-.53-2.77-1.96-3.25-1.68-.56-3.17.53-4.31,1.64-.42.4-.4,1.11,0,1.51s1.1.4,1.51,0h0Z"/><path class="cls-29" d="m531.31,413.75c-.68.36-1.37.71-2.05,1.07-.17.09-.32.22-.42.39-.13.14-.22.32-.27.51-.06.2-.07.4-.03.6,0,.2.07.39.18.56.21.32.51.6.9.69l.4.05c.27,0,.52-.07.76-.2.68-.36,1.37-.71,2.05-1.07.17-.09.32-.22.42-.39.13-.14.22-.32.27-.51.06-.2.07-.4.03-.6,0-.2-.07-.39-.18-.56-.21-.32-.51-.6-.9-.69l-.4-.05c-.27,0-.52.07-.76.2h0Z"/><path class="cls-29" d="m529.65,419.66v2.2c0,.38.17.79.44,1.06s.69.46,1.06.44.79-.14,1.06-.44.44-.65.44-1.06v-2.2c0-.38-.17-.79-.44-1.06s-.69-.46-1.06-.44-.79.14-1.06.44-.44.65-.44,1.06h0Z"/><path class="cls-29" d="m545.17,415.78l2.49.88c.35.12.84.03,1.16-.15s.61-.54.69-.9c.09-.38.07-.82-.15-1.16l-.23-.3c-.19-.19-.41-.31-.66-.39l-2.49-.88c-.35-.12-.84-.03-1.16.15s-.61.54-.69.9c-.09.38-.07.82.15,1.16l.23.3c.19.19.41.31.66.39h0Z"/><path class="cls-29" d="m545.31,418.89c0,1.24,0,2.49,0,3.73,0,.79.69,1.54,1.5,1.5s1.5-.66,1.5-1.5c0-1.24,0-2.49,0-3.73,0-.79-.69-1.54-1.5-1.5s-1.5.66-1.5,1.5h0Z"/><path class="cls-29" d="m565.4,421.54c0-.08.01-.15.02-.23l-.05.37c.03-.19.08-.37.15-.55l-.14.34c.08-.19.18-.36.31-.53l-.22.29c.11-.14.24-.27.39-.39l-.29.22c.14-.11.29-.2.46-.27l-.34.14c.13-.05.26-.09.4-.11l-.37.05c.16-.02.31-.02.47,0l-.37-.05c.16.03.31.07.45.13l-.34-.14c.15.07.28.15.41.24l-.29-.22c.16.12.3.26.43.42l-.22-.29c.11.15.21.31.28.48l-.14-.34c.07.18.12.36.15.55l-.05-.37v.06c.06.39.13.71.42,1,.24.24.65.43,1,.41s.74-.14,1-.41c.23-.25.46-.64.41-1-.07-.54-.17-.98-.43-1.47-.17-.33-.42-.65-.69-.9-.62-.58-1.47-.98-2.34-.94-1.85.09-3.21,1.7-3.29,3.5-.04.74.67,1.44,1.41,1.41.79-.04,1.37-.62,1.41-1.41h0Z"/><path class="cls-29" d="m563.37,425.65v.07c0-.13-.02-.27-.04-.4.03.27.03.54,0,.81l.05-.4c-.02.16-.06.31-.1.47-.02.06-.04.2-.08.24l.1-.22s-.04.09-.06.13c-.07.13-.14.26-.22.39-.03.04-.06.08-.09.12l.14-.19c-.03.07-.12.14-.17.2s-.11.11-.16.16c-.03.03-.06.05-.08.07-.12.1-.08.06.13-.1-.13.07-.25.17-.39.24-.15.08-.27.05.07-.02-.07.02-.15.05-.22.08-.18.05-.36.09-.54.12l.4-.05c-.32.04-.63.04-.94,0l.4.05c-.07-.01-.77-.14-.76-.19,0,0,.34.16.14.06-.06-.03-.12-.06-.17-.09-.13-.07-.25-.15-.36-.23-.3-.22-.82-.24-1.16-.15s-.73.37-.9.69c-.41.78-.14,1.56.54,2.05,1.48,1.07,3.71,1.12,5.25.14.73-.46,1.38-1.14,1.74-1.93.18-.41.34-.8.41-1.24.09-.59.08-1.08-.01-1.68-.05-.35-.4-.73-.69-.9-.32-.19-.8-.27-1.16-.15s-.71.34-.9.69c-.2.38-.22.74-.15,1.16h0Z"/><path class="cls-29" d="m583.15,431.86c.46-1.46.91-2.92,1.37-4.39.23-.75-.28-1.67-1.05-1.85-.82-.19-1.6.25-1.85,1.05-.46,1.46-.91,2.92-1.37,4.39-.23.75.28,1.67,1.05,1.85.82.19,1.6-.25,1.85-1.05h0Z"/><path class="cls-29" d="m591.05,443.43l2.47.35c.27.04.53.07.8,0,.32-.09.58-.28.78-.54.35-.45.45-1.17.12-1.67-.43-.64-.86-1.28-1.28-1.92l-.54,2.05c.38-.2.75-.4,1.13-.6.57-.3.87-1.08.69-1.69-.22-.75-.44-1.49-.66-2.24l-2.2,1.69c1.02.54,2.03,1.08,3.05,1.63.69.37,1.66.2,2.05-.54.37-.7.2-1.66-.54-2.05-1.02-.54-2.03-1.08-3.05-1.63-.54-.29-1.18-.26-1.67.12s-.71,1-.54,1.58c.22.75.44,1.49.66,2.24l.69-1.69c-.38.2-.75.4-1.13.6-.69.36-.98,1.4-.54,2.05s.86,1.28,1.28,1.92l1.69-2.2-2.47-.35c-.42-.06-.78-.07-1.16.15-.31.18-.61.54-.69.9-.09.38-.07.82.15,1.16.2.3.52.64.9.69h0Z"/><path class="cls-29" d="m600.81,455.25l1.79-3.87-2.05.54c.67.48,1.34.97,2.01,1.45l-.54-.54s-.12-.32-.07-.13c-.01-.05-.02-.36-.04-.16,0-.04.07-.36.01-.16s.03-.09.06-.12c-.05.07-.14.21-.17.29.02-.05.22-.25.07-.1-.04.04-.08.08-.12.12-.39.38-.8.69-1.14,1.12-.92,1.18-.85,2.98.51,3.81.67.41,1.68.17,2.05-.54s.18-1.61-.54-2.05c-.09-.06-.08-.05.04.04.11.07.19.16.25.28-.12-.2.1.32.05.15-.07-.28.01.17,0,.17,0,0,0-.21,0-.21,0,0-.07.44,0,.16s-.06.13-.06.13c-.01-.02.11-.18.12-.19-.04.1-.21.25-.04.07.5-.54,1.1-.92,1.49-1.58.25-.43.4-.92.41-1.42,0-.24-.03-.52-.11-.75-.16-.47-.41-.74-.81-1.03-.64-.46-1.28-.92-1.92-1.39s-1.74-.15-2.05.54l-1.79,3.87c-.17.37-.26.74-.15,1.16.1.35.37.73.69.9.66.35,1.7.22,2.05-.54h0Z"/><path class="cls-29" d="m606.17,461.39c1.96,0,1.96-3.05,0-3.05s-1.96,3.05,0,3.05h0Z"/><path class="cls-29" d="m601.73,468.6c1.62.23,3.26.14,4.81-.44s2.89-1.44,3.94-2.67c.51-.6.63-1.54,0-2.12s-1.52-.58-2.12,0c-.12.11-.09.09.08-.05-.14.08-.11.07.1-.02-.06.02-.12.04-.19.06l.21-.02c-.07,0-.13,0-.2,0,.24.04.27.05.11.01-.29-.1.3.15-.04-.02-.09-.06-.06-.03.11.08-.11-.12-.09-.09.05.08-.08-.14-.07-.11.02.1-.02-.04-.03-.09-.04-.14-.03-.11-.02-.06.01.16,0-.06,0-.13,0-.19-.04.24-.04.28,0,.12.05-.15.04-.12-.04.1l-2.36.3c.33.4.66.8.99,1.2.5.61,1.61.56,2.12,0,.59-.65.54-1.47,0-2.12-.33-.4-.66-.8-.99-1.2-.6-.73-1.94-.5-2.36.3-.69,1.31-.33,2.87.88,3.73,1.11.79,2.7.54,3.65-.37l-2.12-2.12c-.2.24-.42.46-.64.68-.12.11-.25.22-.37.32-.19.16.05-.02.04-.03,0,0-.16.12-.18.13-.26.18-.53.34-.8.49-.15.08-.3.15-.45.22-.17.08-.04.03.05-.02-.08.04-.17.07-.26.1-.3.11-.6.2-.91.28-.14.04-.29.07-.44.1-.07.01-.15.03-.22.04-.36.07.22-.02.01,0-.32.03-.63.05-.95.05-.15,0-.3,0-.45-.01-.11,0-.68-.08-.27-.02-.42-.06-.78-.07-1.16.15-.31.18-.61.54-.69.9-.16.71.22,1.73,1.05,1.85h0Z"/><path class="cls-29" d="m609.42,482.3c1.25.13,2.41-.36,3.52-.87.47-.21.8-.37,1.31-.51.43-.12.88-.14,1.27-.04,2.18.55,3.23,2.85,4.14,4.77.35.73,1.4.92,2.05.54.75-.44.89-1.32.54-2.05-1.22-2.57-2.72-5.11-5.58-6.05-1.31-.43-2.71-.3-3.97.2-.56.22-1.27.57-1.73.75-.27.1-.55.19-.83.25-.12.03.02.02-.19.03-.17,0-.35,0-.52-.02-.81-.08-1.5.75-1.5,1.5,0,.88.69,1.42,1.5,1.5h0Z"/><path class="cls-29" d="m594.9,474.72c-2.3-.84-5.15.32-6.28,2.47-.37.71-.2,1.69.55,2.08.7.37,1.69.21,2.08-.55.1-.18.21-.36.33-.52l-.24.31c.19-.24.41-.46.66-.65l-.31.24c.27-.2.55-.37.85-.5l-.36.15c.33-.14.66-.23,1.01-.28l-.4.05c.33-.04.66-.04.98,0l-.4-.05c.25.04.48.09.72.18.35.13.86.03,1.17-.15s.62-.55.7-.91c.2-.86-.26-1.58-1.06-1.87h0Z"/><path class="cls-29" d="m590.28,484.98c.52.63,1.35.93,2.15.98s1.67-.3,2.22-.88.86-1.41.79-2.22c-.04-.48-.15-.89-.37-1.33s-.56-.72-.94-1.01l-1.54,2.63c.97.65,1.93,1.3,2.9,1.96.66.45,1.72.15,2.08-.55.41-.77.16-1.61-.55-2.08-.97-.65-1.93-1.3-2.9-1.96-.66-.45-1.72-.15-2.08.55-.19.35-.28.78-.15,1.17s.37.65.7.91l.05.04-.31-.24c.08.07.15.14.21.22l-.24-.31c.07.1.13.2.18.32l-.15-.36c.05.14.09.27.11.42l-.05-.4c.02.15.01.29,0,.43l.05-.4c-.02.12-.05.24-.1.36l.15-.36c-.05.11-.11.22-.18.32l.24-.31c-.07.08-.14.15-.22.22l.31-.24c-.1.07-.2.13-.32.18l.36-.15c-.12.04-.23.07-.36.09l.4-.05c-.15.02-.29.02-.43,0l.4.05c-.14-.02-.28-.06-.41-.11l.36.15c-.11-.05-.22-.11-.31-.19l.31.24c-.08-.07-.15-.14-.22-.22-.23-.28-.73-.45-1.08-.45-.37,0-.82.17-1.08.45s-.46.67-.45,1.08c.02.43.18.75.45,1.08h0Z"/><path class="cls-29" d="m596.33,483.99l-3.1-.28c-.63-.06-1.33.51-1.47,1.12-.15.65.09,1.39.7,1.72.1.05.19.11.29.17.11.07.32.3.04,0,.13.13.29.25.42.38.05.05.18.27.25.29l-.12-.16c.04.05.07.1.11.16.11.17.22.35.31.53.17.34-.08-.26.01.03.03.09.06.18.09.27.06.2.1.4.14.6.02.12.01.06-.02-.17,0,.06.01.13.02.19,0,.09,0,.19,0,.28s-.01.19-.01.28c-.02.17,0,.13.02-.12,0,.06-.02.12-.03.19l1.87-1.06c-.91-.32-1.81-.64-2.72-.96-.71-.25-1.52.23-1.8.88-.32.75,0,1.44.62,1.9,1.34,1.02,2.69,2.03,4.03,3.05l1.17-2.78c-1.23-.36-2.46-.73-3.68-1.09-.76-.23-1.69.27-1.87,1.06s.25,1.63,1.06,1.87c1.23.36,2.46.73,3.68,1.09.73.22,1.51-.2,1.8-.88.32-.75,0-1.44-.62-1.9-1.34-1.02-2.69-2.03-4.03-3.05l-1.17,2.78c.91.32,1.81.64,2.72.96.73.26,1.73-.3,1.87-1.06.47-2.48-.63-5.14-2.9-6.37l-.77,2.84,3.1.28c.8.07,1.56-.75,1.52-1.52-.04-.89-.67-1.45-1.52-1.52h0Z"/><path class="cls-29" d="m612.62,501.33c1.04.54,2.15.61,3.29.35,1.04-.23,1.96-.82,3-1.08,1.87-.46,3.84.68,5.42,1.55.65.36,1.48.22,1.94-.39.48-.64.36-1.37-.12-1.97-.84-1.05-1.68-2.1-2.52-3.15-.51-.63-1.59-.53-2.12,0-.63.63-.51,1.49,0,2.12.84,1.05,1.68,2.1,2.52,3.15l1.82-2.36c-1.93-1.06-4.05-2.14-6.32-2.05-1.15.05-2.14.43-3.19.86-.74.31-1.65.65-2.2.37-.72-.37-1.63-.18-2.05.54-.39.68-.18,1.68.54,2.05h0Z"/><path class="cls-29" d="m616.61,516.01c.82.91,1.64,1.82,2.46,2.73.24.26.71.46,1.06.44.39-.02.79-.15,1.06-.44.31-.33.58-.76.67-1.21.09-.48.1-.96-.04-1.44-.28-.91-.98-1.68-1.92-1.92-.59-.15-1.21.06-1.58.54s-.42,1.14-.12,1.67c.43.74.86,1.49,1.29,2.23.19.33.54.59.9.69s.84.05,1.16-.15.6-.51.69-.9.05-.8-.15-1.16c-.43-.74-.86-1.49-1.29-2.23l-1.69,2.2c.06.01.12.03.17.06l-.36-.15c.09.04.17.08.24.14l-.3-.23c.08.07.16.14.22.22l-.23-.3c.07.09.13.19.18.3l-.15-.36c.05.12.09.24.1.37l-.05-.4c.01.12.02.23,0,.35l.05-.4c-.01.1-.04.2-.08.3l.15-.36c-.04.09-.08.16-.14.24l.23-.3s-.05.05-.07.08h2.12c-.82-.91-1.64-1.82-2.46-2.73-.25-.28-.7-.44-1.06-.44s-.81.16-1.06.44-.46.66-.44,1.06.16.75.44,1.06h0Z"/><path class="cls-29" d="m612.79,529.57l.73,1.76c.28.67.5,1.4,1.03,1.93.38.38.93.63,1.47.62.66,0,1.21-.37,1.58-.9.67-.97.22-2.42-.96-2.72-.38-.1-.81-.05-1.16.15-.31.18-.61.54-.69.9-.09.38-.07.82.15,1.16s.51.59.9.69c.02,0,.04,0,.06.02l-.36-.15s.03.02.05.03l-.3-.23s.02.02.03.03l-.23-.3s.02.03.02.04l-.15-.36s.01.05.02.07l-.05-.4s0,.05,0,.08l.05-.4s-.02.07-.03.11l.15-.36s-.05.09-.08.13l.23-.3s-.06.06-.09.08l.3-.23s-.05.03-.08.05l.36-.15s-.06.02-.09.02l.4-.05s-.06,0-.09,0l.4.05s-.08-.02-.12-.03l.36.15c-.07-.03-.12-.06-.18-.1l.3.23c-.05-.05-.1-.1-.15-.15l.23.3c-.11-.14-.19-.3-.26-.47l.15.36c-.34-.81-.68-1.63-1.01-2.44-.05-.2-.14-.37-.27-.51-.11-.16-.25-.29-.42-.39-.32-.19-.8-.27-1.16-.15s-.71.34-.9.69-.3.79-.15,1.16h0Z"/><path class="cls-29" d="m621.42,535.43c1.93,0,1.93-3,0-3s-1.93,3,0,3h0Z"/><path class="cls-29" d="m610.32,544.31c-.81.58-1.39,1.34-1.67,2.3-.23.8-.24,1.75.05,2.53.39,1.08,1.12,1.91,2.2,2.32,1.23.47,2.74-.15,3.07-1.47.15-.59.06-1.25-.26-1.77-.18-.3-.44-.55-.74-.72-.45-.26-.92-.26-1.42-.18-.35.06-.72.4-.9.69-.19.32-.27.8-.15,1.16s.34.71.69.9c.38.2.74.22,1.16.15h.04c-.13.01-.27.03-.4.05.04,0,.08,0,.12,0l-.4-.05s.07.02.11.03l-.36-.15s.06.03.09.06l-.3-.23s.05.05.08.08l-.23-.3c.04.05.07.11.1.17l-.15-.36c.02.07.04.13.05.2l-.05-.4c0,.07,0,.14,0,.21l.05-.4c0,.07-.03.14-.05.2l.15-.36c-.02.05-.05.1-.08.14l.23-.3s-.05.06-.09.09l.3-.23c-.06.04-.12.07-.18.1l.36-.15c-.08.03-.15.05-.23.06l.4-.05c-.08,0-.16,0-.24,0l.4.05c-.13-.02-.24-.05-.36-.09l.36.15c-.16-.07-.31-.16-.45-.26l.3.23c-.13-.1-.24-.22-.34-.35l.23.3c-.13-.17-.23-.34-.31-.53l.15.36c-.09-.23-.15-.46-.19-.7l.05.4c-.03-.24-.03-.48,0-.73l-.05.4c.04-.26.1-.51.2-.76l-.15.36c.09-.21.2-.4.34-.58l-.23.3c.13-.16.27-.31.44-.44l-.3.23s.06-.05.09-.07c.33-.23.58-.5.69-.9.1-.36.05-.84-.15-1.16s-.51-.6-.9-.69-.83-.08-1.16.15h0Z"/><path class="cls-29" d="m606.28,560.24c-1.66-.17-3.39.03-4.96.6-.45.16-.78.42-.97.87-.18.42-.18.94.08,1.34.9,1.39,1.8,2.77,2.7,4.16.43.66,1.35.99,2.05.54.66-.42,1-1.35.54-2.05-.9-1.39-1.8-2.77-2.7-4.16l-.9,2.2c.69-.25,1.39-.42,2.12-.52l-.4.05c.81-.1,1.63-.11,2.44-.03.36.04.82-.19,1.06-.44.26-.26.46-.69.44-1.06s-.14-.79-.44-1.06c-.31-.28-.64-.4-1.06-.44h0Z"/><path class="cls-29" d="m593.47,577.28c1.43.07,2.86.14,4.29.21.79.04,1.54-.72,1.5-1.5-.04-.85-.66-1.46-1.5-1.5-1.43-.07-2.86-.14-4.29-.21-.79-.04-1.54.72-1.5,1.5.04.85.66,1.46,1.5,1.5h0Z"/><path class="cls-29" d="m591.82,583.32c1.93,0,1.93-3,0-3s-1.93,3,0,3h0Z"/><path class="cls-29" d="m598.38,583.32h.9c.21,0,.4-.04.58-.13.19-.06.35-.16.48-.31.15-.14.25-.3.31-.48.09-.18.14-.37.13-.58l-.05-.4c-.07-.25-.2-.47-.39-.66l-.3-.23c-.23-.14-.49-.2-.76-.2h-.9c-.21,0-.4.04-.58.13-.19.06-.35.16-.48.31-.15.14-.25.3-.31.48-.09.18-.14.37-.13.58l.05.4c.07.25.2.47.39.66l.3.23c.23.14.49.2.76.2h0Z"/><path class="cls-29" d="m581.64,588.28c1.34,1.24,2.66,2.52,4.04,3.71.83.71,1.86,1.26,2.99.95.54-.15,1.02-.46,1.35-.9.44-.56.53-1.18.41-1.87-.13-.78-1.13-1.28-1.85-1.05-.84.27-1.19,1.01-1.05,1.85-.03-.17-.05-.33,0-.5l.1-.22c-.06.1-.05.09.03-.03.18-.25-.14.08.1-.1.19-.15.03-.03-.02,0-.15.07.37-.12.09-.05.05-.01.36-.01.16-.03.08,0,.33.08.12.02-.05-.02-.13-.06-.19-.06.12,0,.27.13.05,0-.06-.03-.11-.07-.16-.11-.16-.1.21.18.07.05-.05-.04-.1-.09-.15-.13-.27-.23-.52-.48-.78-.72-1.06-.98-2.12-1.95-3.19-2.93-.58-.53-1.56-.61-2.12,0-.53.58-.62,1.56,0,2.12h0Z"/><path class="cls-29" d="m462.79,442.16c.08.03.17.05.25.08.06.02.29.13.06.02s0,0,.06.03c.08.04.15.08.23.12.14.07.27.15.41.24.06.04.12.08.18.12.04.02.07.05.1.08.09.07.05.03-.13-.1.18.22.46.4.66.61.05.05.1.11.14.16.08.1.18.3-.02-.04.08.13.19.25.27.39.16.25.26.55.43.79-.19-.26-.08-.21-.02-.04.03.07.05.13.07.2.05.15.09.3.13.45.03.14.06.27.08.41.06.3-.03-.35,0-.07,0,.08.01.17.02.25,0,.14,0,.28,0,.42s-.08.7,0,.19c-.06.41-.07.78.15,1.16.18.31.54.61.9.69.71.16,1.72-.22,1.85-1.05.25-1.72-.06-3.44-1-4.91s-2.33-2.56-3.99-3.08c-.75-.23-1.67.28-1.85,1.05-.19.82.25,1.6,1.05,1.85h0Z"/><path class="cls-29" d="m458.11,460.71c.06-.46,0-.96-.14-1.4-.19-.59-.47-1.06-.86-1.54-.29-.36-.68-.67-1.08-.9-.26-.15-.53-.26-.81-.35-.29-.1-.6-.13-.91-.16-.36-.04-.82.2-1.06.44-.26.26-.46.69-.44,1.06s.14.79.44,1.06l.3.23c.23.14.49.2.76.2.03,0,.05,0,.08,0l-.4-.05c.21.03.42.09.61.17l-.36-.15c.21.09.4.2.58.34l-.3-.23c.19.15.36.32.5.5l-.23-.3c.14.19.26.39.36.61l-.15-.36c.08.19.14.39.17.6l-.05-.4c.03.21.03.41,0,.62-.05.35.2.82.44,1.06.26.26.69.46,1.06.44s.79-.14,1.06-.44l.23-.3c.14-.23.2-.49.2-.76h0Z"/><path class="cls-29" d="m429.43,504.5c.99.5,1.99,1,2.98,1.5.36.18.76.26,1.16.15.35-.1.73-.37.9-.69.18-.35.28-.77.15-1.16-.12-.36-.34-.72-.69-.9-.99-.5-1.99-1-2.98-1.5-.36-.18-.76-.26-1.16-.15-.35.1-.73.37-.9.69-.18.35-.28.77-.15,1.16.12.36.34.72.69.9h0Z"/><path class="cls-29" d="m438.55,513.99c1.93,0,1.93-3,0-3s-1.93,3,0,3h0Z"/><path class="cls-29" d="m441.55,501.59c1.93,0,1.93-3,0-3s-1.93,3,0,3h0Z"/><path class="cls-29" d="m439.7,484.56c.17.04.35.1.52.16l.08.03c.15.06.11.04-.11-.05.05.04.14.07.2.1.15.07.29.15.43.24.08.05.15.1.22.15.04.03.07.05.11.08.09.07.05.03-.13-.1.09.12.26.22.37.32.12.11.23.23.34.35.06.06.11.15.17.2l-.13-.16s.07.09.1.14c.09.13.18.27.27.41s.16.28.23.43c.04.07.07.17.11.24-.06-.1-.11-.3-.04-.07.11.32.19.64.26.97.06.28-.03-.36,0-.05,0,.07.01.14.02.22,0,.16.01.32,0,.48,0,.09-.01.17-.02.26-.02.32.07-.36,0-.05-.04.17-.07.34-.12.51-.21.76.26,1.67,1.05,1.85s1.62-.24,1.85-1.05c1-3.59-1.41-7.56-4.99-8.47-.76-.19-1.66.25-1.85,1.05s.23,1.64,1.05,1.85h0Z"/><path class="cls-29" d="m451.31,470.23c1.93,0,1.93-3,0-3s-1.93,3,0,3h0Z"/><path class="cls-29" d="m432.34,542.41c1.02-1.89,2.05-3.79,3.07-5.68h-2.59c.82,1.27,1.64,2.53,2.46,3.8.29.45.75.74,1.3.74.48,0,1.09-.28,1.3-.74.91-2.05,1.82-4.09,2.72-6.14.32-.72.23-1.65-.54-2.05-.65-.34-1.71-.23-2.05.54-.91,2.05-1.82,4.09-2.72,6.14h2.59c-.82-1.27-1.64-2.53-2.46-3.8-.59-.91-2.03-1.03-2.59,0-1.02,1.89-2.05,3.79-3.07,5.68-.37.69-.19,1.67.54,2.05s1.65.2,2.05-.54h0Z"/><path class="cls-29" d="m442.85,563.56c.74-1.16,1.49-2.31,2.23-3.47l-2.05.54c1.01.67,2.01,1.34,3.02,2.01.66.44,1.69.15,2.05-.54.4-.75.16-1.59-.54-2.05-1.01-.67-2.01-1.34-3.02-2.01-.7-.46-1.63-.11-2.05.54-.74,1.16-1.49,2.31-2.23,3.47-.43.66-.16,1.69.54,2.05.75.39,1.6.17,2.05-.54h0Z"/><path class="cls-29" d="m454.65,584.05c1.01.12,1.72-2.24,2.18-2.11.47.14.87,2.96-.81,4.22-.83.62-2.08.79-3.07.24-1.44-.79-1.86-2.83-1.13-4.05.55-.92,1.76-1.36,2.02-1.11.23.23-.41.88-.16,1.76.13.45.51,1,.97,1.05Z"/><path class="cls-29" d="m476.87,608.02c1.02-.66,3.41.09,4.01,1.73.77,2.11-1.87,4.39-3.12,4.11-1.52-.34-2.42-4.85-.89-5.84Z"/><path class="cls-29" d="m469.33,600.04c1.93,0,1.93-3,0-3s-1.93,3,0,3h0Z"/><path class="cls-29" d="m464.45,603.2c2.89,0,2.9-4.5,0-4.5s-2.9,4.5,0,4.5h0Z"/><path class="cls-29" d="m467.07,589.95c-2,1.46-4,2.92-6.01,4.38-.33.24-.58.5-.69.9-.1.36-.05.84.15,1.16.4.63,1.37,1.03,2.05.54,2-1.46,4-2.92,6.01-4.38.33-.24.58-.5.69-.9.1-.36.05-.84-.15-1.16-.4-.63-1.37-1.03-2.05-.54h0Z"/><path class="cls-29" d="m520.52,617.11c.49,1.54-1.13,3.39-2.76,3.07-1.26-.24-1.95,1.33-.87,2.06,1.55,1.05,3.09,2.09,4.64,3.14l-.56-.97c.1,1.43-1.15,2.59-2.56,2.53-.61-.02-1.13.54-1.13,1.13,0,.67.52,1.06,1.13,1.13,1.99.23,3.98.45,5.98.68.6.07,1.13-.57,1.13-1.13,0-.67-.52-1.06-1.13-1.13-1.99-.23-3.98-.45-5.98-.68v2.25c2.13.09,4.24-1.48,4.71-3.59.12-.52.23-1.28-.06-1.77-.31-.53-1.16-.92-1.66-1.25-1.13-.76-2.26-1.53-3.38-2.29l-.87,2.06c3.22.62,6.57-2.54,5.53-5.84-.43-1.38-2.61-.79-2.17.6h0Z"/><path class="cls-29" d="m510.41,619.83c-.75,1.11-1.01,2.97-.09,3.72.68.56,1.93.46,2.17-.02.28-.57-1.09-1.24-1.05-2.35.06-1.69,3.28-2.57,3.15-2.92-.12-.31-2.92-.29-4.18,1.57Z"/><path class="cls-29" d="m559.67,613c-2.04-.78-2.42-1.05-2.42-1.05-.78-.57-1.8-1.76-1.45-2.68.2-.52.82-.93,1.37-.89,1.1.07,2.09,1.92,2.5,4.62Z"/><path class="cls-29" d="m527.25,623.01c1.93,0,1.93-3,0-3s-1.93,3,0,3h0Z"/><path class="cls-29" d="m570.21,600.98c1.24-.67,2.49-1.34,3.73-2.01l-2.26-1.3c-.38,3.25-.76,6.5-1.15,9.75-.09.76.76,1.56,1.5,1.5,1.17-.1,2.34-.2,3.51-.29.78-.07,1.54-.64,1.5-1.5-.03-.76-.66-1.57-1.5-1.5-1.17.1-2.34.2-3.51.29l1.5,1.5c.38-3.25.76-6.5,1.15-9.75.14-1.2-1.36-1.78-2.26-1.3-1.24.67-2.49,1.34-3.73,2.01-.71.38-.94,1.37-.54,2.05.42.72,1.34.92,2.05.54h0Z"/><path class="cls-4" d="m567.37,534.03c-.92-2.43-2.3-4.2-2.91-4.97-.75-.95-1.45-1.66-4.69-4.6-1.63-1.48-3.02-2.72-4.04-3.62,1.38-1.06,3.36-2.76,5.28-5.24,1.62-2.1,7.18-9.31,5.64-17.74-.71-3.89-2.75-7.08-3.57-8.37-.9-1.4-1.76-2.75-3.33-4.17-.79-.71-4.32-3.89-9.25-4.27-1.98-.15-3.94-.48-5.92-.65-.68-.06-2.09-.17-2.48-1.03-.14-.31-.11-.63-.05-.86-.16-2.72-.28-5.55-.32-8.48-.06-3.52-.02-6.89.1-10.11-.52-.3-1.06-.57-1.61-.82,0,0,0,0,0,0-4.21-1.9-6.22-1.03-8.66-2.26-3.25-1.65-3.97-5.38-4.38-5.2-.61.27,2.29,6.63,3.45,14.92.53,3.8.55,6.98.48,9.08-.04.67-.21,1.69-.84,2.71-.15.24-.24.39-.39.53-.82.77-2.06.24-3.77.21-3.12-.04-4.14.35-4.9-.43-.6-.62-.6-1.53-.59-2,.1-6.77,2.8-15.79-.05-18.38-.55-.5-1.52-.64-3.45-.92-1.89-.27-5.03-.73-6.57.76-.99.96-.54,1.99-.48,6.92.05,4.77-.32,8.75-.59,11.73-.12,1.31-.24,2.38-.32,3.03-.13.01-.31.03-.54.06-.4.04-2.86.28-5.66.32-3.06.05-6.05-.14-7.14-.21-3.97-.26-5.74-.6-9.07-.33-.84.07-1.53.15-1.99.22-.21.12-.62.35-1.02.76-1.92,1.91-1.94,5.62-.48,8.06.4.66.83,1.12,1.08,1.35l19.01.62c-.87,8.35-1.55,15.42-2.05,20.79-1.91,20.67-2.36,29.87-2.59,35.68-.11,2.89-.18,5.28-.22,6.87-7.41-.16-14.83-.32-22.24-.49-.97,2.92-1.94,5.84-2.91,8.76,9.18,1.59,18.37,3.18,27.55,4.77-.65-.07-1.29-.14-1.92-.22.36,4.41.41,9.68-.32,15.57-.37,3.02-.9,5.8-1.51,8.33,2.08-.47,4.17-.94,6.25-1.41,2.69.07,5.39.14,8.08.22.46-2.3.84-4.83,1.08-7.57.47-5.39.26-10.2-.21-14.22-2.66-.03-5.47-.15-8.41-.39,0,0,0,0,0,0,1.79.08,3.93.17,6.37.23,3.46.09,6.61.13,9.37.12-.83,7.74-1.65,15.49-2.48,23.23,2.98-.22,5.96-.43,8.94-.65l5.48-22.83h0c9.12-.32,13.83-.52,16.44-1.39,3.07-1.03,10.75-3.72,15.83-11.35.96-1.44,3.44-5.48,4.2-11.19.32-2.4.72-5.72-.7-9.46Zm-52.62-37.63c.07-2.19.16-4.35.27-6.49,3,0,8.32,0,15.78.05,4.72.04,9.81.13,15.19,2.6,1.49.68,2.23,1.19,2.85,1.78,3.43,3.23,3.77,9.01,2.32,13.25-.37,1.07-1.41,3.97-4.2,6.11-3.3,2.53-7.15,2.56-11.85,2.6-.13,0,.03,0-6.79-.43-4.56-.29-6.69-.42-9.42-.54-1.79-.08-3.25-.13-4.22-.16-.15-6.04-.13-12.3.07-18.76Zm33.07,54.6c-2.88,2.64-5.95,3.18-11.58,4.16-6,1.05-10.96.67-16.7.19-3.82-.32-6.99-.79-9.21-1.16.23-7.22.88-14.93,2.15-23.03.3-1.91.62-3.78.97-5.62,8.16-.87,14.86-.34,19.5.32,8.17,1.17,12.2,3.11,15.24,5.51,1.54,1.22,2.97,2.38,3.88,4.43,2.23,5.02-.31,11.58-4.25,15.19Z"/><path class="cls-14" d="m217.89,389.56c-.95-4.26-1.07-12.08,2.92-14.04,4.35-2.14,12.17,3.37,15.57,9.55,2.25,4.09,4.51,12,.39,15.26-3.88,3.07-11.5.52-15.38-3.56-2.43-2.56-3.11-5.41-3.5-7.21Z"/><path class="cls-39" d="m341.47,427c3.3,1.67,5.27,3.55,6.48,5,1.08,1.3,3.16,4.19,3.16,4.19,0,0,4.22,1.9,4.98,2.26,2.31,1.07,5.59,3.06,9.75,7.1-.84.58-1.88,1.5-2.46,2.9-.98,2.35-.06,4.53-.75,4.84-.65.29-1.25-1.71-3.32-2.69-2.87-1.35-7.27-.16-9.7,1.59-.27.2-.4.32-.67.37-2.06.4-4.77-4.94-6.77-9.6.42-1.31.78-2.86.96-4.62.51-4.93-.7-8.96-1.66-11.34Z"/><path class="cls-44" d="m344.85,374.27c4.61-.91,6.62-3.14,7.95-2.1,1.53,1.2-.95,4.24-.8,11.69.05,2.71.42,4.14-.64,5.56-1.22,1.65-3.66,2.37-5.54,2.42-1.9.05-2.35-.71-3.05-.32-2.32,1.29.4,10.59.88,12.26,2.35,8.05,4.54,9.66,3.45,11.85-1.66,3.34-9.06,4.17-14.37,1.73-6.43-2.96-8.46-10.21-9.25-13.02-3.63-12.97,2.16-29.11,9.8-30.8,3.51-.78,5.58,1.91,11.57.73Z"/><path class="cls-17" d="m391.76,521.99c1.18-1.52-1.18-3.21-1.61-10.32-.27-4.41.79-9.82,2.89-20.64.5-2.55,1-4.97.96-8.39-.03-3.08-.08-8.65-2.89-10-.92-.44-1.43-.1-6.1.97-4.31.98-6.49,1.47-7.71,1.29-4.3-.63-7.02-4.76-7.71-5.81-2.41-3.66-1.01-5-3.21-10-.98-2.22-3.11-7.06-7.71-9.35-2.7-1.35-3.22-.3-7.71-1.94-3.43-1.24-6.68-2.42-7.71-5.16-.33-.89-.35-1.71.96-7.1,1.46-5.99,1.65-5.66,1.93-7.42.6-3.73.65-10.82-2.89-12.9-1.92-1.13-3.18.22-6.1-.97-3.63-1.47-4.28-4.6-5.14-4.52-3.57.34-17.5,56.97,12.34,90.24,16.58,18.49,43.84,26.59,47.42,22Z"/><path class="cls-29" d="m395.82,564.47l-1.68-.96c-7.99-4.57-16.23-8.95-24.48-13.01-10.13-4.98-20.58-9.63-31.06-13.82l-.25-.1-.2-.18c-4.43-4.05-7.28-8.53-8.48-13.32-.92-3.69-.68-6.77-.42-10.03.25-3.19.53-6.81-.25-11.71-.43-2.73-1.12-5.44-2.05-8.06-6.51-5.62-11.92-12.18-16.09-19.49-3.26-5.72-8.19-14.38-8.28-25.92-.02-2.55.21-3.63.5-5.01.26-1.22.58-2.75.84-6.05.61-7.72-.13-11.92-.84-15.98-.69-3.91-1.34-7.61-.72-13.85.37-3.69.99-6.32,1.5-8.43.79-3.32,1.22-5.15.15-8.23-.89-2.54-2.06-3.73-3.31-4.99-1.29-1.3-2.75-2.78-3.76-5.65-2.79-7.88.51-18.8,7.5-24.85,4.4-3.81,9.35-4.87,12.63-5.57.44-.1.94-.2,1.37-.31-2.12-.92-6.8-1.95-9.82-2.61-7.88-1.74-10.61-2.45-10.48-4.65.06-.95.16-2.72,9.74-3.34,6.77-.44,11.38.49,15.84,1.39,4.13.83,8.03,1.62,13.37,1.19,2.61-.21,5.2-.88,10.35-2.22,2.45-.63,9.91-2.57,22.91-8.31,10.41-4.6,15.64-6.9,18.66-9.18,5.35-4.02,8.52-8.14,11.88-12.5,3.84-4.99,7.82-10.15,15.19-14.97,2.23-1.45,4.52-2.72,6.63-3.66,2.66-1.19,7.12-2.75,18.07-4.31,4.91-.7,7.61-1.08,11.7-1.3,5.75-.31,12.91-.7,21.62,1.33,2.82.65,4.09,1.16,5.02,1.54.88.35,1.36.55,2.83.69,3.83.38,6.28-.45,8.88-1.32,2.6-.87,5.3-1.77,9.35-1.59,6.23.28,10.76,2.89,12.24,3.75,1.64.95,3.43,2.28,11.58,10.91,2.21,2.34,3.6,3.86,4.62,4.96,1.67,1.81,2.23,2.42,3.63,3.64,3.51,3.06,6.55,4.92,10.4,7.27,2.15,1.32,3.85,2.27,5.82,3.38,2.25,1.26,4.8,2.69,8.63,5.01,5.47,3.31,6.94,4.39,7.71,6.6,1.57,4.54-1.58,9.02-4.37,12.97-6.59,9.34-14.12,12.33-19.29,13.19-.21.04-.5.12-.81.22-1.08.33-2.72.83-4.12-.14-1.77-1.21-1.71-3.45-1.64-5.83.02-.59.03-1.2.03-1.84-.02-1.92-.1-7.74-2.17-9.96-1.56-1.67-4.56-1.13-8.04-.52-4.43.78-9.45,1.68-13.63-1.58-1.55-1.21-2.09-2.34-2.6-3.42-.4-.85-.82-1.72-1.81-2.94-3.9-4.77-9.78-6.42-18-7.53-11.44-1.55-25.66-3.47-45.45.63-5.41,1.12-15.48,3.21-27.29,8.91-3.34,1.61-4.72,2.5-9.32,5.43-3.16,2.02-7.94,5.07-15.94,9.98-13.23,8.14-20.72,5-27.59,13.11-1.7,2-4.5,5.31-5.15,10.13-.39,2.85.31,3.86-.4,8.22,0,0-.69,4.22-3.61,7.82-.26.32-.52.57-.9.67-1.2.3-2.19-1.35-2.96-.99-.3.14-.41.6-.64,1.53-.33,1.32-.18,1.82-.48,2.02-.46.29-1.18-.58-2.33-1.21-2.61-1.42-4.34.08-6.43-1.37-.75-.52-1.1-1.12-1.75-2.21-1.17-1.98-2.01-4.83-1.23-5.37.5-.34,1.14.58,3.13,1.21.8.25,2.82.86,5.06.16.53-.16,2.71-.88,3.86-2.98.08-.15,1.4-2.63.4-3.55-.74-.68-2.72-.45-3.13.73-.27.78.19,1.85,1.2,2.42-.31-.08-.79-.21-1.37-.4-4.33-1.42-4.99-2.97-6.59-3.06-3.73-.23-7.88,7.74-8.51,12.53-.08.61-.55,4.54-.55,4.54h0c.05,1.83.47,3.42.99,5.41.77,2.92,1.72,6.55,1.85,12.57.15,6.69-.81,12.23-2.27,20.61l-.07.42c-.6,3.41-1.84,10.49-1.19,18.88.16,2.14.4,3.62,1.16,5.3,1.98,4.39,6.21,6.77,9.01,8.34,2.3,1.29,3.45,1.6,4.37,1.86.94.26,1.83.5,3.17,1.5,3.03,2.27,4.2,5.12,7.32,17.91.52,2.12.94,3.9,1.3,5.41,1.39,5.89,1.82,7.67,3.4,10.7,1.39,2.66,3.11,5.97,6.62,8.51,2.37,1.72,4.33,2.2,7.05,2.87,1.19.29,2.53.63,4.08,1.1,8.77,2.71,14.62,7.17,15.26,7.67,11.42,8.94,5.86,33.94,3.88,41.39l-.5,1.87Zm-55.87-30.47c10.47,4.19,20.9,8.84,31.02,13.81,7.73,3.8,15.44,7.87,22.94,12.13,1.84-7.64,5.98-29.11-3.31-36.38-.24-.19-5.9-4.57-14.3-7.17-1.46-.45-2.77-.77-3.92-1.06-2.81-.69-5.24-1.3-8.08-3.35-4.08-2.95-6.07-6.77-7.52-9.55-1.75-3.37-2.23-5.39-3.65-11.4-.36-1.51-.78-3.28-1.29-5.39-3.03-12.4-4.04-14.61-6.21-16.23-.88-.66-1.34-.78-2.16-1.01-1.03-.28-2.43-.66-5.05-2.13-3.14-1.77-7.88-4.43-10.27-9.72-.94-2.08-1.23-3.88-1.41-6.31-.67-8.77.61-16.1,1.23-19.63l.07-.42c1.43-8.21,2.37-13.63,2.23-20.03-.12-5.66-.99-8.96-1.75-11.87-.93-3.57-1.67-6.39-.45-11.41,2.12-8.74,6.53-14.23,6.72-14.46.54-.66,1.07-1.26,1.59-1.84,1.28-1.43,2.5-2.79,3.72-5.03,1.36-2.5,2.28-5.26,2.73-8.21l.27-1.79,1.7.61c5.97,2.13,11.9,2.86,17.64,2.18,6.42-.76,11.02-3.24,26.39-12.69,7.97-4.9,12.74-7.95,15.89-9.96,4.58-2.92,6.13-3.91,9.62-5.6,12.13-5.87,22.44-8,27.98-9.15,20.28-4.2,34.79-2.24,46.44-.66,7.01.95,14.9,2.47,19.91,8.6,1.23,1.5,1.76,2.64,2.2,3.55.46.98.75,1.57,1.74,2.35,3.14,2.44,7.28,1.71,11.29,1,3.97-.7,8.08-1.43,10.74,1.42,2.54,2.72,2.92,7.82,2.97,11.97,0,.69,0,1.34-.03,1.96-.04,1.33-.08,2.98.34,3.27.23.16,1.11-.11,1.58-.26.39-.12.79-.24,1.19-.31,4.6-.77,11.35-3.47,17.34-11.97,2.37-3.36,5.06-7.17,3.99-10.26-.39-1.12-1.23-1.87-6.43-5.02-3.78-2.29-6.31-3.71-8.54-4.96-2-1.12-3.73-2.09-5.92-3.43-3.97-2.43-7.1-4.35-10.8-7.57-1.53-1.33-2.16-2.02-3.87-3.88-1.01-1.1-2.4-2.61-4.59-4.93-8.48-8.98-9.83-9.75-10.91-10.38-1.33-.77-5.39-3.11-10.89-3.35-3.5-.15-5.82.62-8.28,1.44-2.78.93-5.66,1.89-10.11,1.45-1.89-.19-2.66-.5-3.64-.89-.88-.36-1.98-.8-4.58-1.4-8.3-1.93-15.22-1.55-20.79-1.25-3.96.21-6.61.59-11.43,1.28-11.94,1.7-15.82,3.43-17.28,4.08-1.38.61-3.57,1.71-6.22,3.43-6.95,4.54-10.6,9.28-14.46,14.29-3.33,4.33-6.78,8.8-12.45,13.07-3.3,2.48-8.63,4.84-19.25,9.53-13.22,5.84-20.85,7.82-23.36,8.47-5.32,1.38-7.99,2.07-10.86,2.3-5.76.46-10.05-.4-14.2-1.24-4.27-.86-8.69-1.75-15.06-1.34-1.81.12-3.66.35-5.05.6,1.76.5,4.23,1.04,6.23,1.49,8.61,1.9,13.1,3.02,13.07,5.8-.03,1.98-2.06,2.42-4.64,2.97-2.98.64-7.48,1.6-11.3,4.91-6.02,5.22-9,14.9-6.64,21.59.79,2.24,1.85,3.31,3.07,4.54,1.36,1.37,2.89,2.92,4,6.11,1.36,3.91.77,6.43-.06,9.91-.48,2.02-1.08,4.54-1.43,8.03-.58,5.82.04,9.32.69,13.03.71,4.05,1.52,8.63.88,16.73-.28,3.5-.62,5.13-.89,6.43-.27,1.29-.45,2.15-.43,4.37.08,10.76,4.59,18.68,7.88,24.46,4.06,7.12,9.35,13.5,15.74,18.96l.3.26.13.37c1.06,2.91,1.84,5.94,2.32,8.99.83,5.26.53,9.06.27,12.41-.24,3.14-.46,5.85.34,9.07,1.03,4.14,3.52,8.06,7.39,11.65Z"/><path class="cls-7" d="m354.3,359.45c5.3,2.32,2.32,17.17,1.15,21.59-.98,3.7-2.11,5.51-3.64,5.81-1.16.22-2.27-.48-3-1.08-.29,1.22-.57,2.44-.86,3.66-2.41-1.94-4.28-2.36-5.57-2.37-.67,0-1.52.1-2.36-.43-1.04-.66-1.45-1.92-1.63-2.48-.27-.84-.31-1.58-.3-2.04.54.45,1.55,1.17,3,1.51,2.29.52,4.14-.29,4.93-.65.77-.35,3.02-1.37,4.07-3.87.72-1.72.52-3.28.43-3.87-.07-.5-.35-2.02-1.71-3.87-2.45-3.31-5.02-3.11-5.38-4.63-.66-2.79,6.79-9.07,10.86-7.28Z"/><path class="cls-29" d="m357.38,353.95c-1.58,6.67-.64,15.17,0,20.97,1.09,9.85,3.07,27.73,16.39,41.28,4.07,4.14,8.13,6.8,10.92,8.39,2.02-3,4.8-7.38,7.71-12.9,6.96-13.18,10.23-24.47,13.17-34.83,1.55-5.46,3.44-12.79,5.14-21.61,2.42.19,6.12.35,10.6,0,8.85-.69,11.25-2.64,23.13-5.16,10.56-2.24,15.84-3.36,19.6-2.9,4.46.54,9.53,2.11,13.49-.65,1.02-.71,3.23-2.58,4.18-1.94.51.35.14,1.08.64,1.83.31.47,1.11,1.17,6.43.97,3.17-.12,4.32-.43,5.68.43.74.47.76.79,1.61,1.29,1.83,1.08,3.59.65,4.28.75,4.11.58,2.72,23.75,8.03,40.21,1.59,4.94,4.61,11.83,10.92,19.35,3.52-5.42,5.71-10.19,7.07-13.55,5.88-14.57,2.2-18.1,7.39-39.35,1.6-6.54,2.86-9.94,1.61-14.84,0,0-1.91-7.49-10.28-13.55-21.76-15.74-156.98-19.43-167.72,25.8Z"/><path class="cls-29" d="m537.79,345.94c-2.82-3.29-9.46-1.81-11.73-1.34-6.56,1.36-13.64,1.92-21.11,2.1,1.54,3.85,1.85,5.07,1.66,5.16-.35.17-2.07-4.01-4.11-3.87-.9.06-1.62.95-2.14,1.88-.97,7.87-1.95,24.9,6.75,43.11,4.47,9.38,10.13,16.18,14.62,20.7,3.52-5.42,5.71-10.19,7.07-13.55,5.88-14.57,2.2-18.1,7.39-39.35,1.79-7.35,4.07-11.96,1.61-14.84Z"/><path class="cls-2" d="m299.87,341.37c.08-1.37,8.01-1.91,8.35-1.94,12.9-.84,17.93,3.49,29.24,2.58,2.74-.22,5.36-.9,10.6-2.26,3.47-.9,10.88-2.97,23.13-8.39,10.53-4.65,15.8-6.98,18.96-9.35,11.87-8.93,13.62-18.69,26.99-27.42,3.16-2.06,5.62-3.19,6.43-3.55,2.02-.9,6.15-2.55,17.67-4.19,4.81-.68,7.54-1.07,11.57-1.29,6.03-.33,12.87-.65,21.21,1.29,5.51,1.28,4.73,1.93,8.03,2.26,7.99.78,10.46-3.25,18.31-2.9,5.75.25,10.03,2.66,11.57,3.55,1.37.79,2.96,1.88,11.25,10.64,5.92,6.26,6.02,6.68,8.35,8.71,3.54,3.07,6.52,4.92,10.6,7.42,4.66,2.85,7.33,4.08,14.46,8.39,5.37,3.25,6.5,4.15,7.07,5.81,1.32,3.81-1.57,7.92-4.18,11.61-1.77,2.5-7.83,10.83-18.31,12.58-1.12.19-2.74,1.09-3.86.32-1.41-.97-.93-3.51-.96-6.45-.03-2.3-.1-8.32-2.57-10.97-4.42-4.74-14.86,3.18-21.85-2.26-2.34-1.82-1.74-3.15-4.18-6.13-4.48-5.48-11.46-7.05-18.96-8.06-11.71-1.58-25.91-3.5-45.95.65-5.98,1.24-15.9,3.36-27.63,9.03-5.81,2.81-5.99,3.55-25.38,15.48-15.89,9.78-20.39,12.12-26.99,12.9-7.55.89-14-.72-18.31-2.26-.33,2.19-1.06,5.36-2.89,8.71-1.82,3.34-3.64,4.85-5.46,7.1,0,0-4.36,5.36-6.43,13.87-2.08,8.58,1.97,10.13,2.25,22.9.14,6.54-.79,11.92-2.25,20.32-.57,3.28-1.97,10.74-1.29,19.67.16,2.14.41,3.86,1.29,5.81,2.14,4.74,6.47,7.25,9.64,9.03,4.68,2.64,5.04,1.5,7.37,3.25,2.62,1.97,3.71,4.56,6.76,17.07,2.53,10.35,2.72,12.43,4.82,16.45,1.52,2.93,3.35,6.34,7.07,9.03,4.88,3.53,10.08,4.03,11.57,4.19,13.74,1.48,93.05,21.73,93.07,35.48.01,9.83-40.49,25.9-70.26,13.98-7.18-2.88-10.62-6.08-29.24-15.27-12.98-6.41-23.91-10.99-31.17-13.87-5.32-4.85-7.24-9.4-8.03-12.58-1.73-6.97.95-11.55-.64-21.61-.6-3.82-1.57-6.84-2.25-8.71-8.33-7.11-13.28-14.46-16.07-19.35-3.29-5.77-8-14.04-8.08-25.19-.03-4.65.78-3.95,1.33-10.93,1.21-15.33-2.81-17.33-1.57-29.79.94-9.36,3.55-11.63,1.57-17.3-1.96-5.61-5.22-5.42-7.07-10.64-2.69-7.61.79-17.79,7.07-23.22,6.85-5.93,15.4-4.79,15.42-6.77.04-3.13-21.34-5.16-21.21-7.42Z"/><path class="cls-9" d="m358.66,341.05s-7.44,3.9-7.07,5.81c.38,1.94,9.08,3.05,17.03,1.29,10.4-2.3,18.23-6.77,23.78-10.32,6.75-4.32,15.97-11.03,25.7-20.96-3.96,1.18-7.93,2.37-11.89,3.55,9.49-5.91,18.11-9.29,24.42-11.29,6.74-2.13,11.77-2.98,18.96-4.19,9.83-1.66,14.86-2.46,20.24-1.29,5.77,1.25,8.65,1.88,11.25,3.23,1.61.84,3.14,1.83,5.46,1.94,2.91.13,4.48-1.25,6.43-1.94,5.23-1.85,11.17,2,16.07,5.16,7.75,5.01,6.66,7.79,13.82,11.29,4.07,1.99,9.81,3.73,10.28,3.87,5.49,1.65,6.97,1.44,9.32,3.23,3.36,2.56,4.62,6.25,5.46,8.71.7,2.06,1.71,5.17.96,9.03-.35,1.82-.57,4.73-2.57,5.81-.44.24-.81.31-1.16.37-6.15,1.19-7.75,2.33-8.8,1.45-.96-.81-.22-2.28-.1-5.45.04-1.14.38-9.66-3.97-12.5-1.7-1.11-3.59-1.02-6.64-.86-4.6.24-5.29,1.78-8.35,1.29-3.46-.55-5.78-3.04-6.56-3.87-1.85-1.99-2.18-3.98-2.97-4.94-3.52-4.28-9.68-6.38-18.96-8.06-1.97-.36-10.16-1.79-23.13-1.61-4.14.06-8.85.12-14.88.88-5.79.73-17.28,2.54-30.42,8.47-10.99,4.96-21.52,12.11-24.1,13.87-4.48,3.06-10.72,7.63-20.12,12.12-1.53.73-4.97,2.33-9.69,3.68-6.62,1.89-11.24,3.2-15.81,1.29-3.2-1.34-4.9-3.65-6.1-2.9-1.07.66-.09,2.73-.76,5.96-.23,1.12-.65,2.33-4.38,7.59-3.79,5.34-4.45,5.64-6.1,8.39-1.44,2.39-2.83,4.71-3.53,7.74-1.35,5.81,1.36,7.64,2.03,19.08.18,3.01.15,5.66.13,6.74-.03,1.67-.13,4.88-.56,8.69-.62,5.52-1.56,8.91-2.07,11.42-2.53,12.52,1.72,22.47.46,22.77-1.18.28-3-6.11-7.4-14.56-4.35-8.36-9.08-14.59-12.52-18.66.26,7.8-.23,9.75-.8,9.84-1.06.16-3.29-5.9-4.21-11.85-1.59-10.25,1.73-13.39.64-21.41-1.16-8.51-5.39-8.56-8.47-17.54-3.21-9.36-3.8-24.42,4.18-32.58.27-.28.49-.46.54-.51,6.91-6.21,15.73-2.17,28.86-2.23,0,0,3.74-.02,28.11-5Z"/><path class="cls-18" d="m458.99,299.86c-3.6-.23-4.35-.43-4.35-.57,0-.41,6.44-.35,14.56-1.82,3.85-.7,6.97-1.54,9.02-2.15,3.2.17,6.63.5,10.23,1.05,9.38,1.44,17.39,4,23.86,6.67-5.99-.4-11.98-.8-17.96-1.2-4.79.42-8.64.26-11.23.06-5.71-.45-8.33-1.41-14.42-1.89-4.16-.33-7.56-.25-9.71-.14Z"/><path class="cls-18" d="m425.57,299.12l-2.01,3.63c-2.73,3.68-5.46,7.36-8.19,11.05-.75.88-1.5,1.77-2.25,2.65-2.3,1.32-4.6,2.64-6.9,3.96,1.29-.43,2.57-.86,3.86-1.29-.97.85-2.44,2.11-4.26,3.63-7.08,5.92-10.71,8.92-14.78,10.97-2.32,1.17-5.87,2.64-10.68,3.47,3.02-1.82,6.08-3.78,9.16-5.89,14.88-10.19,26.72-21.46,36.07-32.17Z"/><path class="cls-6" d="m394.65,566.98c-.18.24-5.03-4.12-13.82-9.19-2.42-1.39-4.82-2.67-8.03-5.16-3.27-2.54-3.61-3.43-5.78-5.16-4.28-3.41-7.36-3.46-13.82-5.81-5.44-1.98-9.72-3.53-13.82-6.77-1.19-.95-10.24-8.32-11.25-19.35-.52-5.69,1.63-6.52.32-11.29-1.95-7.07-8.29-11.11-10.28-12.26-4.95-2.84-10.83-3.68-12.21-3.87-3.75-.51-5.48-.15-8.03-1.61-.28-.16-5.06-2.98-5.14-7.1-.05-2.63,1.87-3.66,3.86-6.77,2.33-3.65,2.73-7.48,3.53-15.16,1.01-9.72-.59-11.76,1.93-15.48,1.45-2.14,3-2.96,3.53-5.48.76-3.59-1.36-6.8-1.93-7.74-2.33-3.88-4-12.01-1.29-30.64-2.86-4.26-5.7-8.98-8.35-14.19-10.05-19.72-13.61-38.61-14.78-52.9-3.34,1.24-4.62.91-5.14.32-1.02-1.15.2-3.99,6.43-14.84,4.33-7.54,4.15-6.88,6.43-10.97,5.58-10,5.68-12.17,9.32-15.8,3.13-3.13,4.08-2.54,9-6.13,6.83-4.98,9.11-9.11,14.46-15.16,3.64-4.11,9.22-9.71,17.35-15.48-3.31-1.37-5.76-1.29-7.39-.97-1.92.38-1.96.97-6.43,2.58-2.76,1-3.5,1.05-4.82,1.94-2.19,1.47-3.25,3.4-3.53,3.87-2.62,4.37-29.5,34.96-49.48,29.99-3.13-.78-10.69-3.58-17.36-17.09,2.15,1.91,5.29,4.55,9.32,7.42,4.6,3.27,6.9,4.91,8.68,5.48,7.68,2.47,16.12-3.52,25.7-10.32,10.15-7.21,8.02-8.58,15.1-12.26,3.72-1.93,8.79-3.88,10.6-8.71.54-1.44,1.21-4.26,1.61-4.19.31.05-.18,1.77.64,2.58,1.67,1.66,7.93-1.27,7.71-2.42-.12-.62-2.05-.5-5.78-.81,0,0-3.96-.32-14.14-2.42-4.46-.92-9.75-2.5-20.56-7.26-19.44-8.56-29.16-12.83-34.86-19.51-3.18-3.72-7.74-10.36-10.12-21.13,7.61,5.25,14.39,8.65,19.28,10.81,11.28,4.97,20.97,7.08,32.93,9.68,7.16,1.56,13.16,2.58,17.35,3.23,1.19,1.24,3.07,3.03,5.62,4.84,3.21,2.27,7.76,5.49,14.14,5.97,1.55.12,5.61.25,10.12-1.61,9.31-3.86,12.71-13.04,13.33-14.84.16,1.88.32,3.76.48,5.64,1.71-2.2,3.43-4.41,5.14-6.61-.42,2.23-1.08,4.69-2.09,7.26-3.78,9.63-10.46,15.61-14.62,18.71.66.25,3.24,1.14,6.1,0,4.08-1.63,5.06-5.92,5.14-6.29.47,2,.98,4.97.8,8.55-.28,5.71-2.18,11.03-8.03,20-3.83,5.88-9.66,13.8-18.15,22.26,5.94-12.15,11.89-24.3,17.83-36.45-1.36.75-3.26,1.84-5.46,3.23-4.16,2.62-11.38,7.18-18.15,14.35-3.53,3.74-10.31,11.08-14.3,22.58-1.34,3.86-2.02,8.92-3.37,19.03-1.69,12.6-1.11,15.83.16,18.71,2.52,5.72,7.11,8.71,8.84,9.84,2.77,1.8,6.24,4.06,8.68,2.74,2.91-1.58,3.42-7.82.96-11.45-2.77-4.1-8.65-3.92-8.51-4.84.12-.83,4.95-1.81,8.68.48.86.53,2.59,1.8,4.18,5.48.85,1.97,2.7,7.04,1.45,15-1.01,6.43-2.12,13.48-8.19,17.58-6.14,4.15-13.4,2.6-15.42,2.1-.57,1.5-1.11,3.28-1.45,5.32-.88,5.31,0,9.79.8,12.58.09-1.1.53-4.45,3.21-7.42,2.3-2.54,4.99-3.41,6.1-3.71-1.17.75-2.78,1.97-4.18,3.87-3.21,4.37-3.03,9.24-3.05,13.39-.09,17.73-3.9,17.16-2.09,27.58,1.2,6.92,3.13,8.62,2.73,14.84-.29,4.57-1.46,5.53-2.09,11.77-.56,5.55-.94,9.33.64,13.55,2.14,5.69,6.67,8.95,9.48,10.97,6.55,4.72,9.57,3.37,12.85,7.42,2.46,3.04,2.44,5.87,3.37,12.58.69,4.97,1.91,12.04,4.18,20.64,1.01-.04,2.62-.25,4.34-1.13,3.16-1.61,4.55-4.37,4.98-5.32-1.47,5.37-3.85,7.72-5.78,8.87-1.91,1.14-3.03.89-4.5,2.26-2.52,2.35-2.92,6.51-2.41,9.35.85,4.7,4.47,7.27,11.25,12.1,7.4,5.26,12.69,6.35,14.14,6.61,2.16.4,4.01.48,5.3.48,2.05,1.61,4.99,3.94,8.51,6.77,2.18,1.75,21.72,17.44,21.37,17.9Z"/><path class="cls-26" d="m358.34,495c.43-.52,1.08-1.34,1.82-2.37,1.31-1.82,1.37-2.18,2.36-3.55,1.48-2.04,1.91-2.02,3.43-4.09.8-1.08,1.53-2.08,2.03-3.23.48-1.09,1.34-3.65.21-7.63.64.86,1.29,1.72,1.93,2.58,1.07.47,2.14.93,3.21,1.4-2.23-1.79-3.35-3.57-3.96-4.84-1.13-2.35-1.01-3.96-2.25-8.28-.52-1.83-1.05-3.28-1.39-4.19-.1,1.38-.27,3.38-.56,5.78-.59,4.89-.88,7.33-1.61,9.35-.71,1.99-2.6,5.79-8.35,9.19.26,1.77.72,3.86,1.53,6.13.5,1.4,1.05,2.64,1.61,3.74Z"/><path class="cls-7" d="m415.53,334.6c.05,2.01,0,4.2-.21,6.56-.45,4.93-1.5,9.17-2.62,12.58,1.4.09,3.26.15,5.46.05,6.4-.29,11.11-1.74,12.21-2.1,4.68-1.49,8.4-3.55,11.14-5.38.09-2.51.18-5.02.27-7.53.45-.93.89-1.86,1.34-2.8.46,2.31.93,4.62,1.39,6.93.18-1.99.36-3.98.54-5.97.38.71.76,1.61,1.02,2.69.66,2.76.12,5.11-.27,6.34.56.01,1.35.02,2.3,0,2.21-.05,3.9-.25,5.3-.43,4.15-.53,8.15-1.18,9.8-1.45.71-1.14,1.42-2.43,2.09-3.87,1.35-2.91,2.14-5.63,2.62-7.9.25,1.77.42,4.04.21,6.67-.2,2.5-.68,4.63-1.18,6.29,2.49.04,4.56-.11,6.05-.27,3.88-.41,5.88-.65,7.87-1.99.61-.42,1.38-1.04,3.43-3.92,1.34-1.89,3.12-4.6,4.98-8.12.36-1.94.71-3.87,1.07-5.81-1.9-.5-3.51-.79-4.66-.97-1.44-.22-5.35-.74-10.39-.27-2.1.2-3.17.31-4.12.86-2.51,1.45-3.35,4.36-3.64,5.7-.55-2.04-.74-3.61-.8-4.73-.03-.5-.04-1.13-.48-1.56-.73-.71-2.1-.36-2.73-.21-3.92.88-8.03.27-12.05.43-.97.04-2.11.08-2.68.86-.47.65-.2,1.36-.05,3.17.16,2,.08,4.2-.21,4.25-.29.04-.38-1.97-1.66-3.76-1.4-1.95-3.53-2.65-4.44-2.96-3.47-1.15-7,0-15.42,3.55-3.22,1.36-7.09,3.04-11.46,5.05Z"/><path class="cls-24" d="m484.83,341.37c-1.69,2.38-2.25,3.16-1.93,3.87.37.82,1.91.95,4.98,1.18,2.74.21,4.31.31,6.21-.38.6-.22.84-.37,2.73-1.51,5.85-3.51,6.13-3.6,6.85-4.3.99-.96,2.31-2.59,3.21-5.32-.28.43-.84,1.18-1.82,1.72-.48.26-.93.4-1.29.48.48-.68,1.01-1.54,1.5-2.58.48-1.03.8-1.99,1.02-2.8-.36-.29-.95-.69-1.77-.91-1.41-.38-2.39.08-2.68-.38-.37-.58,1.03-1.65.7-2.37-.07-.15-.39-.68-3.48-.38-2.93.29-5.01.49-6.53,2.04-.62.63-.7,1.02-1.39,2.37-.49.94-.88,1.57-6.32,9.25Z"/><path class="cls-7" d="m503.36,350.94c-.69-.87-1.26-1.05-1.66-2.04-.79-1.97.32-4.12.64-4.73,1.2-2.31,3.21-3.35,4.71-4.14,2.95-1.54,5.62-1.61,6.43-1.61,2.5,0,2.66.72,5.09.97,5.15.53,7.02-2.43,10.17-1.34,2.61.89,3.81,3.76,4.34,5,1.37,3.26.61,6.93-.96,14.14-2.22,10.15-2.07,9.25-2.25,10.21-1.95,10.24-.5,11.55-2.52,19.84-1.3,5.35-3.07,9.62-3.91,11.61-1.44,3.43-2.93,6.34-4.23,8.65-1.37-2.04-2.75-4.09-4.12-6.13-3.27-6.03-5.09-11.28-6.16-15.05-2.64-9.34-3.33-19.15-3.37-19.84-.2-3.06-1-6.08-.96-9.14.03-2.18.25-4.5-1.23-6.4Z"/><path class="cls-29" d="m496.81,352.03c.29-.38,1.05-1.26,2.37-1.72,1.04-.36,1.94-.3,2.41-.23-.24-.23-.86-.89-1.02-1.94-.09-.59,0-1.08.08-1.38-3.89-.26-6.87-.05-8.91.2-1.44.17-2.75.12-5.36,0-1.33-.06-3.11-.21-3.75-1.29-.21-.36-.16-.58-.43-.81-.79-.66-2.52.23-2.89.41-1.81.88-4.98,1.18-11.3,1.79-3.96.39-6.66-.03-8.78-.21-18.05-1.57-37.66,9.85-46.54,6.88-.71-.24-3.23-1.2-5.33-.04-1.46.81-1.93,2.21-2.44,3.16-2.1,3.93-7.48,3.53-13.68,6.51-3.08,1.48-7.03,3.3-12.66,5.75-14.35,6.24-16.82,6.59-18.8,10.05-6.3,11.02,5.68,30.39,16.39,41.28,4.07,4.14,8.13,6.8,10.92,8.39,2.02-3,4.8-7.38,7.71-12.9,6.96-13.18,10.23-24.47,13.17-34.83,1.55-5.46,3.44-12.79,5.14-21.61,2.42.19,6.12.35,10.6,0,8.85-.69,11.25-2.64,23.13-5.16,10.56-2.24,15.84-3.36,19.6-2.9,4.46.54,9.53,2.11,13.49-.65,1.02-.71,3.23-2.58,4.18-1.94.51.35.14,1.08.64,1.83.31.47,1.11,1.17,6.43.97,3.12-.12,4.28-.41,5.61.39Z"/><path class="cls-24" d="m360.59,362.98c-.07,3.32,0,6.19.11,8.49.21,4.37.54,6.41,1.18,8.49.34,1.11.7,2.01.96,2.63.19-2.83.25-5.12.27-6.61.07-4.42-.13-6.64.27-10.43.19-1.76.43-3.18.59-4.03-1.12.48-2.25.97-3.37,1.45Z"/><path class="cls-24" d="m366.05,361.04c.19,6.16.13,11.13.05,14.41-.3,12.79-1.32,16.58.75,23.12.97,3.08,2.18,5.34,4.5,9.68,3.82,7.14,6.7,10.37,7.6,11.34,2.68,2.9,5.56,5.17,5.73,5,.15-.15-1.9-2.17-4.61-5.48-2.96-3.62-5.7-6.98-7.98-11.72-.89-1.86-2.71-5.71-3.48-11.02-.35-2.37-.23-5.32,0-11.13.21-5.13.44-7.81.75-13.12.17-2.86.39-6.99.59-12.04-1.3.32-2.61.65-3.91.97Z"/><path class="cls-7" d="m371.62,359.32c-.29,5.21-.44,9.58-.54,12.79-.45,15.83.21,20.37.8,23.38.9,4.62,2.08,7.95,2.84,10.05.6,1.66,2.16,4.67,5.3,10.7.46.89,1.36,2.56,3.21,3.6.52.29.89.62,1.39.59,1.19-.07,1.96-1.72,2.41-2.63,1.17-2.38,2.88-4.48,4.02-6.88,3.28-6.94,2.34-4.56,4.12-8.55,2.87-6.44,5.1-11.42,7.18-18.38.81-2.72,1.26-4.61,2.09-8.06,1.98-8.3,2.97-12.45,3.11-17.36.09-3.21-.24-2.96-.37-10.37-.07-3.7-.04-6.76,0-8.82-2.06,1.22-4.13,2.44-6.21,3.66-9.87,5.75-19.66,11.17-29.35,16.29Z"/><path class="cls-24" d="m408.73,338.57c.71,1.52,1.57,3.78,1.87,6.61.43,4.02-.48,7.06-.11,7.15.36.09,1.49-2.68,2.3-5.81,1.13-4.34,1.32-8.09,1.29-10.7-1.79.91-3.57,1.83-5.36,2.74Z"/><path class="cls-26" d="m487.83,306.86c.24-.61,2.14-.65,2.33-.16.16.4-.67,1.52-1.53,1.29-.53-.14-.94-.77-.8-1.13Z"/><path class="cls-3" d="m354.97,483.53c.72-.27,1.74-.73,2.81-1.53,1.59-1.19,3.16-3.03,4.58-6.93,2.29-6.3,2.39-13.07,2.33-16.13-.6-.18-1.25-.41-1.93-.73-2.15-1-3.64-2.39-4.58-3.47-2.2,1.26-4.39,2.53-6.59,3.79-.69.51-1.77,1.19-3.21,1.61-1.27.37-2.29.4-3.21.4-4.28.04-6.42.05-7.47-.24-1.24-.35-3.68-1.26-6.1-3.95.06.54.22,1.43.64,2.42,2.38,5.55,9.54,5.71,14.52,9.05,3.08,2.06,6.68,6.25,8.21,15.7Z"/><path class="cls-26" d="m330.71,454.5c.38,1.33,1.89,2,2.97,2.42,2.82,1.08,5.45,2.1,9.48,1.94,3.81-.15,6.88-1.27,8.92-2.26-1.04-1.34-2.09-2.69-3.13-4.03-1.66-2.13-3.32-4.26-4.98-6.37-4.02.11-8.03.21-12.05.32,2.92-2.2,5.84-4.41,8.76-6.61.62-1.99,1.23-3.98,1.85-5.97-.03-5.97-.05-11.93-.08-17.9l-9.56.56c-.88,4.35-1.42,8.13-1.77,11.13-.54,4.65-1.37,11.73-.88,17.18.25,2.81.92,6.05.46,8.31-.04.19-.15.7.02,1.29Z"/><path class="cls-10" d="m359.31,498.23c-.35,1.63.53,3.06,2.14,5.59,1.35,2.12,2.73,4.29,5.14,6.13,5.29,4.04,11.62,3.53,13.39,3.33.65-.81,1.72-2.18,2.89-3.98,6.4-9.77,5.26-15.52,8.68-26.88.07-.24.92-3.07.11-6.24-.41-1.6-.94-2.08-1.39-2.26-1.09-.43-2.43.66-3,1.08-1.66,1.22-4.52,2.41-9.75,2.26-2.23,4.71-4.77,7.77-6.64,9.68-1.56,1.58-3.25,2.96-3.43,2.8-.18-.17,1.39-1.85,2.93-4.71.82-1.53,1.35-2.87,1.67-3.78-2.86,2.06-4.44,4.2-5.36,5.81-1.65,2.89-1.2,4.12-3.11,6.56-2.13,2.73-3.86,2.66-4.28,4.62Z"/><path class="cls-25" d="m394.01,499.09c-3.19-.22-13.15,26.69-2.14,50.1,1.33,2.82,4.63,9.55,11.57,15.48,20.87,17.83,61.12,16.66,75.72-4.8,2.41-3.54,6.54-11.19,5.82-24.22-29.95,16.2-62.47,28.43-78.75,15.26-17.57-14.21-8.33-51.56-12.21-51.82Z"/><path id="tongue" class="cls-22" d="m364.72,455.77c.49,1.92,1.94,5.3,2.94,7.41,1.6,3.38,2.39,5.07,4.07,6.88.79.86,3.61,3.89,7.68,4.73,6.04,1.24,8.96-3.58,11.71-2.15,3.52,1.83,2.18,11.44.36,26.57-2.96,24.69-3.07,31.38-1.3,39.25,2.44,10.83,6.58,15.55,9.59,18.06.77.64,3.59,2.91,11.22,5.33,5.71,1.81,20.54,6.3,38.2,1.9,4.99-1.24,8.44-2.76,14.45-5.39,9.3-4.08,10.77-5.97,11.42-6.92,1.41-2.09,1.81-4.03,4.09-5.19,1.66-.84,3.06-.64,5.4-2.2,1.34-.89,1.96-1.68,2.14-1.9,1.16-1.52,1.46-3.13,1.55-4-.75-1.59-1.83-3.94-3.06-6.81-3.08-7.2-6.34-14.83-8.4-24-1.4-6.24-1.71-10.82-2.15-17.52-.17-2.54-.5-8.33-.08-22.76.56-19.18,1.56-23.26-.35-31.95-1.6-7.28-2.71-12.01-6.93-14.92-6.32-4.36-16.64-2.6-22.92.22-4.03,1.81-5.1,3.53-8.78,3.87-5.37.49-7.71-2.67-13.49-4.95-11.28-4.44-22.78-.4-26.35.86-6.44,2.27-10.6,5.53-13.92,8.17-2.07,1.65-19.97,16.14-17.08,27.43Z"/><path class="cls-11" d="m374.41,435.1c2.34-1.47,4.71-2.96,7.75-2.67,6.73.64,10.55,9.4,11.8,12.26,5.49,12.57.68,25.58-1.28,30.18-.23-.73-.69-1.79-1.66-2.23-1.83-.82-3.55,1.39-6.85,2.26-3.97,1.04-7.62-.85-8.46-1.29-3.22-1.67-4.88-4.35-6.32-6.67-.31-.5-1.05-2-2.52-5-1.24-2.53-1.69-3.57-2.03-5,0,0-.41-1.72-.45-3.67-.07-4.03,2.1-13.19,10.03-18.18Z"/><path class="cls-26" d="m417.09,537.86c-.04.61,1.65,1.47,3.22,1.29,1.84-.22,3.31-1.84,3.09-2.43-.39-1.01-6.24.03-6.31,1.14Z"/><path class="cls-26" d="m419.01,540.34c-.03.46,1.32,1.11,2.57.97,1.47-.16,2.65-1.38,2.46-1.83-.31-.76-4.98.02-5.03.86Z"/><path class="cls-26" d="m411.78,539.28c-.03.46,1.32,1.11,2.57.97,1.47-.16,2.65-1.38,2.46-1.83-.31-.76-4.98.02-5.03.86Z"/><path class="cls-20" d="m435.56,424.26c-1.58-.2-3.15-.41-4.73-.61.89.92,2.15,2.35,3.29,4.31,3.45,5.89,3.24,11.87,3.02,16.65-.85,17.92-1.72,25.09-1.72,25.09-1.74,14.39-2.62,21.59-2.71,22.97-.71,10.23-1.49,21.54,1.85,35.2,3.52,14.42,10.23,25.73,10.77,25.52.19-.08-.33-1.62-2.59-9.52,0,0-1.49-5.22-3.45-12.33-3.16-11.45-3.51-22.65-3.66-27.46-.32-10.03.56-17.86,1.29-24.44.63-5.59,1.13-8.01,2.37-18.81.19-1.67.84-7.4,1.29-14.92.53-8.82.39-13.51-2.28-18.05-.96-1.63-1.99-2.82-2.75-3.6Z"/><path class="cls-33" d="m243.64,164.29c-8.03,7.74-16.07,15.48-24.1,23.22,1.29,6.62,2.57,16.33,1.93,28.06-.38,6.88-.7,12.65-3.11,19.24-1.74,4.75-6.53,15.31-19.98,24.41-10.06-.52-24.53-1.92-41.49-5.92-21.54-5.08-43.43-10.24-64.9-27.42-8.06-6.45-25.73-20.95-35.02-46.45-8.25-22.63-5.64-42.22-3.86-54.51C61.35,68.1,101.84,29.12,117.69,15.28c-3.52,9.83-7.81,24.3-9.96,42.25-2.75,22.97-4.95,41.34,5.14,59.99,9.15,16.93,23.59,25.15,28.27,27.74,18.57,10.27,36.98,9.7,42.41,9.35,24.38-1.56,40.16-5.16,40.16-5.16,1.83-.42,9.06-2.11,15.74,1.29,1.75.89,5.33,2.71,6.1,6.45.71,3.43-1.37,6.36-1.93,7.1Z"/><path class="cls-31" d="m222.43,223.32c-2.47-.27-6.03-.69-10.28-1.29-5.75-.82-37.15-5.44-60.73-14.84-15.89-6.33-43.7-17.41-61.37-46.12-21.42-34.79-13.92-72.68-11.25-83.54,3.68-14.9,9.99-26.26,11.57-29.03,11.7-20.55,27.51-33.02,27.31-33.22-.16-.16-9.59,7.58-18.96,17.74-12.29,13.33-44.73,48.51-46.59,99.34-.39,10.6-1.63,44.68,20.71,74.97,26.63,36.09,69.73,43.7,89.39,47.18,16.31,2.88,30.11,2.86,39.4,2.35,2.81-1.38,6.08-3.41,9.22-6.45,10.14-9.82,11.35-22.84,11.57-27.09Z"/><path class="cls-32" d="m115.81,20.78c-.72-.26-9.32,16.58-14.83,39.98-3.57,15.14-7.11,30.2-4.18,49.67,1.29,8.56,3.94,24.78,16.07,39.35,3.97,4.77,11.13,11.98,21.85,15.48,2.09.69,13,4.25,15.74.32,1.34-1.92.67-5.55-1.29-7.1-2.08-1.65-5.24-.62-6.75-.32-8.88,1.75-19.05-10.32-23.13-15.16-15.17-18-17.42-44.32-17.67-47.74-3.12-41.77,15.19-74.12,14.19-74.49Z"/><path class="cls-41" d="m192.55,155.91c1.14,2.79-13.8,7.72-22.17,21.61-2.94,4.87-4.28,9.55-4.96,12.84.37-7.18.73-14.37,1.1-21.55,3.12-3.5,5.13-6.67,6.43-9.03,1.3-2.37,1.96-4.07,3.89-5.04,1.52-.77,2.81-.57,6.72-.12,8.42.98,8.81.83,9,1.29Z"/><path class="cls-29" d="m192.55,155.91c-.28-.41-6.76,2.7-12.21,7.42-4.09,3.54-12.78,12.46-16.07,30.64,1.85-6.39,5.48-15.75,13.17-24.51,7.14-8.13,15.43-13.07,15.1-13.55Z"/><path class="cls-16" d="m244,164.25c-8.03,7.74-16.07,15.48-24.1,23.22,1.29,6.62,2.57,16.33,1.93,28.06-.38,6.88-.7,12.65-3.11,19.24-1.74,4.75-6.53,15.31-19.98,24.41-10.06-.52-24.53-1.92-41.49-5.92-21.54-5.08-43.43-10.24-64.9-27.42-8.06-6.45-25.73-20.95-35.02-46.45-8.25-22.63-5.64-42.22-3.86-54.51C61.71,68.05,102.2,29.07,118.05,15.24c-3.52,9.83-7.81,24.3-9.96,42.25-2.75,22.97-4.95,41.34,5.14,59.99,9.15,16.93,23.59,25.15,28.27,27.74,18.57,10.27,36.98,9.7,42.41,9.35,24.38-1.56,40.16-5.16,40.16-5.16,1.83-.42,9.06-2.11,15.74,1.29,1.75.89,5.33,2.71,6.1,6.45.71,3.43-1.37,6.36-1.93,7.1Z"/><path class="cls-28" d="m457.59,154.14c2.89-1.61,5.78-3.23,8.68-4.84,31.2-17.4,34.28-19.11,34.7-19.35,11.07-6.25,28.49-32.46,56.87-116.11,5.59,15.86,12.78,38.98,18.31,67.73,3.56,18.47,5.32,27.95,4.82,39.67-.58,13.45-4.39,48.74-30.85,73.54-3.47,3.25-6.61,5.65-8.78,7.2-4.12-3.71-7.9-5.51-10.5-6.45-5.89-2.14-9.16-1.18-13.31-4.26-3.26-2.41-3.53-4.7-5.53-7.14-2.88-3.51-9.01-6.96-23.56-5.59-1.57-3.49-4.61-9.06-10.28-14.19-7.95-7.2-16.56-9.44-20.56-10.21Z"/><path class="cls-12" d="m491.2,138.32c-2.48-.03-4.16.59-4.9,3.1-.14.47-.24.96-.32,1.45,3.6-2.36,5.42-3.81,5.81-3.41.67.69-4.24,5.67-3.21,6.99.87,1.12,5.48-1.14,6-1.4,5.42-2.67,6.12-5.51,11.35-7.96.69-.32,5.45-2.55,6.43-1.29.92,1.18-1.64,5.18-4.71,7.53-3.22,2.46-6.75,2.92-8.68,3.01,1,.77,2.78,1.86,5.14,2.04,3.12.24,6.24-1.22,8.6-3.81-.55.72-1.13,1.46-1.74,2.2-2.48,2.98-4.98,5.43-7.28,7.42,2.13-.08,5.27-.45,8.68-1.94,5.66-2.48,8.88-6.67,10.6-9.03,16.99-23.3,23.78-40.85,23.78-40.85,9.94-25.7,11.91-46.68,12.42-53.33,1.23-16.05.54-35.08-1.32-35.21-2.65-.18-4.62,38.45-21.39,88.32-8.68,25.81-15.33,36.82-18.21,36.12-.76-.18-2.39-1.47-2.36-2.8.04-1.59,2.45-2.18,2.36-3.23-.11-1.28-3.9-2.77-7.71-2.37-7.68.82-12.13,8.99-13.71,7.96-1.12-.73,1.26-4.75-.02-5.84-.8-.68-2.51.27-5.42,2.2,2.19.52,2.3,4.14-.2,4.11Z"/><path class="cls-34" d="m488.79,136.27c.17.48,5.7-1.94,6.75-.58.59.77-.07,2.95-5.36,9.03,16.36-11.92,21.73-13.15,23.35-11.61,1.15,1.1.45,3.66.21,4.52-1.98,7.22-11.94,8.95-12.42,9.03,2.34.14,5.74-.06,8.57-2.15,3.69-2.72,4.66-7.36,5.57-7.1.65.19.7,2.67.21,4.73-1.29,5.44-6.49,8.42-8.57,9.46,1.93-.54,4.73-1.58,7.45-3.74,3.82-3.03,5.4-6.58,7.33-10.45,4.54-9.13,3.82-5.56,8.94-15.81,11.23-22.51,18.17-36.42,22.77-55.15,2.96-12.06,5.95-30.21,4.28-53.11-16.1,45.53-29.76,78.38-34.87,87.63-1.6,2.91-5.35,8.89-8,12.98-2.53,3.9-4.86,7.34-8.49,11.13-1.68,1.76-2.53,2.64-3.69,3.51-2.35,1.76-4.51,2.63-11.78,6.24-.69.34-2.35,1.17-2.25,1.44Z"/><path class="cls-29" d="m527.45,145.37s3.81,2.82,7.71,6.67c6.6,6.5,14.97,17.8,19.45,37.75,1.2-1.47,2.4-2.94,3.6-4.42-1.52-4.35-4.1-10.55-8.53-17.21-9.46-14.21-22.22-22.8-22.22-22.79Z"/><path class="cls-16" d="m457.97,153.75c2.89-1.61,5.78-3.23,8.68-4.84,31.2-17.4,34.28-19.11,34.7-19.35,11.07-6.25,28.49-32.46,56.87-116.11,5.59,15.86,12.78,38.98,18.31,67.73,3.56,18.47,5.32,27.95,4.82,39.67-.58,13.45-4.39,48.74-30.85,73.54-3.47,3.25-6.61,5.65-8.78,7.2-4.12-3.71-7.9-5.51-10.5-6.45-5.89-2.14-9.16-1.18-13.31-4.26-3.26-2.41-3.53-4.7-5.53-7.14-2.88-3.51-9.01-6.96-23.56-5.59-1.57-3.49-4.61-9.06-10.28-14.19-7.95-7.2-16.56-9.44-20.56-10.21Z"/><path class="cls-29" d="m403.65,602.95c-.12.21-1.18,2.16-.48,3.47.36.67.95.76,4.34,1.53,1.87.43,3.78.7,5.62,1.21,1.29.36,2.2.68,3.29.32.75-.24.87-.57,1.69-.81,1.59-.47,2.91.24,2.97.08.06-.15-1.05-.84-5.46-2.98.03.51.05,1.02.08,1.53-.4-.79-1.11-1.86-2.33-2.42-1.42-.65-2.05.1-3.69-.32-2.71-.69-3.53-3.33-4.9-2.9-.48.15-.73.59-1.12,1.29Z"/><path class="cls-6" d="m280.59,136.96c-6.54-1.61-12.24-3.66-17.03-5.73,14.32,2.96,28.65,5.91,42.97,8.87-7.06,0-15.97-.69-25.95-3.14Z"/><path class="cls-29" d="m536.91,202.11c-.1-.05-.55.96-1.77,2.9-.25.4-.39.61-.48.97-.25.97.2,1.7.48,2.5.28.8.19,2.33,0,5.4-.08,1.33-.12,1.36-.18,2.38-.22,3.53,0,6.57.1,6.57.1,0-.4-3.06.4-7.26.49-2.55,1.1-3.62.8-5.81-.19-1.43-.55-1.71-.56-3.06-.02-2.65,1.34-4.53,1.2-4.6Z"/><path class="cls-26" d="m540.12,233.16c.1,2.99.2,5.98.29,8.98,1.4,4.59,2.8,9.17,4.2,13.76-1.5-7.58-3-15.16-4.5-22.74Z"/><path class="cls-38" d="m545.88,275.36c-.1-.02.18-.82-.21-1.8-.38-.94-1.01-1.1-.96-1.61.06-.71,1.33-1.45,1.85-1.13.94.57-.45,4.58-.67,4.54Z"/><path class="cls-19" d="m167.01,402.81c-3.34,18.03-2.33,32.06-.96,41.12,2.38,15.74,6.28,19.59,26.51,69.18,8.88,21.78,13.32,32.66,14.46,37.25,3.32,13.42,3.79,23.13,11.57,34.83,4.86,7.32,9.41,10.64,13.49,14.51,9.1,8.64,19.63,23.61,25.06,51.28-12.33-4.26-33.23-12-55.91-23.22-16.44-8.14-29.79-16.12-33.33-18.25-4.12-2.48-7.56-4.64-10.09-6.26.49-2.21,1.43-4.63,3.42-5.48,3.94-1.69,9.94,3.65,10.12,3.39.2-.3-8.89-5.29-8.19-8.22.88-3.74,17.32-2.72,17.35-3.39.02-.36-12.72,1.36-23.62-3.39-20.94-9.12-25.89-38.14-26.51-42.09-2.28-14.53.36-29.56,3.86-30,3.51-.44,5.44,14.17,19.76,31.93,4.93,6.12,11.04,12.24,12.2,11.41,1.25-.89-4.23-8.94-8.34-20.6-3.83-10.84-4.99-20.55-5.3-27.58,4.98,2.58,9.96,5.16,14.94,7.74-3.18-4.5-7.76-11.13-13.01-19.35-13.01-20.35-19.58-30.78-22.65-43.06-2.87-11.47-6.6-26.37,1.93-38.22,10.19-14.17,30.45-13.66,33.25-13.55Z"/><path class="cls-35" d="m328.14,418.46c1.04.54.9,2.57.11,8.95-1.24,10.05-1.64,11.11-2.04,15.56-.61,6.8-.21,10.43-.96,10.54-.64.09-2.06-2.36-1.82-4.73.16-1.64,1.03-2.37.75-3.87-.21-1.15-.89-1.66-1.5-2.47-2.1-2.8-.15-4.9-1.5-10.64-.68-2.92-1.56-3.96-.86-5.38.47-.96,1.31-1.35,2.14-3.12.52-1.1.38-1.33.75-2.04,1-1.94,3.7-3.44,4.93-2.8Z"/><path class="cls-26" d="m311.65,455.33c-1.93-1-3.54-.75-4.39-2.15-.57-.93-.42-1.79-.32-3.66.21-3.94-.06-7.41-.21-7.42-.15,0,.18,3.19-.75,7.2-.18.8-.56,2.25-.11,3.98.2.76.5,1.35.73,1.74,2.09.78,3.56,1.73,4.52,2.46,2.18,1.65,2.56,2.78,4.93,4.19,1.45.86,1.55.59,3.43,1.61,2.98,1.63,4.49,3.28,4.63,3.15.15-.16-1.73-2.4-4.2-4.76-2.52-2.41-4.75-4.54-8.25-6.34Z"/><path class="cls-26" d="m331.35,471.89c-.23.18.48,1.64,1.39,2.69.75.86,1.39,1.17,1.82,1.51,1.99,1.54,1.35,5.05,1.61,7.96.19,2.18,1,5.19,3.75,8.71l1.18-2.58c-.58-.46-1.42-1.26-2.03-2.47-1.29-2.54-.29-4.44-.54-6.88-.55-5.34-6.7-9.3-7.18-8.92Z"/><path class="cls-26" d="m352.56,511.78c-.69.36-.38,2.44.11,3.76,1.21,3.26,4.52,4.54,5.36,4.84-.07-1.29-.14-2.58-.21-3.87-3.35-4.28-4.69-5.02-5.25-4.73Z"/><path class="cls-26" d="m351.17,490.49c0,3.04.46,5.43.86,6.99,1.18,4.61,3.3,7.84,5.46,11.07,1.83,2.74,2.74,4.1,3.96,5.16,4.17,3.61,9.74,3.82,13.17,3.55-2.11-.28-5.52-1-9-3.23-5.32-3.4-7.71-8.35-9.85-12.79-1.16-2.41-2.66-6.04-3.64-10.75h-.96Z"/><path class="cls-26" d="m405.9,495.76v3.66c2.36-1.11,3.93-.97,4.93-.65,1.82.59,1.85,1.83,4.5,3.12,1.79.87,2.27.54,3.64,1.51,1.65,1.16,1.58,2.06,2.68,2.37,1.56.43,3.73-.81,4.5-2.58.95-2.2-.56-4.58-.86-5.05-3.75-5.91-18.35-2.61-19.39-2.37Z"/><path class="cls-26" d="m429.03,475.76c-.34.68-1.43.21-2.78,1.29-1.38,1.1-.94,2.15-1.93,2.9-2.2,1.67-7.57-1.1-8.57-1.61-1.63-.84-2.76-1.72-4.07-1.29-1.06.34-1.42,1.28-2.25,1.18-.35-.04-.95-.28-1.82-2.15-1.14-2.45-2.11-4.52-1.18-5.91,1.26-1.89,5.33-1.56,7.82-.43,1.22.55,1.31.96,2.36,1.18,2.4.51,3.5-1.29,5.68-1.4,3.74-.19,7.48,4.77,6.75,6.24Z"/><path class="cls-26" d="m414.32,474.7c-.76.21-1.77.57-2.85,1.22-1.14.68-1.97,1.43-2.53,2.03.69.39,1.64.82,2.81,1.09,2.12.49,3.91.23,4.94-.01-.18-.03-1.46-.24-2.19-1.45-.82-1.35-.23-2.75-.18-2.88Z"/><path class="cls-26" d="m416.15,474.21c-.07.29-.22.98.12,1.58.48.85,1.45.63,2.02,1.5.52.79-.03,1.38.44,1.87.76.78,3.13.26,3.84-1.01.24-.43.11-.62.36-.89.83-.89,2.8.4,3.31-.2.49-.58-.41-2.88-2.1-3.65-1.27-.58-2.54-.1-3.03-.89-.32-.52.08-.97-.2-1.26-.69-.7-4.24.65-4.77,2.96Z"/><path class="cls-26" d="m430.97,445.18c-.53.13-.77,1.54-.53,2.68.31,1.4,1.37,2.45,1.66,2.31.24-.12-.21-1.04.24-1.46.44-.41,1.27.09,1.45-.2.1-.16-.04-.46-1.29-1.91-1.21-1.39-1.39-1.45-1.53-1.42Z"/><path class="cls-29" d="m532.34,566.08c-.48-.3-2.71,1.67-3.45,4.33-.41,1.48-.47,3.56,0,3.68.95.24,4.27-7.49,3.45-8Z"/><path class="cls-29" d="m511.43,552.88c-.44-.5-2.51.24-3.66,1.73-1.28,1.66-1.27,4.06-.65,4.33,1.09.46,5.1-5.15,4.31-6.06Z"/><path class="cls-29" d="m504.34,566.83c-.12.67-.28,1.69-.43,2.92-.78,6.3.02,7.39-.65,11.25-.82,4.74-2.69,6.92-1.63,7.97.72.71,2.24.36,3.46-.08-.34-3.85-.35-8.83.75-14.49.55-2.8,1.27-5.29,2.05-7.46-1.18-.04-2.37-.07-3.55-.11Z"/><path class="cls-29" d="m539.96,615.92c-.3.14-.23,1.41.4,2.43,1.32,2.15,4.86,2.81,5.57,1.87.48-.64-.13-2.25-1.05-2.6-.72-.27-1.12.42-2.1.32-1.63-.15-2.42-2.23-2.83-2.03Z"/><path class="cls-29" d="m498.03,615.27c-.41-.17-1.87,2.08-2.5,4.3-.67,2.35-.53,5.12-.08,5.19.84.13,3.37-9.17,2.59-9.49Z"/></svg>